solid SHAPR3D_SOLID
facet normal 0.000000e+00 0.000000e+00 -1.000000e+00
outer loop
vertex -1.000000e+00 -6.500000e+00 0.000000e+00
vertex -7.932495e-01 -6.550959e+00 0.000000e+00
vertex -8.406136e-01 -6.641204e+00 0.000000e+00
endloop
endfacet
facet normal -0.000000e+00 0.000000e+00 -1.000000e+00
outer loop
vertex -8.406136e-01 -6.641204e+00 0.000000e+00
vertex -9.244911e-01 -6.699101e+00 0.000000e+00
vertex -1.000000e+00 -6.500000e+00 0.000000e+00
endloop
endfacet
facet normal -0.000000e+00 0.000000e+00 -1.000000e+00
outer loop
vertex -9.244911e-01 -6.699101e+00 0.000000e+00
vertex -1.025667e+00 -6.711386e+00 0.000000e+00
vertex -1.000000e+00 -6.500000e+00 0.000000e+00
endloop
endfacet
facet normal 0.000000e+00 0.000000e+00 -1.000000e+00
outer loop
vertex -1.025667e+00 -6.711386e+00 0.000000e+00
vertex -1.120963e+00 -6.675245e+00 0.000000e+00
vertex -1.000000e+00 -6.500000e+00 0.000000e+00
endloop
endfacet
facet normal 0.000000e+00 0.000000e+00 -1.000000e+00
outer loop
vertex -1.120963e+00 -6.675245e+00 0.000000e+00
vertex -1.188547e+00 -6.598957e+00 0.000000e+00
vertex -1.000000e+00 -6.500000e+00 0.000000e+00
endloop
endfacet
facet normal 0.000000e+00 0.000000e+00 -1.000000e+00
outer loop
vertex -1.188547e+00 -6.598957e+00 0.000000e+00
vertex -1.212938e+00 -6.500000e+00 0.000000e+00
vertex -1.000000e+00 -6.500000e+00 0.000000e+00
endloop
endfacet
facet normal 0.000000e+00 0.000000e+00 -1.000000e+00
outer loop
vertex -1.212938e+00 -6.500000e+00 0.000000e+00
vertex -1.188547e+00 -6.401043e+00 0.000000e+00
vertex -1.000000e+00 -6.500000e+00 0.000000e+00
endloop
endfacet
facet normal 0.000000e+00 0.000000e+00 -1.000000e+00
outer loop
vertex -1.188547e+00 -6.401043e+00 0.000000e+00
vertex -1.120963e+00 -6.324755e+00 0.000000e+00
vertex -1.000000e+00 -6.500000e+00 0.000000e+00
endloop
endfacet
facet normal 0.000000e+00 0.000000e+00 -1.000000e+00
outer loop
vertex -1.120963e+00 -6.324755e+00 0.000000e+00
vertex -1.025667e+00 -6.288614e+00 0.000000e+00
vertex -1.000000e+00 -6.500000e+00 0.000000e+00
endloop
endfacet
facet normal 0.000000e+00 0.000000e+00 -1.000000e+00
outer loop
vertex -1.025667e+00 -6.288614e+00 0.000000e+00
vertex -9.244911e-01 -6.300899e+00 0.000000e+00
vertex -1.000000e+00 -6.500000e+00 0.000000e+00
endloop
endfacet
facet normal 0.000000e+00 -0.000000e+00 -1.000000e+00
outer loop
vertex -9.244911e-01 -6.300899e+00 0.000000e+00
vertex -8.406136e-01 -6.358796e+00 0.000000e+00
vertex -1.000000e+00 -6.500000e+00 0.000000e+00
endloop
endfacet
facet normal 0.000000e+00 -0.000000e+00 -1.000000e+00
outer loop
vertex -8.406136e-01 -6.358796e+00 0.000000e+00
vertex -7.932495e-01 -6.449041e+00 0.000000e+00
vertex -1.000000e+00 -6.500000e+00 0.000000e+00
endloop
endfacet
facet normal 0.000000e+00 -0.000000e+00 -1.000000e+00
outer loop
vertex -7.932495e-01 -6.449041e+00 0.000000e+00
vertex -7.870619e-01 -6.500000e+00 0.000000e+00
vertex -1.000000e+00 -6.500000e+00 0.000000e+00
endloop
endfacet
facet normal -0.000000e+00 0.000000e+00 -1.000000e+00
outer loop
vertex -7.870619e-01 -6.500000e+00 0.000000e+00
vertex -7.932495e-01 -6.550959e+00 0.000000e+00
vertex -1.000000e+00 -6.500000e+00 0.000000e+00
endloop
endfacet
facet normal -9.709418e-01 2.393157e-01 0.000000e+00
outer loop
vertex -1.212938e+00 -6.500000e+00 0.000000e+00
vertex -1.212938e+00 -6.500000e+00 3.500000e+00
vertex -1.188547e+00 -6.401043e+00 3.500000e+00
endloop
endfacet
facet normal -7.485107e-01 6.631227e-01 0.000000e+00
outer loop
vertex -1.188547e+00 -6.401043e+00 0.000000e+00
vertex -1.188547e+00 -6.401043e+00 3.500000e+00
vertex -1.120963e+00 -6.324755e+00 3.500000e+00
endloop
endfacet
facet normal -3.546049e-01 9.350162e-01 0.000000e+00
outer loop
vertex -1.120963e+00 -6.324755e+00 0.000000e+00
vertex -1.120963e+00 -6.324755e+00 3.500000e+00
vertex -1.025667e+00 -6.288614e+00 3.500000e+00
endloop
endfacet
facet normal 1.205367e-01 9.927089e-01 -0.000000e+00
outer loop
vertex -1.025667e+00 -6.288614e+00 0.000000e+00
vertex -1.025667e+00 -6.288614e+00 3.500000e+00
vertex -9.244911e-01 -6.300899e+00 3.500000e+00
endloop
endfacet
facet normal 5.680647e-01 8.229839e-01 -0.000000e+00
outer loop
vertex -9.244911e-01 -6.300899e+00 0.000000e+00
vertex -9.244911e-01 -6.300899e+00 3.500000e+00
vertex -8.406136e-01 -6.358796e+00 3.500000e+00
endloop
endfacet
facet normal 8.854560e-01 4.647232e-01 -0.000000e+00
outer loop
vertex -8.406136e-01 -6.358796e+00 0.000000e+00
vertex -8.406136e-01 -6.358796e+00 3.500000e+00
vertex -7.932495e-01 -6.449041e+00 3.500000e+00
endloop
endfacet
facet normal 9.927089e-01 -1.205367e-01 0.000000e+00
outer loop
vertex -7.932495e-01 -6.550959e+00 0.000000e+00
vertex -7.870619e-01 -6.500000e+00 0.000000e+00
vertex -7.870619e-01 -6.500000e+00 3.500000e+00
endloop
endfacet
facet normal 9.927089e-01 1.205367e-01 0.000000e+00
outer loop
vertex -7.932495e-01 -6.449041e+00 3.500000e+00
vertex -7.870619e-01 -6.500000e+00 3.500000e+00
vertex -7.870619e-01 -6.500000e+00 0.000000e+00
endloop
endfacet
facet normal 9.927089e-01 1.205367e-01 0.000000e+00
outer loop
vertex -7.870619e-01 -6.500000e+00 0.000000e+00
vertex -7.932495e-01 -6.449041e+00 0.000000e+00
vertex -7.932495e-01 -6.449041e+00 3.500000e+00
endloop
endfacet
facet normal 8.854560e-01 -4.647232e-01 0.000000e+00
outer loop
vertex -7.932495e-01 -6.550959e+00 0.000000e+00
vertex -7.932495e-01 -6.550959e+00 3.500000e+00
vertex -8.406136e-01 -6.641204e+00 3.500000e+00
endloop
endfacet
facet normal 5.680647e-01 -8.229839e-01 0.000000e+00
outer loop
vertex -8.406136e-01 -6.641204e+00 0.000000e+00
vertex -8.406136e-01 -6.641204e+00 3.500000e+00
vertex -9.244911e-01 -6.699101e+00 3.500000e+00
endloop
endfacet
facet normal 1.205367e-01 -9.927089e-01 0.000000e+00
outer loop
vertex -9.244911e-01 -6.699101e+00 0.000000e+00
vertex -9.244911e-01 -6.699101e+00 3.500000e+00
vertex -1.025667e+00 -6.711386e+00 3.500000e+00
endloop
endfacet
facet normal -3.546049e-01 -9.350162e-01 0.000000e+00
outer loop
vertex -1.025667e+00 -6.711386e+00 0.000000e+00
vertex -1.025667e+00 -6.711386e+00 3.500000e+00
vertex -1.120963e+00 -6.675245e+00 3.500000e+00
endloop
endfacet
facet normal -7.485107e-01 -6.631227e-01 0.000000e+00
outer loop
vertex -1.120963e+00 -6.675245e+00 0.000000e+00
vertex -1.120963e+00 -6.675245e+00 3.500000e+00
vertex -1.188547e+00 -6.598957e+00 3.500000e+00
endloop
endfacet
facet normal -9.709418e-01 -2.393157e-01 0.000000e+00
outer loop
vertex -1.188547e+00 -6.598957e+00 0.000000e+00
vertex -1.188547e+00 -6.598957e+00 3.500000e+00
vertex -1.212938e+00 -6.500000e+00 3.500000e+00
endloop
endfacet
facet normal -9.709418e-01 -2.393157e-01 -0.000000e+00
outer loop
vertex -1.212938e+00 -6.500000e+00 3.500000e+00
vertex -1.212938e+00 -6.500000e+00 0.000000e+00
vertex -1.188547e+00 -6.598957e+00 0.000000e+00
endloop
endfacet
facet normal -7.485107e-01 -6.631227e-01 -0.000000e+00
outer loop
vertex -1.188547e+00 -6.598957e+00 3.500000e+00
vertex -1.188547e+00 -6.598957e+00 0.000000e+00
vertex -1.120963e+00 -6.675245e+00 0.000000e+00
endloop
endfacet
facet normal -3.546049e-01 -9.350162e-01 -0.000000e+00
outer loop
vertex -1.120963e+00 -6.675245e+00 3.500000e+00
vertex -1.120963e+00 -6.675245e+00 0.000000e+00
vertex -1.025667e+00 -6.711386e+00 0.000000e+00
endloop
endfacet
facet normal 1.205367e-01 -9.927089e-01 0.000000e+00
outer loop
vertex -1.025667e+00 -6.711386e+00 3.500000e+00
vertex -1.025667e+00 -6.711386e+00 0.000000e+00
vertex -9.244911e-01 -6.699101e+00 0.000000e+00
endloop
endfacet
facet normal 5.680647e-01 -8.229839e-01 0.000000e+00
outer loop
vertex -9.244911e-01 -6.699101e+00 3.500000e+00
vertex -9.244911e-01 -6.699101e+00 0.000000e+00
vertex -8.406136e-01 -6.641204e+00 0.000000e+00
endloop
endfacet
facet normal 8.854560e-01 -4.647232e-01 0.000000e+00
outer loop
vertex -8.406136e-01 -6.641204e+00 3.500000e+00
vertex -8.406136e-01 -6.641204e+00 0.000000e+00
vertex -7.932495e-01 -6.550959e+00 0.000000e+00
endloop
endfacet
facet normal 9.927089e-01 -1.205367e-01 0.000000e+00
outer loop
vertex -7.870619e-01 -6.500000e+00 3.500000e+00
vertex -7.932495e-01 -6.550959e+00 3.500000e+00
vertex -7.932495e-01 -6.550959e+00 0.000000e+00
endloop
endfacet
facet normal 8.854560e-01 4.647232e-01 0.000000e+00
outer loop
vertex -7.932495e-01 -6.449041e+00 3.500000e+00
vertex -7.932495e-01 -6.449041e+00 0.000000e+00
vertex -8.406136e-01 -6.358796e+00 0.000000e+00
endloop
endfacet
facet normal 5.680647e-01 8.229839e-01 0.000000e+00
outer loop
vertex -8.406136e-01 -6.358796e+00 3.500000e+00
vertex -8.406136e-01 -6.358796e+00 0.000000e+00
vertex -9.244911e-01 -6.300899e+00 0.000000e+00
endloop
endfacet
facet normal 1.205367e-01 9.927089e-01 0.000000e+00
outer loop
vertex -9.244911e-01 -6.300899e+00 3.500000e+00
vertex -9.244911e-01 -6.300899e+00 0.000000e+00
vertex -1.025667e+00 -6.288614e+00 0.000000e+00
endloop
endfacet
facet normal -3.546049e-01 9.350162e-01 0.000000e+00
outer loop
vertex -1.025667e+00 -6.288614e+00 3.500000e+00
vertex -1.025667e+00 -6.288614e+00 0.000000e+00
vertex -1.120963e+00 -6.324755e+00 0.000000e+00
endloop
endfacet
facet normal -7.485107e-01 6.631227e-01 0.000000e+00
outer loop
vertex -1.120963e+00 -6.324755e+00 3.500000e+00
vertex -1.120963e+00 -6.324755e+00 0.000000e+00
vertex -1.188547e+00 -6.401043e+00 0.000000e+00
endloop
endfacet
facet normal -9.709418e-01 2.393157e-01 0.000000e+00
outer loop
vertex -1.188547e+00 -6.401043e+00 3.500000e+00
vertex -1.188547e+00 -6.401043e+00 0.000000e+00
vertex -1.212938e+00 -6.500000e+00 0.000000e+00
endloop
endfacet
facet normal 9.161316e-17 -1.112385e-17 -1.000000e+00
outer loop
vertex -7.932495e-01 -6.550959e+00 3.500000e+00
vertex -7.870619e-01 -6.500000e+00 3.500000e+00
vertex 6.787062e+00 -6.500000e+00 3.500000e+00
endloop
endfacet
facet normal 9.138695e-17 -2.252486e-17 -1.000000e+00
outer loop
vertex -7.932495e-01 -6.449041e+00 3.500000e+00
vertex 6.811453e+00 -6.401043e+00 3.500000e+00
vertex 6.787062e+00 -6.500000e+00 3.500000e+00
endloop
endfacet
facet normal 0.000000e+00 -0.000000e+00 -1.000000e+00
outer loop
vertex 6.940000e+00 -6.200000e+00 3.500000e+00
vertex 6.940000e+00 -6.295690e+00 3.500000e+00
vertex 6.879037e+00 -6.324755e+00 3.500000e+00
endloop
endfacet
facet normal 9.094352e-17 -4.773084e-17 -1.000000e+00
outer loop
vertex 6.811453e+00 -6.598957e+00 3.500000e+00
vertex -8.406136e-01 -6.641204e+00 3.500000e+00
vertex -7.932495e-01 -6.550959e+00 3.500000e+00
endloop
endfacet
facet normal 9.161316e-17 1.112385e-17 -1.000000e+00
outer loop
vertex 6.787062e+00 -6.500000e+00 3.500000e+00
vertex -7.870619e-01 -6.500000e+00 3.500000e+00
vertex -7.932495e-01 -6.449041e+00 3.500000e+00
endloop
endfacet
facet normal 9.008021e-17 -4.401834e-17 -1.000000e+00
outer loop
vertex 6.879037e+00 -6.324755e+00 3.500000e+00
vertex -8.406136e-01 -6.358796e+00 3.500000e+00
vertex 6.940000e+00 -6.200000e+00 3.500000e+00
endloop
endfacet
facet normal 9.141116e-17 -1.324319e-16 -1.000000e+00
outer loop
vertex 6.811453e+00 -6.598957e+00 3.500000e+00
vertex -9.244911e-01 -6.699101e+00 3.500000e+00
vertex -8.406136e-01 -6.641204e+00 3.500000e+00
endloop
endfacet
facet normal 9.023863e-17 -7.994445e-17 -1.000000e+00
outer loop
vertex 6.879037e+00 -6.324755e+00 3.500000e+00
vertex 6.811453e+00 -6.401043e+00 3.500000e+00
vertex -8.406136e-01 -6.358796e+00 3.500000e+00
endloop
endfacet
facet normal 7.979893e-17 6.572033e-16 -1.000000e+00
outer loop
vertex 6.940000e+00 -6.200000e+00 3.500000e+00
vertex -9.244911e-01 -6.300899e+00 3.500000e+00
vertex -1.025667e+00 -6.288614e+00 3.500000e+00
endloop
endfacet
facet normal 9.094352e-17 4.773084e-17 -1.000000e+00
outer loop
vertex -7.932495e-01 -6.449041e+00 3.500000e+00
vertex -8.406136e-01 -6.358796e+00 3.500000e+00
vertex 6.811453e+00 -6.401043e+00 3.500000e+00
endloop
endfacet
facet normal 1.477037e-16 -4.124249e-15 -1.000000e+00
outer loop
vertex 6.811453e+00 -6.598957e+00 3.500000e+00
vertex -3.500000e+00 -6.800000e+00 3.500000e+00
vertex -1.025667e+00 -6.711386e+00 3.500000e+00
endloop
endfacet
facet normal 0.000000e+00 0.000000e+00 -1.000000e+00
outer loop
vertex -3.208717e+00 -6.428205e+00 3.500000e+00
vertex -1.188547e+00 -6.401043e+00 3.500000e+00
vertex -1.212938e+00 -6.500000e+00 3.500000e+00
endloop
endfacet
facet normal 6.646450e-17 3.247835e-17 -1.000000e+00
outer loop
vertex 6.940000e+00 -6.800000e+00 3.500000e+00
vertex -3.500000e+00 -6.800000e+00 3.500000e+00
vertex 6.879037e+00 -6.675245e+00 3.500000e+00
endloop
endfacet
facet normal 8.662065e-17 1.254917e-16 -1.000000e+00
outer loop
vertex 6.940000e+00 -6.200000e+00 3.500000e+00
vertex -8.406136e-01 -6.358796e+00 3.500000e+00
vertex -9.244911e-01 -6.300899e+00 3.500000e+00
endloop
endfacet
facet normal 1.004009e-16 -8.268755e-16 -1.000000e+00
outer loop
vertex -1.025667e+00 -6.711386e+00 3.500000e+00
vertex -9.244911e-01 -6.699101e+00 3.500000e+00
vertex 6.811453e+00 -6.598957e+00 3.500000e+00
endloop
endfacet
facet normal -0.000000e+00 0.000000e+00 -1.000000e+00
outer loop
vertex -1.188547e+00 -6.598957e+00 3.500000e+00
vertex -3.275447e+00 -6.698937e+00 3.500000e+00
vertex -3.208717e+00 -6.571795e+00 3.500000e+00
endloop
endfacet
facet normal 0.000000e+00 0.000000e+00 -1.000000e+00
outer loop
vertex -1.188547e+00 -6.598957e+00 3.500000e+00
vertex -3.500000e+00 -6.800000e+00 3.500000e+00
vertex -3.393619e+00 -6.780505e+00 3.500000e+00
endloop
endfacet
facet normal 0.000000e+00 0.000000e+00 -1.000000e+00
outer loop
vertex -1.188547e+00 -6.401043e+00 3.500000e+00
vertex -3.275447e+00 -6.301063e+00 3.500000e+00
vertex -3.393619e+00 -6.219495e+00 3.500000e+00
endloop
endfacet
facet normal -0.000000e+00 0.000000e+00 -1.000000e+00
outer loop
vertex -1.212938e+00 -6.500000e+00 3.500000e+00
vertex -3.208717e+00 -6.571795e+00 3.500000e+00
vertex -3.208717e+00 -6.428205e+00 3.500000e+00
endloop
endfacet
facet normal 6.615047e-17 5.860420e-17 -1.000000e+00
outer loop
vertex -3.500000e+00 -6.800000e+00 3.500000e+00
vertex 6.811453e+00 -6.598957e+00 3.500000e+00
vertex 6.879037e+00 -6.675245e+00 3.500000e+00
endloop
endfacet
facet normal 9.138695e-17 2.252486e-17 -1.000000e+00
outer loop
vertex 6.787062e+00 -6.500000e+00 3.500000e+00
vertex 6.811453e+00 -6.598957e+00 3.500000e+00
vertex -7.932495e-01 -6.550959e+00 3.500000e+00
endloop
endfacet
facet normal 0.000000e+00 0.000000e+00 -1.000000e+00
outer loop
vertex -3.500000e+00 -6.800000e+00 3.500000e+00
vertex -1.188547e+00 -6.598957e+00 3.500000e+00
vertex -1.120963e+00 -6.675245e+00 3.500000e+00
endloop
endfacet
facet normal 0.000000e+00 0.000000e+00 -1.000000e+00
outer loop
vertex -3.393619e+00 -6.780505e+00 3.500000e+00
vertex -3.275447e+00 -6.698937e+00 3.500000e+00
vertex -1.188547e+00 -6.598957e+00 3.500000e+00
endloop
endfacet
facet normal 0.000000e+00 0.000000e+00 -1.000000e+00
outer loop
vertex -3.208717e+00 -6.428205e+00 3.500000e+00
vertex -3.275447e+00 -6.301063e+00 3.500000e+00
vertex -1.188547e+00 -6.401043e+00 3.500000e+00
endloop
endfacet
facet normal 0.000000e+00 0.000000e+00 -1.000000e+00
outer loop
vertex -3.500000e+00 -6.200000e+00 3.500000e+00
vertex -1.025667e+00 -6.288614e+00 3.500000e+00
vertex -1.120963e+00 -6.324755e+00 3.500000e+00
endloop
endfacet
facet normal 6.646450e-17 1.855852e-15 -1.000000e+00
outer loop
vertex -1.025667e+00 -6.288614e+00 3.500000e+00
vertex -3.500000e+00 -6.200000e+00 3.500000e+00
vertex 6.940000e+00 -6.200000e+00 3.500000e+00
endloop
endfacet
facet normal 0.000000e+00 0.000000e+00 -1.000000e+00
outer loop
vertex -3.208717e+00 -6.571795e+00 3.500000e+00
vertex -1.212938e+00 -6.500000e+00 3.500000e+00
vertex -1.188547e+00 -6.598957e+00 3.500000e+00
endloop
endfacet
facet normal -0.000000e+00 0.000000e+00 -1.000000e+00
outer loop
vertex -1.120963e+00 -6.324755e+00 3.500000e+00
vertex -1.188547e+00 -6.401043e+00 3.500000e+00
vertex -3.500000e+00 -6.200000e+00 3.500000e+00
endloop
endfacet
facet normal 0.000000e+00 -0.000000e+00 -1.000000e+00
outer loop
vertex -1.120963e+00 -6.675245e+00 3.500000e+00
vertex -1.025667e+00 -6.711386e+00 3.500000e+00
vertex -3.500000e+00 -6.800000e+00 3.500000e+00
endloop
endfacet
facet normal -1.483952e-14 -7.251440e-15 -1.000000e+00
outer loop
vertex 6.879037e+00 -6.675245e+00 3.500000e+00
vertex 6.940000e+00 -6.704310e+00 3.500000e+00
vertex 6.940000e+00 -6.800000e+00 3.500000e+00
endloop
endfacet
facet normal 0.000000e+00 0.000000e+00 -1.000000e+00
outer loop
vertex -3.393619e+00 -6.219495e+00 3.500000e+00
vertex -3.500000e+00 -6.200000e+00 3.500000e+00
vertex -1.188547e+00 -6.401043e+00 3.500000e+00
endloop
endfacet
facet normal -9.709418e-01 2.393157e-01 0.000000e+00
outer loop
vertex 6.787062e+00 -6.500000e+00 0.000000e+00
vertex 6.787062e+00 -6.500000e+00 3.500000e+00
vertex 6.811453e+00 -6.401043e+00 3.500000e+00
endloop
endfacet
facet normal -7.485107e-01 6.631227e-01 0.000000e+00
outer loop
vertex 6.811453e+00 -6.401043e+00 0.000000e+00
vertex 6.811453e+00 -6.401043e+00 3.500000e+00
vertex 6.879037e+00 -6.324755e+00 3.500000e+00
endloop
endfacet
facet normal -4.303644e-01 9.026552e-01 0.000000e+00
outer loop
vertex 6.879037e+00 -6.324755e+00 0.000000e+00
vertex 6.879037e+00 -6.324755e+00 3.500000e+00
vertex 6.940000e+00 -6.295690e+00 3.500000e+00
endloop
endfacet
facet normal -3.546044e-01 9.350151e-01 -1.588309e-03
outer loop
vertex 6.940000e+00 -6.295690e+00 3.500000e+00
vertex 6.974333e+00 -6.288614e+00 0.000000e+00
vertex 6.879037e+00 -6.324755e+00 0.000000e+00
endloop
endfacet
facet normal 1.205367e-01 9.927089e-01 -0.000000e+00
outer loop
vertex 6.974333e+00 -6.288614e+00 0.000000e+00
vertex 6.974333e+00 -6.288614e+00 3.500000e+00
vertex 7.075509e+00 -6.300899e+00 3.500000e+00
endloop
endfacet
facet normal 5.680647e-01 8.229839e-01 -0.000000e+00
outer loop
vertex 7.075509e+00 -6.300899e+00 0.000000e+00
vertex 7.075509e+00 -6.300899e+00 3.500000e+00
vertex 7.159386e+00 -6.358796e+00 3.500000e+00
endloop
endfacet
facet normal 8.854560e-01 4.647232e-01 -0.000000e+00
outer loop
vertex 7.159386e+00 -6.358796e+00 0.000000e+00
vertex 7.159386e+00 -6.358796e+00 3.500000e+00
vertex 7.206750e+00 -6.449041e+00 3.500000e+00
endloop
endfacet
facet normal 9.999984e-01 0.000000e+00 1.767881e-03
outer loop
vertex 7.206750e+00 -6.449041e+00 3.500000e+00
vertex 7.206750e+00 -6.550959e+00 3.500000e+00
vertex 7.212938e+00 -6.500000e+00 0.000000e+00
endloop
endfacet
facet normal 9.927089e-01 -1.205367e-01 0.000000e+00
outer loop
vertex 7.206750e+00 -6.550959e+00 3.500000e+00
vertex 7.206750e+00 -6.550959e+00 0.000000e+00
vertex 7.212938e+00 -6.500000e+00 0.000000e+00
endloop
endfacet
facet normal 8.854560e-01 -4.647232e-01 0.000000e+00
outer loop
vertex 7.206750e+00 -6.550959e+00 0.000000e+00
vertex 7.206750e+00 -6.550959e+00 3.500000e+00
vertex 7.159386e+00 -6.641204e+00 3.500000e+00
endloop
endfacet
facet normal 5.680647e-01 -8.229839e-01 0.000000e+00
outer loop
vertex 7.159386e+00 -6.641204e+00 0.000000e+00
vertex 7.159386e+00 -6.641204e+00 3.500000e+00
vertex 7.075509e+00 -6.699101e+00 3.500000e+00
endloop
endfacet
facet normal 1.205367e-01 -9.927089e-01 0.000000e+00
outer loop
vertex 7.075509e+00 -6.699101e+00 0.000000e+00
vertex 7.075509e+00 -6.699101e+00 3.500000e+00
vertex 6.974333e+00 -6.711386e+00 3.500000e+00
endloop
endfacet
facet normal -3.546044e-01 -9.350151e-01 -1.588309e-03
outer loop
vertex 6.879037e+00 -6.675245e+00 0.000000e+00
vertex 6.974333e+00 -6.711386e+00 0.000000e+00
vertex 6.940000e+00 -6.704310e+00 3.500000e+00
endloop
endfacet
facet normal -2.018393e-01 -9.794187e-01 0.000000e+00
outer loop
vertex 6.974333e+00 -6.711386e+00 0.000000e+00
vertex 6.974333e+00 -6.711386e+00 3.500000e+00
vertex 6.940000e+00 -6.704310e+00 3.500000e+00
endloop
endfacet
facet normal -7.485107e-01 -6.631227e-01 0.000000e+00
outer loop
vertex 6.879037e+00 -6.675245e+00 0.000000e+00
vertex 6.879037e+00 -6.675245e+00 3.500000e+00
vertex 6.811453e+00 -6.598957e+00 3.500000e+00
endloop
endfacet
facet normal -9.709418e-01 -2.393157e-01 0.000000e+00
outer loop
vertex 6.811453e+00 -6.598957e+00 0.000000e+00
vertex 6.811453e+00 -6.598957e+00 3.500000e+00
vertex 6.787062e+00 -6.500000e+00 3.500000e+00
endloop
endfacet
facet normal -9.709418e-01 -2.393157e-01 -0.000000e+00
outer loop
vertex 6.787062e+00 -6.500000e+00 3.500000e+00
vertex 6.787062e+00 -6.500000e+00 0.000000e+00
vertex 6.811453e+00 -6.598957e+00 0.000000e+00
endloop
endfacet
facet normal -7.485107e-01 -6.631227e-01 -0.000000e+00
outer loop
vertex 6.811453e+00 -6.598957e+00 3.500000e+00
vertex 6.811453e+00 -6.598957e+00 0.000000e+00
vertex 6.879037e+00 -6.675245e+00 0.000000e+00
endloop
endfacet
facet normal -4.303644e-01 -9.026552e-01 0.000000e+00
outer loop
vertex 6.940000e+00 -6.704310e+00 3.500000e+00
vertex 6.879037e+00 -6.675245e+00 3.500000e+00
vertex 6.879037e+00 -6.675245e+00 0.000000e+00
endloop
endfacet
facet normal 1.205367e-01 -9.927089e-01 0.000000e+00
outer loop
vertex 6.974333e+00 -6.711386e+00 3.500000e+00
vertex 6.974333e+00 -6.711386e+00 0.000000e+00
vertex 7.075509e+00 -6.699101e+00 0.000000e+00
endloop
endfacet
facet normal 5.680647e-01 -8.229839e-01 0.000000e+00
outer loop
vertex 7.075509e+00 -6.699101e+00 3.500000e+00
vertex 7.075509e+00 -6.699101e+00 0.000000e+00
vertex 7.159386e+00 -6.641204e+00 0.000000e+00
endloop
endfacet
facet normal 8.854560e-01 -4.647232e-01 0.000000e+00
outer loop
vertex 7.159386e+00 -6.641204e+00 3.500000e+00
vertex 7.159386e+00 -6.641204e+00 0.000000e+00
vertex 7.206750e+00 -6.550959e+00 0.000000e+00
endloop
endfacet
facet normal 9.927089e-01 1.205367e-01 0.000000e+00
outer loop
vertex 7.212938e+00 -6.500000e+00 0.000000e+00
vertex 7.206750e+00 -6.449041e+00 0.000000e+00
vertex 7.206750e+00 -6.449041e+00 3.500000e+00
endloop
endfacet
facet normal 8.854560e-01 4.647232e-01 0.000000e+00
outer loop
vertex 7.206750e+00 -6.449041e+00 3.500000e+00
vertex 7.206750e+00 -6.449041e+00 0.000000e+00
vertex 7.159386e+00 -6.358796e+00 0.000000e+00
endloop
endfacet
facet normal 5.680647e-01 8.229839e-01 0.000000e+00
outer loop
vertex 7.159386e+00 -6.358796e+00 3.500000e+00
vertex 7.159386e+00 -6.358796e+00 0.000000e+00
vertex 7.075509e+00 -6.300899e+00 0.000000e+00
endloop
endfacet
facet normal 1.205367e-01 9.927089e-01 0.000000e+00
outer loop
vertex 7.075509e+00 -6.300899e+00 3.500000e+00
vertex 7.075509e+00 -6.300899e+00 0.000000e+00
vertex 6.974333e+00 -6.288614e+00 0.000000e+00
endloop
endfacet
facet normal -2.018393e-01 9.794187e-01 0.000000e+00
outer loop
vertex 6.940000e+00 -6.295690e+00 3.500000e+00
vertex 6.974333e+00 -6.288614e+00 3.500000e+00
vertex 6.974333e+00 -6.288614e+00 0.000000e+00
endloop
endfacet
facet normal -7.485107e-01 6.631227e-01 0.000000e+00
outer loop
vertex 6.879037e+00 -6.324755e+00 3.500000e+00
vertex 6.879037e+00 -6.324755e+00 0.000000e+00
vertex 6.811453e+00 -6.401043e+00 0.000000e+00
endloop
endfacet
facet normal -9.709418e-01 2.393157e-01 0.000000e+00
outer loop
vertex 6.811453e+00 -6.401043e+00 3.500000e+00
vertex 6.811453e+00 -6.401043e+00 0.000000e+00
vertex 6.787062e+00 -6.500000e+00 0.000000e+00
endloop
endfacet
facet normal 0.000000e+00 -0.000000e+00 1.000000e+00
outer loop
vertex 7.159386e+00 -6.641204e+00 3.500000e+00
vertex 7.159386e+00 -6.358796e+00 3.500000e+00
vertex 7.075509e+00 -6.300899e+00 3.500000e+00
endloop
endfacet
facet normal 0.000000e+00 0.000000e+00 1.000000e+00
outer loop
vertex 7.159386e+00 -6.358796e+00 3.500000e+00
vertex 7.159386e+00 -6.641204e+00 3.500000e+00
vertex 7.206750e+00 -6.550959e+00 3.500000e+00
endloop
endfacet
facet normal 0.000000e+00 -0.000000e+00 1.000000e+00
outer loop
vertex 7.206750e+00 -6.550959e+00 3.500000e+00
vertex 7.206750e+00 -6.449041e+00 3.500000e+00
vertex 7.159386e+00 -6.358796e+00 3.500000e+00
endloop
endfacet
facet normal 0.000000e+00 0.000000e+00 1.000000e+00
outer loop
vertex 6.974333e+00 -6.288614e+00 3.500000e+00
vertex 6.974333e+00 -6.711386e+00 3.500000e+00
vertex 7.075509e+00 -6.699101e+00 3.500000e+00
endloop
endfacet
facet normal 0.000000e+00 -0.000000e+00 1.000000e+00
outer loop
vertex 7.075509e+00 -6.699101e+00 3.500000e+00
vertex 7.159386e+00 -6.641204e+00 3.500000e+00
vertex 6.974333e+00 -6.288614e+00 3.500000e+00
endloop
endfacet
facet normal 2.021048e-14 -0.000000e+00 1.000000e+00
outer loop
vertex 6.974333e+00 -6.711386e+00 3.500000e+00
vertex 6.974333e+00 -6.288614e+00 3.500000e+00
vertex 6.940000e+00 -6.295690e+00 3.500000e+00
endloop
endfacet
facet normal -3.499514e-16 -1.698128e-15 1.000000e+00
outer loop
vertex 6.940000e+00 -6.295690e+00 3.500000e+00
vertex 6.940000e+00 -6.704310e+00 3.500000e+00
vertex 6.974333e+00 -6.711386e+00 3.500000e+00
endloop
endfacet
facet normal 0.000000e+00 0.000000e+00 1.000000e+00
outer loop
vertex 7.075509e+00 -6.300899e+00 3.500000e+00
vertex 6.974333e+00 -6.288614e+00 3.500000e+00
vertex 7.159386e+00 -6.641204e+00 3.500000e+00
endloop
endfacet
facet normal 0.000000e+00 0.000000e+00 -1.000000e+00
outer loop
vertex 7.000000e+00 -6.500000e+00 0.000000e+00
vertex 7.206750e+00 -6.550959e+00 0.000000e+00
vertex 7.159386e+00 -6.641204e+00 0.000000e+00
endloop
endfacet
facet normal -0.000000e+00 0.000000e+00 -1.000000e+00
outer loop
vertex 7.159386e+00 -6.641204e+00 0.000000e+00
vertex 7.075509e+00 -6.699101e+00 0.000000e+00
vertex 7.000000e+00 -6.500000e+00 0.000000e+00
endloop
endfacet
facet normal -0.000000e+00 0.000000e+00 -1.000000e+00
outer loop
vertex 7.075509e+00 -6.699101e+00 0.000000e+00
vertex 6.974333e+00 -6.711386e+00 0.000000e+00
vertex 7.000000e+00 -6.500000e+00 0.000000e+00
endloop
endfacet
facet normal 0.000000e+00 0.000000e+00 -1.000000e+00
outer loop
vertex 6.974333e+00 -6.711386e+00 0.000000e+00
vertex 6.879037e+00 -6.675245e+00 0.000000e+00
vertex 7.000000e+00 -6.500000e+00 0.000000e+00
endloop
endfacet
facet normal 0.000000e+00 0.000000e+00 -1.000000e+00
outer loop
vertex 6.879037e+00 -6.675245e+00 0.000000e+00
vertex 6.811453e+00 -6.598957e+00 0.000000e+00
vertex 7.000000e+00 -6.500000e+00 0.000000e+00
endloop
endfacet
facet normal 0.000000e+00 0.000000e+00 -1.000000e+00
outer loop
vertex 6.811453e+00 -6.598957e+00 0.000000e+00
vertex 6.787062e+00 -6.500000e+00 0.000000e+00
vertex 7.000000e+00 -6.500000e+00 0.000000e+00
endloop
endfacet
facet normal 0.000000e+00 0.000000e+00 -1.000000e+00
outer loop
vertex 6.787062e+00 -6.500000e+00 0.000000e+00
vertex 6.811453e+00 -6.401043e+00 0.000000e+00
vertex 7.000000e+00 -6.500000e+00 0.000000e+00
endloop
endfacet
facet normal 0.000000e+00 0.000000e+00 -1.000000e+00
outer loop
vertex 6.811453e+00 -6.401043e+00 0.000000e+00
vertex 6.879037e+00 -6.324755e+00 0.000000e+00
vertex 7.000000e+00 -6.500000e+00 0.000000e+00
endloop
endfacet
facet normal 0.000000e+00 0.000000e+00 -1.000000e+00
outer loop
vertex 6.879037e+00 -6.324755e+00 0.000000e+00
vertex 6.974333e+00 -6.288614e+00 0.000000e+00
vertex 7.000000e+00 -6.500000e+00 0.000000e+00
endloop
endfacet
facet normal 0.000000e+00 0.000000e+00 -1.000000e+00
outer loop
vertex 6.974333e+00 -6.288614e+00 0.000000e+00
vertex 7.075509e+00 -6.300899e+00 0.000000e+00
vertex 7.000000e+00 -6.500000e+00 0.000000e+00
endloop
endfacet
facet normal 0.000000e+00 -0.000000e+00 -1.000000e+00
outer loop
vertex 7.075509e+00 -6.300899e+00 0.000000e+00
vertex 7.159386e+00 -6.358796e+00 0.000000e+00
vertex 7.000000e+00 -6.500000e+00 0.000000e+00
endloop
endfacet
facet normal 0.000000e+00 -0.000000e+00 -1.000000e+00
outer loop
vertex 7.159386e+00 -6.358796e+00 0.000000e+00
vertex 7.206750e+00 -6.449041e+00 0.000000e+00
vertex 7.000000e+00 -6.500000e+00 0.000000e+00
endloop
endfacet
facet normal 0.000000e+00 -0.000000e+00 -1.000000e+00
outer loop
vertex 7.206750e+00 -6.449041e+00 0.000000e+00
vertex 7.212938e+00 -6.500000e+00 0.000000e+00
vertex 7.000000e+00 -6.500000e+00 0.000000e+00
endloop
endfacet
facet normal -0.000000e+00 0.000000e+00 -1.000000e+00
outer loop
vertex 7.212938e+00 -6.500000e+00 0.000000e+00
vertex 7.206750e+00 -6.550959e+00 0.000000e+00
vertex 7.000000e+00 -6.500000e+00 0.000000e+00
endloop
endfacet
facet normal 1.000000e+00 0.000000e+00 0.000000e+00
outer loop
vertex 6.940000e+00 -6.799333e+00 3.510000e+00
vertex 6.940000e+00 -6.704310e+00 3.500000e+00
vertex 6.940000e+00 -6.295690e+00 3.500000e+00
endloop
endfacet
facet normal 1.000000e+00 0.000000e+00 0.000000e+00
outer loop
vertex 6.940000e+00 -6.799333e+00 3.510000e+00
vertex 6.940000e+00 -6.800000e+00 3.500000e+00
vertex 6.940000e+00 -6.704310e+00 3.500000e+00
endloop
endfacet
facet normal 1.000000e+00 0.000000e+00 -0.000000e+00
outer loop
vertex 6.940000e+00 -6.295690e+00 3.500000e+00
vertex 6.940000e+00 -6.200167e+00 3.510000e+00
vertex 6.940000e+00 -6.799333e+00 3.510000e+00
endloop
endfacet
facet normal 1.000000e+00 0.000000e+00 0.000000e+00
outer loop
vertex 6.940000e+00 -6.295690e+00 3.500000e+00
vertex 6.940000e+00 -6.200000e+00 3.500000e+00
vertex 6.940000e+00 -6.200167e+00 3.510000e+00
endloop
endfacet
facet normal 0.000000e+00 0.000000e+00 0.000000e+00
outer loop
vertex 6.940000e+00 -6.799333e+00 3.510000e+00
vertex 6.940000e+00 -6.798957e+00 3.525000e+00
vertex 6.940000e+00 -6.800000e+00 3.500000e+00
endloop
endfacet
facet normal 0.000000e+00 0.000000e+00 -1.000000e+00
outer loop
vertex 6.940000e+00 -6.200167e+00 3.510000e+00
vertex 7.220000e+00 -6.500000e+00 3.510000e+00
vertex 7.190291e+00 -6.630165e+00 3.510000e+00
endloop
endfacet
facet normal -0.000000e+00 0.000000e+00 -1.000000e+00
outer loop
vertex 7.190291e+00 -6.630165e+00 3.510000e+00
vertex 7.107047e+00 -6.734549e+00 3.510000e+00
vertex 6.940000e+00 -6.200167e+00 3.510000e+00
endloop
endfacet
facet normal -0.000000e+00 0.000000e+00 -1.000000e+00
outer loop
vertex 7.107047e+00 -6.734549e+00 3.510000e+00
vertex 6.986756e+00 -6.792478e+00 3.510000e+00
vertex 6.940000e+00 -6.200167e+00 3.510000e+00
endloop
endfacet
facet normal 1.156482e-15 4.722396e-17 -1.000000e+00
outer loop
vertex 6.620000e+00 1.633000e+01 3.510000e+00
vertex 7.220000e+00 1.633000e+01 3.510000e+00
vertex 6.940000e+00 -6.200167e+00 3.510000e+00
endloop
endfacet
facet normal -0.000000e+00 0.000000e+00 -1.000000e+00
outer loop
vertex 6.986756e+00 -6.792478e+00 3.510000e+00
vertex 6.940000e+00 -6.799333e+00 3.510000e+00
vertex 6.940000e+00 -6.200167e+00 3.510000e+00
endloop
endfacet
facet normal 6.509328e-17 6.078751e-17 -1.000000e+00
outer loop
vertex 6.940000e+00 -6.200167e+00 3.510000e+00
vertex 7.220000e+00 1.633000e+01 3.510000e+00
vertex 7.220000e+00 -6.500000e+00 3.510000e+00
endloop
endfacet
facet normal 2.168404e-15 6.159647e-17 -1.000000e+00
outer loop
vertex 6.940000e+00 -6.200167e+00 3.510000e+00
vertex 6.620000e+00 -6.200167e+00 3.510000e+00
vertex 6.620000e+00 1.633000e+01 3.510000e+00
endloop
endfacet
facet normal 9.127833e-01 3.065751e-17 4.084443e-01
outer loop
vertex 7.190291e+00 1.633000e+01 3.640165e+00
vertex 7.190291e+00 -6.500000e+00 3.640165e+00
vertex 7.197164e+00 -6.500000e+00 3.624805e+00
endloop
endfacet
facet normal 9.749279e-01 1.437990e-04 2.225209e-01
outer loop
vertex 7.197164e+00 -6.500000e+00 3.624805e+00
vertex 7.220000e+00 1.633000e+01 3.510000e+00
vertex 7.190291e+00 1.633000e+01 3.640165e+00
endloop
endfacet
facet normal 7.818315e-01 9.625196e-18 6.234898e-01
outer loop
vertex 7.190291e+00 -6.500000e+00 3.640165e+00
vertex 7.190291e+00 1.633000e+01 3.640165e+00
vertex 7.107047e+00 1.633000e+01 3.744549e+00
endloop
endfacet
facet normal 3.036767e-01 -3.945707e-17 9.527751e-01
outer loop
vertex 6.986756e+00 1.633000e+01 3.802478e+00
vertex 6.986756e+00 -6.500000e+00 3.802478e+00
vertex 7.034805e+00 -6.500000e+00 3.787164e+00
endloop
endfacet
facet normal 4.338837e-01 3.087898e-04 9.009688e-01
outer loop
vertex 7.034805e+00 -6.500000e+00 3.787164e+00
vertex 7.107047e+00 1.633000e+01 3.744549e+00
vertex 6.986756e+00 1.633000e+01 3.802478e+00
endloop
endfacet
facet normal -1.119645e-01 -6.721133e-17 9.937122e-01
outer loop
vertex 6.853244e+00 1.633000e+01 3.802478e+00
vertex 6.853244e+00 -6.500000e+00 3.802478e+00
vertex 6.920000e+00 -6.500000e+00 3.810000e+00
endloop
endfacet
facet normal 0.000000e+00 3.294624e-04 9.999999e-01
outer loop
vertex 6.920000e+00 -6.500000e+00 3.810000e+00
vertex 6.986756e+00 1.633000e+01 3.802478e+00
vertex 6.853244e+00 1.633000e+01 3.802478e+00
endloop
endfacet
facet normal -9.749279e-01 1.664888e-16 2.225209e-01
outer loop
vertex 6.649709e+00 1.633000e+01 3.640165e+00
vertex 6.620000e+00 1.633000e+01 3.510000e+00
vertex 6.620000e+00 -6.200167e+00 3.510000e+00
endloop
endfacet
facet normal -9.944622e-01 7.041838e-04 1.050929e-01
outer loop
vertex 6.620000e+00 -6.200167e+00 3.510000e+00
vertex 6.626614e+00 -6.208929e+00 3.572649e+00
vertex 6.649709e+00 1.633000e+01 3.640165e+00
endloop
endfacet
facet normal -7.818315e-01 -7.028903e-19 6.234898e-01
outer loop
vertex 6.732953e+00 1.633000e+01 3.744549e+00
vertex 6.649709e+00 1.633000e+01 3.640165e+00
vertex 6.649709e+00 -6.234757e+00 3.640165e+00
endloop
endfacet
facet normal -2.517814e-01 -7.413435e-17 9.677841e-01
outer loop
vertex 6.853244e+00 -6.500000e+00 3.802478e+00
vertex 6.853244e+00 1.633000e+01 3.802478e+00
vertex 6.835756e+00 -6.464808e+00 3.797929e+00
endloop
endfacet
facet normal -4.338837e-01 -5.390403e-17 9.009689e-01
outer loop
vertex 6.853244e+00 1.633000e+01 3.802478e+00
vertex 6.732953e+00 1.633000e+01 3.744549e+00
vertex 6.732953e+00 -6.326231e+00 3.744549e+00
endloop
endfacet
facet normal -4.863884e-01 3.483810e-04 8.737427e-01
outer loop
vertex 6.732953e+00 -6.326231e+00 3.744549e+00
vertex 6.818975e+00 -6.433244e+00 3.792478e+00
vertex 6.853244e+00 1.633000e+01 3.802478e+00
endloop
endfacet
facet normal -3.088345e-01 4.709695e-05 9.511158e-01
outer loop
vertex 6.818975e+00 -6.433244e+00 3.792478e+00
vertex 6.835756e+00 -6.464808e+00 3.797929e+00
vertex 6.853244e+00 1.633000e+01 3.802478e+00
endloop
endfacet
facet normal -2.393100e-01 6.602832e-03 9.709208e-01
outer loop
vertex 6.835756e+00 -6.464808e+00 3.797929e+00
vertex 6.843189e+00 -6.500000e+00 3.800000e+00
vertex 6.853244e+00 -6.500000e+00 3.802478e+00
endloop
endfacet
facet normal -7.818315e-01 -6.685500e-17 6.234898e-01
outer loop
vertex 6.649709e+00 -6.234757e+00 3.640165e+00
vertex 6.732953e+00 -6.326231e+00 3.744549e+00
vertex 6.732953e+00 1.633000e+01 3.744549e+00
endloop
endfacet
facet normal -9.461755e-01 -1.333231e-16 3.236541e-01
outer loop
vertex 6.626614e+00 -6.208929e+00 3.572649e+00
vertex 6.649709e+00 -6.234757e+00 3.640165e+00
vertex 6.649709e+00 1.633000e+01 3.640165e+00
endloop
endfacet
facet normal 1.119645e-01 -5.358886e-17 9.937122e-01
outer loop
vertex 6.920000e+00 -6.500000e+00 3.810000e+00
vertex 6.986756e+00 -6.500000e+00 3.802478e+00
vertex 6.986756e+00 1.633000e+01 3.802478e+00
endloop
endfacet
facet normal 5.080753e-01 -2.156456e-17 8.613126e-01
outer loop
vertex 7.034805e+00 -6.500000e+00 3.787164e+00
vertex 7.107047e+00 -6.500000e+00 3.744549e+00
vertex 7.107047e+00 1.633000e+01 3.744549e+00
endloop
endfacet
facet normal 7.818315e-01 9.625196e-18 6.234898e-01
outer loop
vertex 7.107047e+00 1.633000e+01 3.744549e+00
vertex 7.107047e+00 -6.500000e+00 3.744549e+00
vertex 7.190291e+00 -6.500000e+00 3.640165e+00
endloop
endfacet
facet normal 9.807853e-01 4.774243e-17 1.950903e-01
outer loop
vertex 7.197164e+00 -6.500000e+00 3.624805e+00
vertex 7.220000e+00 -6.500000e+00 3.510000e+00
vertex 7.220000e+00 1.633000e+01 3.510000e+00
endloop
endfacet
facet normal 0.000000e+00 1.000000e+00 0.000000e+00
outer loop
vertex 7.107047e+00 1.633000e+01 3.744549e+00
vertex 6.732953e+00 1.633000e+01 3.744549e+00
vertex 6.853244e+00 1.633000e+01 3.802478e+00
endloop
endfacet
facet normal -0.000000e+00 1.000000e+00 0.000000e+00
outer loop
vertex 6.853244e+00 1.633000e+01 3.802478e+00
vertex 6.986756e+00 1.633000e+01 3.802478e+00
vertex 7.107047e+00 1.633000e+01 3.744549e+00
endloop
endfacet
facet normal 0.000000e+00 1.000000e+00 0.000000e+00
outer loop
vertex 7.190291e+00 1.633000e+01 3.640165e+00
vertex 6.649709e+00 1.633000e+01 3.640165e+00
vertex 6.732953e+00 1.633000e+01 3.744549e+00
endloop
endfacet
facet normal 0.000000e+00 1.000000e+00 0.000000e+00
outer loop
vertex 7.190291e+00 1.633000e+01 3.640165e+00
vertex 6.620000e+00 1.633000e+01 3.510000e+00
vertex 6.649709e+00 1.633000e+01 3.640165e+00
endloop
endfacet
facet normal 0.000000e+00 1.000000e+00 0.000000e+00
outer loop
vertex 7.107047e+00 1.633000e+01 3.744549e+00
vertex 7.190291e+00 1.633000e+01 3.640165e+00
vertex 6.732953e+00 1.633000e+01 3.744549e+00
endloop
endfacet
facet normal 0.000000e+00 1.000000e+00 0.000000e+00
outer loop
vertex 7.190291e+00 1.633000e+01 3.640165e+00
vertex 7.220000e+00 1.633000e+01 3.510000e+00
vertex 6.620000e+00 1.633000e+01 3.510000e+00
endloop
endfacet
facet normal 4.259483e-01 -8.844908e-01 1.903785e-01
outer loop
vertex 6.981675e+00 -6.770215e+00 3.624805e+00
vertex 6.986756e+00 -6.792478e+00 3.510000e+00
vertex 7.107047e+00 -6.734549e+00 3.510000e+00
endloop
endfacet
facet normal 7.675324e-01 -6.120867e-01 1.903785e-01
outer loop
vertex 7.092809e+00 -6.716695e+00 3.624805e+00
vertex 7.107047e+00 -6.734549e+00 3.510000e+00
vertex 7.190291e+00 -6.630165e+00 3.510000e+00
endloop
endfacet
facet normal 9.570972e-01 -2.184512e-01 1.903785e-01
outer loop
vertex 7.169716e+00 -6.620257e+00 3.624805e+00
vertex 7.190291e+00 -6.630165e+00 3.510000e+00
vertex 7.220000e+00 -6.500000e+00 3.510000e+00
endloop
endfacet
facet normal 3.635500e-01 -7.549193e-01 5.458280e-01
outer loop
vertex 6.967204e+00 -6.706813e+00 3.722132e+00
vertex 6.981675e+00 -6.770215e+00 3.624805e+00
vertex 7.092809e+00 -6.716695e+00 3.624805e+00
endloop
endfacet
facet normal 6.550944e-01 -5.224204e-01 5.458280e-01
outer loop
vertex 7.052262e+00 -6.665852e+00 3.722132e+00
vertex 7.092809e+00 -6.716695e+00 3.624805e+00
vertex 7.169716e+00 -6.620257e+00 3.624805e+00
endloop
endfacet
facet normal 7.765147e-01 -1.164247e-01 6.192498e-01
outer loop
vertex 7.190291e+00 -6.500000e+00 3.640165e+00
vertex 7.107047e+00 -6.500000e+00 3.744549e+00
vertex 7.111124e+00 -6.592041e+00 3.722132e+00
endloop
endfacet
facet normal 8.935963e-01 -2.039575e-01 3.998587e-01
outer loop
vertex 7.169716e+00 -6.620257e+00 3.624805e+00
vertex 7.197164e+00 -6.500000e+00 3.624805e+00
vertex 7.190291e+00 -6.500000e+00 3.640165e+00
endloop
endfacet
facet normal -8.287027e-15 -5.653307e-01 8.248643e-01
outer loop
vertex 6.894453e+00 -6.611927e+00 3.787164e+00
vertex 6.872796e+00 -6.706813e+00 3.722132e+00
vertex 6.967204e+00 -6.706813e+00 3.722132e+00
endloop
endfacet
facet normal 2.452878e-01 -5.093454e-01 8.248643e-01
outer loop
vertex 6.945547e+00 -6.611927e+00 3.787164e+00
vertex 6.967204e+00 -6.706813e+00 3.722132e+00
vertex 7.052262e+00 -6.665852e+00 3.722132e+00
endloop
endfacet
facet normal 4.419934e-01 -3.524780e-01 8.248643e-01
outer loop
vertex 6.991580e+00 -6.589758e+00 3.787164e+00
vertex 7.052262e+00 -6.665852e+00 3.722132e+00
vertex 7.111124e+00 -6.592041e+00 3.722132e+00
endloop
endfacet
facet normal 4.993936e-01 -1.840734e-01 8.465950e-01
outer loop
vertex 7.111124e+00 -6.592041e+00 3.722132e+00
vertex 7.107047e+00 -6.500000e+00 3.744549e+00
vertex 7.034805e+00 -6.500000e+00 3.787164e+00
endloop
endfacet
facet normal 3.029499e-01 -6.914634e-02 9.504947e-01
outer loop
vertex 7.023436e+00 -6.549812e+00 3.787164e+00
vertex 7.034805e+00 -6.500000e+00 3.787164e+00
vertex 6.986756e+00 -6.500000e+00 3.802478e+00
endloop
endfacet
facet normal -1.113984e-01 -1.004328e-01 9.886878e-01
outer loop
vertex 6.843538e+00 -6.539996e+00 3.797322e+00
vertex 6.920000e+00 -6.500000e+00 3.810000e+00
vertex 6.853244e+00 -6.500000e+00 3.802478e+00
endloop
endfacet
facet normal -6.895127e-02 -1.792656e-01 9.813815e-01
outer loop
vertex 6.920000e+00 -6.500000e+00 3.810000e+00
vertex 6.843538e+00 -6.539996e+00 3.797322e+00
vertex 6.844174e+00 -6.566756e+00 3.792478e+00
endloop
endfacet
facet normal -2.548509e-01 -4.545723e-01 8.534724e-01
outer loop
vertex 6.894453e+00 -6.611927e+00 3.787164e+00
vertex 6.864708e+00 -6.586221e+00 3.791973e+00
vertex 6.852243e+00 -6.687047e+00 3.734549e+00
endloop
endfacet
facet normal 2.688328e-02 -8.357616e-01 5.484340e-01
outer loop
vertex 6.869967e+00 -6.770291e+00 3.630165e+00
vertex 6.981675e+00 -6.770215e+00 3.624805e+00
vertex 6.967204e+00 -6.706813e+00 3.722132e+00
endloop
endfacet
facet normal -1.209793e-14 -8.229962e-01 5.680468e-01
outer loop
vertex 6.967204e+00 -6.706813e+00 3.722132e+00
vertex 6.872796e+00 -6.706813e+00 3.722132e+00
vertex 6.869967e+00 -6.770291e+00 3.630165e+00
endloop
endfacet
facet normal 1.957280e-01 -9.610674e-01 1.950385e-01
outer loop
vertex 6.986756e+00 -6.792478e+00 3.510000e+00
vertex 6.981675e+00 -6.770215e+00 3.624805e+00
vertex 6.940000e+00 -6.798957e+00 3.525000e+00
endloop
endfacet
facet normal 1.619433e-02 -9.713900e-01 2.369371e-01
outer loop
vertex 6.871056e+00 -6.772820e+00 3.624776e+00
vertex 6.920000e+00 -6.800000e+00 3.510000e+00
vertex 6.930000e+00 -6.799833e+00 3.510000e+00
endloop
endfacet
facet normal -1.464478e-01 -9.770406e-01 1.547411e-01
outer loop
vertex 6.930000e+00 -6.799833e+00 3.510000e+00
vertex 6.940000e+00 -6.798957e+00 3.525000e+00
vertex 6.871056e+00 -6.772820e+00 3.624776e+00
endloop
endfacet
facet normal 2.817383e-01 -8.997733e-01 3.332139e-01
outer loop
vertex 6.920000e+00 -6.800000e+00 3.510000e+00
vertex 6.871056e+00 -6.772820e+00 3.624776e+00
vertex 6.894015e+00 -6.797486e+00 3.538760e+00
endloop
endfacet
facet normal -1.662552e-02 -9.972539e-01 7.216773e-02
outer loop
vertex 6.894015e+00 -6.797486e+00 3.538760e+00
vertex 6.910000e+00 -6.799833e+00 3.510000e+00
vertex 6.920000e+00 -6.800000e+00 3.510000e+00
endloop
endfacet
facet normal 2.261644e-02 -9.631730e-01 2.679297e-01
outer loop
vertex 6.940000e+00 -6.798957e+00 3.525000e+00
vertex 6.981675e+00 -6.770215e+00 3.624805e+00
vertex 6.871056e+00 -6.772820e+00 3.624776e+00
endloop
endfacet
facet normal 1.449998e-01 -9.891209e-01 2.479873e-02
outer loop
vertex 6.940000e+00 -6.798957e+00 3.525000e+00
vertex 6.940000e+00 -6.799333e+00 3.510000e+00
vertex 6.986756e+00 -6.792478e+00 3.510000e+00
endloop
endfacet
facet normal 2.116622e-02 -9.033747e-01 4.283295e-01
outer loop
vertex 6.869967e+00 -6.770291e+00 3.630165e+00
vertex 6.871056e+00 -6.772820e+00 3.624776e+00
vertex 6.981675e+00 -6.770215e+00 3.624805e+00
endloop
endfacet
facet normal -4.002357e-01 -7.484016e-01 5.288728e-01
outer loop
vertex 6.869967e+00 -6.770291e+00 3.630165e+00
vertex 6.872796e+00 -6.706813e+00 3.722132e+00
vertex 6.852243e+00 -6.687047e+00 3.734549e+00
endloop
endfacet
facet normal -3.733348e-02 -5.591249e-01 8.282425e-01
outer loop
vertex 6.852243e+00 -6.687047e+00 3.734549e+00
vertex 6.872796e+00 -6.706813e+00 3.722132e+00
vertex 6.894453e+00 -6.611927e+00 3.787164e+00
endloop
endfacet
facet normal -3.797064e-01 -4.219410e-01 8.232793e-01
outer loop
vertex 6.852243e+00 -6.687047e+00 3.734549e+00
vertex 6.864708e+00 -6.586221e+00 3.791973e+00
vertex 6.844174e+00 -6.566756e+00 3.792478e+00
endloop
endfacet
facet normal -1.063077e-01 -1.377180e-01 9.847499e-01
outer loop
vertex 6.844174e+00 -6.566756e+00 3.792478e+00
vertex 6.864708e+00 -6.586221e+00 3.791973e+00
vertex 6.920000e+00 -6.500000e+00 3.810000e+00
endloop
endfacet
facet normal -2.387782e-01 -6.695276e-02 9.687633e-01
outer loop
vertex 6.853244e+00 -6.500000e+00 3.802478e+00
vertex 6.843189e+00 -6.500000e+00 3.800000e+00
vertex 6.843538e+00 -6.539996e+00 3.797322e+00
endloop
endfacet
facet normal 1.092787e-01 -2.177161e-01 9.698752e-01
outer loop
vertex 6.986756e+00 -6.500000e+00 3.802478e+00
vertex 6.920000e+00 -6.500000e+00 3.810000e+00
vertex 7.023436e+00 -6.549812e+00 3.787164e+00
endloop
endfacet
facet normal 1.562954e-01 -1.246414e-01 9.798144e-01
outer loop
vertex 6.920000e+00 -6.500000e+00 3.810000e+00
vertex 6.991580e+00 -6.589758e+00 3.787164e+00
vertex 7.023436e+00 -6.549812e+00 3.787164e+00
endloop
endfacet
facet normal 8.673741e-02 -1.801121e-01 9.798144e-01
outer loop
vertex 6.920000e+00 -6.500000e+00 3.810000e+00
vertex 6.945547e+00 -6.611927e+00 3.787164e+00
vertex 6.991580e+00 -6.589758e+00 3.787164e+00
endloop
endfacet
facet normal 5.442271e-15 -1.999093e-01 9.798144e-01
outer loop
vertex 6.920000e+00 -6.500000e+00 3.810000e+00
vertex 6.894453e+00 -6.611927e+00 3.787164e+00
vertex 6.945547e+00 -6.611927e+00 3.787164e+00
endloop
endfacet
facet normal -1.199047e-02 -1.972669e-01 9.802765e-01
outer loop
vertex 6.920000e+00 -6.500000e+00 3.810000e+00
vertex 6.864708e+00 -6.586221e+00 3.791973e+00
vertex 6.894453e+00 -6.611927e+00 3.787164e+00
endloop
endfacet
facet normal 5.511567e-01 -1.257979e-01 8.248643e-01
outer loop
vertex 7.034805e+00 -6.500000e+00 3.787164e+00
vertex 7.023436e+00 -6.549812e+00 3.787164e+00
vertex 7.111124e+00 -6.592041e+00 3.722132e+00
endloop
endfacet
facet normal 4.419934e-01 -3.524780e-01 8.248643e-01
outer loop
vertex 7.111124e+00 -6.592041e+00 3.722132e+00
vertex 7.023436e+00 -6.549812e+00 3.787164e+00
vertex 6.991580e+00 -6.589758e+00 3.787164e+00
endloop
endfacet
facet normal 2.452878e-01 -5.093454e-01 8.248643e-01
outer loop
vertex 7.052262e+00 -6.665852e+00 3.722132e+00
vertex 6.991580e+00 -6.589758e+00 3.787164e+00
vertex 6.945547e+00 -6.611927e+00 3.787164e+00
endloop
endfacet
facet normal 1.531243e-14 -5.653307e-01 8.248643e-01
outer loop
vertex 6.967204e+00 -6.706813e+00 3.722132e+00
vertex 6.945547e+00 -6.611927e+00 3.787164e+00
vertex 6.894453e+00 -6.611927e+00 3.787164e+00
endloop
endfacet
facet normal 8.099910e-01 -2.085871e-01 5.480931e-01
outer loop
vertex 7.111124e+00 -6.592041e+00 3.722132e+00
vertex 7.169716e+00 -6.620257e+00 3.624805e+00
vertex 7.190291e+00 -6.500000e+00 3.640165e+00
endloop
endfacet
facet normal 6.550944e-01 -5.224204e-01 5.458280e-01
outer loop
vertex 7.169716e+00 -6.620257e+00 3.624805e+00
vertex 7.111124e+00 -6.592041e+00 3.722132e+00
vertex 7.052262e+00 -6.665852e+00 3.722132e+00
endloop
endfacet
facet normal 3.635500e-01 -7.549193e-01 5.458280e-01
outer loop
vertex 7.092809e+00 -6.716695e+00 3.624805e+00
vertex 7.052262e+00 -6.665852e+00 3.722132e+00
vertex 6.967204e+00 -6.706813e+00 3.722132e+00
endloop
endfacet
facet normal 9.570972e-01 -2.184512e-01 1.903785e-01
outer loop
vertex 7.220000e+00 -6.500000e+00 3.510000e+00
vertex 7.197164e+00 -6.500000e+00 3.624805e+00
vertex 7.169716e+00 -6.620257e+00 3.624805e+00
endloop
endfacet
facet normal 7.675324e-01 -6.120867e-01 1.903785e-01
outer loop
vertex 7.190291e+00 -6.630165e+00 3.510000e+00
vertex 7.169716e+00 -6.620257e+00 3.624805e+00
vertex 7.092809e+00 -6.716695e+00 3.624805e+00
endloop
endfacet
facet normal 4.259483e-01 -8.844908e-01 1.903785e-01
outer loop
vertex 7.107047e+00 -6.734549e+00 3.510000e+00
vertex 7.092809e+00 -6.716695e+00 3.624805e+00
vertex 6.981675e+00 -6.770215e+00 3.624805e+00
endloop
endfacet
facet normal 0.000000e+00 0.000000e+00 0.000000e+00
outer loop
vertex 6.930000e+00 -6.799833e+00 3.510000e+00
vertex 6.920000e+00 -6.800000e+00 3.510000e+00
vertex 6.910000e+00 -6.799833e+00 3.510000e+00
endloop
endfacet
facet normal -1.901682e-03 -9.967680e-01 8.031143e-02
outer loop
vertex -3.500000e+00 -6.770291e+00 3.630165e+00
vertex 6.910000e+00 -6.799833e+00 3.510000e+00
vertex 6.894015e+00 -6.797486e+00 3.538760e+00
endloop
endfacet
facet normal -9.124644e-05 -9.612663e-01 2.756213e-01
outer loop
vertex 6.894015e+00 -6.797486e+00 3.538760e+00
vertex 6.871056e+00 -6.772820e+00 3.624776e+00
vertex -3.500000e+00 -6.770291e+00 3.630165e+00
endloop
endfacet
facet normal -1.107896e-18 -9.998611e-01 1.666898e-02
outer loop
vertex -3.500000e+00 -6.800000e+00 3.500000e+00
vertex 6.940000e+00 -6.800000e+00 3.500000e+00
vertex 6.910000e+00 -6.799833e+00 3.510000e+00
endloop
endfacet
facet normal -1.981437e-04 -9.749279e-01 2.225209e-01
outer loop
vertex 6.910000e+00 -6.799833e+00 3.510000e+00
vertex -3.500000e+00 -6.770291e+00 3.630165e+00
vertex -3.500000e+00 -6.800000e+00 3.500000e+00
endloop
endfacet
facet normal 2.503830e-02 -9.988168e-01 4.168987e-02
outer loop
vertex 6.940000e+00 -6.800000e+00 3.500000e+00
vertex 6.940000e+00 -6.798957e+00 3.525000e+00
vertex 6.930000e+00 -6.799833e+00 3.510000e+00
endloop
endfacet
facet normal -5.783215e-16 -9.998611e-01 1.666898e-02
outer loop
vertex 6.930000e+00 -6.799833e+00 3.510000e+00
vertex 6.910000e+00 -6.799833e+00 3.510000e+00
vertex 6.940000e+00 -6.800000e+00 3.500000e+00
endloop
endfacet
facet normal -4.171980e-17 -7.818315e-01 6.234898e-01
outer loop
vertex -3.500000e+00 -6.770291e+00 3.630165e+00
vertex 6.869967e+00 -6.770291e+00 3.630165e+00
vertex 6.852243e+00 -6.687047e+00 3.734549e+00
endloop
endfacet
facet normal 9.703883e-16 -4.338837e-01 9.009689e-01
outer loop
vertex -3.500000e+00 -6.687047e+00 3.734549e+00
vertex 6.852243e+00 -6.687047e+00 3.734549e+00
vertex 6.844174e+00 -6.566756e+00 3.792478e+00
endloop
endfacet
facet normal -2.186965e-03 1.690271e-01 9.856090e-01
outer loop
vertex -3.500000e+00 -6.566756e+00 3.792478e+00
vertex 6.835756e+00 -6.464808e+00 3.797929e+00
vertex 6.818975e+00 -6.433244e+00 3.792478e+00
endloop
endfacet
facet normal -4.472610e-04 -8.115645e-03 9.999670e-01
outer loop
vertex -3.500000e+00 -6.566756e+00 3.792478e+00
vertex 6.843538e+00 -6.539996e+00 3.797322e+00
vertex 6.835756e+00 -6.464808e+00 3.797929e+00
endloop
endfacet
facet normal -6.600773e-17 -1.781027e-01 9.840119e-01
outer loop
vertex -3.500000e+00 -6.566756e+00 3.792478e+00
vertex 6.844174e+00 -6.566756e+00 3.792478e+00
vertex 6.843538e+00 -6.539996e+00 3.797322e+00
endloop
endfacet
facet normal -6.724402e-17 0.000000e+00 1.000000e+00
outer loop
vertex 6.818975e+00 -6.433244e+00 3.792478e+00
vertex -3.500000e+00 -6.433244e+00 3.792478e+00
vertex -3.500000e+00 -6.566756e+00 3.792478e+00
endloop
endfacet
facet normal -1.163427e-16 4.087564e-01 9.126435e-01
outer loop
vertex -3.500000e+00 -6.433244e+00 3.792478e+00
vertex 6.818975e+00 -6.433244e+00 3.792478e+00
vertex 6.732953e+00 -6.326231e+00 3.744549e+00
endloop
endfacet
facet normal 3.321540e-04 7.522157e-01 6.589168e-01
outer loop
vertex -3.500000e+00 -6.312953e+00 3.734549e+00
vertex 6.732953e+00 -6.326231e+00 3.744549e+00
vertex 6.649709e+00 -6.234757e+00 3.640165e+00
endloop
endfacet
facet normal -1.107896e-18 9.998611e-01 1.666898e-02
outer loop
vertex 6.940000e+00 -6.200000e+00 3.500000e+00
vertex -3.500000e+00 -6.200000e+00 3.500000e+00
vertex 6.620000e+00 -6.200167e+00 3.510000e+00
endloop
endfacet
facet normal -1.244708e-03 9.903408e-01 1.386494e-01
outer loop
vertex -3.500000e+00 -6.229709e+00 3.630165e+00
vertex 6.626614e+00 -6.208929e+00 3.572649e+00
vertex 6.620000e+00 -6.200167e+00 3.510000e+00
endloop
endfacet
facet normal 1.125295e-04 9.340052e-01 3.572594e-01
outer loop
vertex -3.500000e+00 -6.229709e+00 3.630165e+00
vertex 6.649709e+00 -6.234757e+00 3.640165e+00
vertex 6.626614e+00 -6.208929e+00 3.572649e+00
endloop
endfacet
facet normal -2.038218e-04 9.749279e-01 2.225209e-01
outer loop
vertex 6.620000e+00 -6.200167e+00 3.510000e+00
vertex -3.500000e+00 -6.200000e+00 3.500000e+00
vertex -3.500000e+00 -6.229709e+00 3.630165e+00
endloop
endfacet
facet normal -3.614509e-17 9.998611e-01 1.666898e-02
outer loop
vertex 6.620000e+00 -6.200167e+00 3.510000e+00
vertex 6.940000e+00 -6.200167e+00 3.510000e+00
vertex 6.940000e+00 -6.200000e+00 3.500000e+00
endloop
endfacet
facet normal -2.254563e-04 7.818315e-01 6.234898e-01
outer loop
vertex 6.649709e+00 -6.234757e+00 3.640165e+00
vertex -3.500000e+00 -6.229709e+00 3.630165e+00
vertex -3.500000e+00 -6.312953e+00 3.734549e+00
endloop
endfacet
facet normal -3.174534e-04 4.338837e-01 9.009688e-01
outer loop
vertex 6.732953e+00 -6.326231e+00 3.744549e+00
vertex -3.500000e+00 -6.312953e+00 3.734549e+00
vertex -3.500000e+00 -6.433244e+00 3.792478e+00
endloop
endfacet
facet normal -5.268161e-01 -6.136729e-02 8.477611e-01
outer loop
vertex 6.843538e+00 -6.539996e+00 3.797322e+00
vertex 6.843189e+00 -6.500000e+00 3.800000e+00
vertex 6.835756e+00 -6.464808e+00 3.797929e+00
endloop
endfacet
facet normal -6.043718e-17 -4.338837e-01 9.009689e-01
outer loop
vertex 6.844174e+00 -6.566756e+00 3.792478e+00
vertex -3.500000e+00 -6.566756e+00 3.792478e+00
vertex -3.500000e+00 -6.687047e+00 3.734549e+00
endloop
endfacet
facet normal -1.200649e-15 -7.818315e-01 6.234898e-01
outer loop
vertex 6.852243e+00 -6.687047e+00 3.734549e+00
vertex -3.500000e+00 -6.687047e+00 3.734549e+00
vertex -3.500000e+00 -6.770291e+00 3.630165e+00
endloop
endfacet
facet normal -2.844003e-17 -9.052294e-01 4.249232e-01
outer loop
vertex 6.871056e+00 -6.772820e+00 3.624776e+00
vertex 6.869967e+00 -6.770291e+00 3.630165e+00
vertex -3.500000e+00 -6.770291e+00 3.630165e+00
endloop
endfacet
facet normal -2.805418e-01 -9.582183e-01 5.580324e-02
outer loop
vertex -3.620257e+00 -6.770291e+00 3.549812e+00
vertex -3.630165e+00 -6.770291e+00 3.500000e+00
vertex -3.536161e+00 -6.797813e+00 3.500000e+00
endloop
endfacet
facet normal -5.834357e-01 -7.816806e-01 2.204046e-01
outer loop
vertex -3.620257e+00 -6.770291e+00 3.549812e+00
vertex -3.716695e+00 -6.687047e+00 3.589758e+00
vertex -3.670419e+00 -6.746895e+00 3.500000e+00
endloop
endfacet
facet normal -6.760812e-01 -7.244509e-01 1.344809e-01
outer loop
vertex -3.716695e+00 -6.687047e+00 3.589758e+00
vertex -3.734549e+00 -6.687047e+00 3.500000e+00
vertex -3.670419e+00 -6.746895e+00 3.500000e+00
endloop
endfacet
facet normal -5.245505e-01 -7.758873e-01 3.504934e-01
outer loop
vertex -3.716695e+00 -6.687047e+00 3.589758e+00
vertex -3.620257e+00 -6.770291e+00 3.549812e+00
vertex -3.592041e+00 -6.770291e+00 3.592041e+00
endloop
endfacet
facet normal -3.504934e-01 -7.758873e-01 5.245505e-01
outer loop
vertex -3.665852e+00 -6.687047e+00 3.665852e+00
vertex -3.592041e+00 -6.770291e+00 3.592041e+00
vertex -3.549812e+00 -6.770291e+00 3.620257e+00
endloop
endfacet
facet normal -1.230769e-01 -7.758873e-01 6.187495e-01
outer loop
vertex -3.589758e+00 -6.687047e+00 3.716695e+00
vertex -3.549812e+00 -6.770291e+00 3.620257e+00
vertex -3.500000e+00 -6.770291e+00 3.630165e+00
endloop
endfacet
facet normal -8.683713e-01 -4.314220e-01 2.445533e-01
outer loop
vertex -3.716695e+00 -6.687047e+00 3.589758e+00
vertex -3.770215e+00 -6.566756e+00 3.611927e+00
vertex -3.765637e+00 -6.639417e+00 3.500000e+00
endloop
endfacet
facet normal -9.221272e-01 -3.406429e-01 1.834225e-01
outer loop
vertex -3.770215e+00 -6.566756e+00 3.611927e+00
vertex -3.792478e+00 -6.566756e+00 3.500000e+00
vertex -3.765637e+00 -6.639417e+00 3.500000e+00
endloop
endfacet
facet normal -7.518265e-01 -4.270796e-01 5.023544e-01
outer loop
vertex -3.770215e+00 -6.566756e+00 3.611927e+00
vertex -3.716695e+00 -6.687047e+00 3.589758e+00
vertex -3.665852e+00 -6.687047e+00 3.665852e+00
endloop
endfacet
facet normal -5.023544e-01 -4.270796e-01 7.518265e-01
outer loop
vertex -3.706813e+00 -6.566756e+00 3.706813e+00
vertex -3.665852e+00 -6.687047e+00 3.665852e+00
vertex -3.589758e+00 -6.687047e+00 3.716695e+00
endloop
endfacet
facet normal -1.764034e-01 -4.270796e-01 8.868398e-01
outer loop
vertex -3.611927e+00 -6.566756e+00 3.770215e+00
vertex -3.589758e+00 -6.687047e+00 3.716695e+00
vertex -3.500000e+00 -6.687047e+00 3.734549e+00
endloop
endfacet
facet normal -9.663678e-01 0.000000e+00 2.571638e-01
outer loop
vertex -3.770215e+00 -6.566756e+00 3.611927e+00
vertex -3.770215e+00 -6.433244e+00 3.611927e+00
vertex -3.800000e+00 -6.500000e+00 3.500000e+00
endloop
endfacet
facet normal -9.748509e-01 1.098393e-01 1.939099e-01
outer loop
vertex -3.770215e+00 -6.433244e+00 3.611927e+00
vertex -3.792478e+00 -6.433244e+00 3.500000e+00
vertex -3.800000e+00 -6.500000e+00 3.500000e+00
endloop
endfacet
facet normal -8.314696e-01 0.000000e+00 5.555702e-01
outer loop
vertex -3.770215e+00 -6.433244e+00 3.611927e+00
vertex -3.770215e+00 -6.566756e+00 3.611927e+00
vertex -3.706813e+00 -6.566756e+00 3.706813e+00
endloop
endfacet
facet normal -5.555702e-01 0.000000e+00 8.314696e-01
outer loop
vertex -3.706813e+00 -6.433244e+00 3.706813e+00
vertex -3.706813e+00 -6.566756e+00 3.706813e+00
vertex -3.611927e+00 -6.566756e+00 3.770215e+00
endloop
endfacet
facet normal -1.950903e-01 0.000000e+00 9.807853e-01
outer loop
vertex -3.611927e+00 -6.433244e+00 3.770215e+00
vertex -3.611927e+00 -6.566756e+00 3.770215e+00
vertex -3.500000e+00 -6.566756e+00 3.792478e+00
endloop
endfacet
facet normal -8.260336e-01 5.391394e-01 1.643083e-01
outer loop
vertex -3.716695e+00 -6.312953e+00 3.589758e+00
vertex -3.734549e+00 -6.312953e+00 3.500000e+00
vertex -3.765637e+00 -6.360583e+00 3.500000e+00
endloop
endfacet
facet normal -8.683713e-01 4.314220e-01 2.445533e-01
outer loop
vertex -3.765637e+00 -6.360583e+00 3.500000e+00
vertex -3.770215e+00 -6.433244e+00 3.611927e+00
vertex -3.716695e+00 -6.312953e+00 3.589758e+00
endloop
endfacet
facet normal -7.518265e-01 4.270796e-01 5.023544e-01
outer loop
vertex -3.716695e+00 -6.312953e+00 3.589758e+00
vertex -3.770215e+00 -6.433244e+00 3.611927e+00
vertex -3.706813e+00 -6.433244e+00 3.706813e+00
endloop
endfacet
facet normal -5.023544e-01 4.270796e-01 7.518265e-01
outer loop
vertex -3.665852e+00 -6.312953e+00 3.665852e+00
vertex -3.706813e+00 -6.433244e+00 3.706813e+00
vertex -3.611927e+00 -6.433244e+00 3.770215e+00
endloop
endfacet
facet normal -1.764034e-01 4.270796e-01 8.868398e-01
outer loop
vertex -3.589758e+00 -6.312953e+00 3.716695e+00
vertex -3.611927e+00 -6.433244e+00 3.770215e+00
vertex -3.500000e+00 -6.433244e+00 3.792478e+00
endloop
endfacet
facet normal -4.999981e-01 8.602967e-01 9.945580e-02
outer loop
vertex -3.620257e+00 -6.229709e+00 3.549812e+00
vertex -3.630165e+00 -6.229709e+00 3.500000e+00
vertex -3.670419e+00 -6.253105e+00 3.500000e+00
endloop
endfacet
facet normal -5.834357e-01 7.816806e-01 2.204046e-01
outer loop
vertex -3.670419e+00 -6.253105e+00 3.500000e+00
vertex -3.716695e+00 -6.312953e+00 3.589758e+00
vertex -3.620257e+00 -6.229709e+00 3.549812e+00
endloop
endfacet
facet normal -5.245505e-01 7.758873e-01 3.504934e-01
outer loop
vertex -3.620257e+00 -6.229709e+00 3.549812e+00
vertex -3.716695e+00 -6.312953e+00 3.589758e+00
vertex -3.665852e+00 -6.312953e+00 3.665852e+00
endloop
endfacet
facet normal -3.504934e-01 7.758873e-01 5.245505e-01
outer loop
vertex -3.592041e+00 -6.229709e+00 3.592041e+00
vertex -3.665852e+00 -6.312953e+00 3.665852e+00
vertex -3.589758e+00 -6.312953e+00 3.716695e+00
endloop
endfacet
facet normal -1.230769e-01 7.758873e-01 6.187495e-01
outer loop
vertex -3.549812e+00 -6.229709e+00 3.620257e+00
vertex -3.589758e+00 -6.312953e+00 3.716695e+00
vertex -3.500000e+00 -6.312953e+00 3.734549e+00
endloop
endfacet
facet normal -5.506922e-02 9.104028e-01 4.100417e-01
outer loop
vertex -3.620257e+00 -6.229709e+00 3.549812e+00
vertex -3.500000e+00 -6.200000e+00 3.500000e+00
vertex -3.536161e+00 -6.202187e+00 3.500000e+00
endloop
endfacet
facet normal -4.421887e-02 9.739743e-01 2.223033e-01
outer loop
vertex -3.500000e+00 -6.200000e+00 3.500000e+00
vertex -3.549812e+00 -6.229709e+00 3.620257e+00
vertex -3.500000e+00 -6.229709e+00 3.630165e+00
endloop
endfacet
facet normal -1.259247e-01 9.739743e-01 1.884596e-01
outer loop
vertex -3.500000e+00 -6.200000e+00 3.500000e+00
vertex -3.592041e+00 -6.229709e+00 3.592041e+00
vertex -3.549812e+00 -6.229709e+00 3.620257e+00
endloop
endfacet
facet normal -1.884596e-01 9.739743e-01 1.259247e-01
outer loop
vertex -3.500000e+00 -6.200000e+00 3.500000e+00
vertex -3.620257e+00 -6.229709e+00 3.549812e+00
vertex -3.592041e+00 -6.229709e+00 3.592041e+00
endloop
endfacet
facet normal -2.805418e-01 9.582183e-01 5.580324e-02
outer loop
vertex -3.536161e+00 -6.202187e+00 3.500000e+00
vertex -3.630165e+00 -6.229709e+00 3.500000e+00
vertex -3.620257e+00 -6.229709e+00 3.549812e+00
endloop
endfacet
facet normal -1.230769e-01 7.758873e-01 6.187495e-01
outer loop
vertex -3.500000e+00 -6.312953e+00 3.734549e+00
vertex -3.500000e+00 -6.229709e+00 3.630165e+00
vertex -3.549812e+00 -6.229709e+00 3.620257e+00
endloop
endfacet
facet normal -3.504934e-01 7.758873e-01 5.245505e-01
outer loop
vertex -3.589758e+00 -6.312953e+00 3.716695e+00
vertex -3.549812e+00 -6.229709e+00 3.620257e+00
vertex -3.592041e+00 -6.229709e+00 3.592041e+00
endloop
endfacet
facet normal -5.245505e-01 7.758873e-01 3.504934e-01
outer loop
vertex -3.665852e+00 -6.312953e+00 3.665852e+00
vertex -3.592041e+00 -6.229709e+00 3.592041e+00
vertex -3.620257e+00 -6.229709e+00 3.549812e+00
endloop
endfacet
facet normal -6.760812e-01 7.244509e-01 1.344809e-01
outer loop
vertex -3.670419e+00 -6.253105e+00 3.500000e+00
vertex -3.734549e+00 -6.312953e+00 3.500000e+00
vertex -3.716695e+00 -6.312953e+00 3.589758e+00
endloop
endfacet
facet normal -1.764034e-01 4.270796e-01 8.868398e-01
outer loop
vertex -3.500000e+00 -6.433244e+00 3.792478e+00
vertex -3.500000e+00 -6.312953e+00 3.734549e+00
vertex -3.589758e+00 -6.312953e+00 3.716695e+00
endloop
endfacet
facet normal -5.023544e-01 4.270796e-01 7.518265e-01
outer loop
vertex -3.611927e+00 -6.433244e+00 3.770215e+00
vertex -3.589758e+00 -6.312953e+00 3.716695e+00
vertex -3.665852e+00 -6.312953e+00 3.665852e+00
endloop
endfacet
facet normal -7.518265e-01 4.270796e-01 5.023544e-01
outer loop
vertex -3.706813e+00 -6.433244e+00 3.706813e+00
vertex -3.665852e+00 -6.312953e+00 3.665852e+00
vertex -3.716695e+00 -6.312953e+00 3.589758e+00
endloop
endfacet
facet normal -9.221272e-01 3.406429e-01 1.834225e-01
outer loop
vertex -3.765637e+00 -6.360583e+00 3.500000e+00
vertex -3.792478e+00 -6.433244e+00 3.500000e+00
vertex -3.770215e+00 -6.433244e+00 3.611927e+00
endloop
endfacet
facet normal -1.950903e-01 0.000000e+00 9.807853e-01
outer loop
vertex -3.500000e+00 -6.566756e+00 3.792478e+00
vertex -3.500000e+00 -6.433244e+00 3.792478e+00
vertex -3.611927e+00 -6.433244e+00 3.770215e+00
endloop
endfacet
facet normal -5.555702e-01 0.000000e+00 8.314696e-01
outer loop
vertex -3.611927e+00 -6.566756e+00 3.770215e+00
vertex -3.611927e+00 -6.433244e+00 3.770215e+00
vertex -3.706813e+00 -6.433244e+00 3.706813e+00
endloop
endfacet
facet normal -8.314696e-01 0.000000e+00 5.555702e-01
outer loop
vertex -3.706813e+00 -6.566756e+00 3.706813e+00
vertex -3.706813e+00 -6.433244e+00 3.706813e+00
vertex -3.770215e+00 -6.433244e+00 3.611927e+00
endloop
endfacet
facet normal -9.748509e-01 -1.098393e-01 1.939099e-01
outer loop
vertex -3.800000e+00 -6.500000e+00 3.500000e+00
vertex -3.792478e+00 -6.566756e+00 3.500000e+00
vertex -3.770215e+00 -6.566756e+00 3.611927e+00
endloop
endfacet
facet normal -1.764034e-01 -4.270796e-01 8.868398e-01
outer loop
vertex -3.500000e+00 -6.687047e+00 3.734549e+00
vertex -3.500000e+00 -6.566756e+00 3.792478e+00
vertex -3.611927e+00 -6.566756e+00 3.770215e+00
endloop
endfacet
facet normal -5.023544e-01 -4.270796e-01 7.518265e-01
outer loop
vertex -3.589758e+00 -6.687047e+00 3.716695e+00
vertex -3.611927e+00 -6.566756e+00 3.770215e+00
vertex -3.706813e+00 -6.566756e+00 3.706813e+00
endloop
endfacet
facet normal -7.518265e-01 -4.270796e-01 5.023544e-01
outer loop
vertex -3.665852e+00 -6.687047e+00 3.665852e+00
vertex -3.706813e+00 -6.566756e+00 3.706813e+00
vertex -3.770215e+00 -6.566756e+00 3.611927e+00
endloop
endfacet
facet normal -8.260336e-01 -5.391394e-01 1.643083e-01
outer loop
vertex -3.765637e+00 -6.639417e+00 3.500000e+00
vertex -3.734549e+00 -6.687047e+00 3.500000e+00
vertex -3.716695e+00 -6.687047e+00 3.589758e+00
endloop
endfacet
facet normal -1.230769e-01 -7.758873e-01 6.187495e-01
outer loop
vertex -3.500000e+00 -6.770291e+00 3.630165e+00
vertex -3.500000e+00 -6.687047e+00 3.734549e+00
vertex -3.589758e+00 -6.687047e+00 3.716695e+00
endloop
endfacet
facet normal -3.504934e-01 -7.758873e-01 5.245505e-01
outer loop
vertex -3.549812e+00 -6.770291e+00 3.620257e+00
vertex -3.589758e+00 -6.687047e+00 3.716695e+00
vertex -3.665852e+00 -6.687047e+00 3.665852e+00
endloop
endfacet
facet normal -5.245505e-01 -7.758873e-01 3.504934e-01
outer loop
vertex -3.592041e+00 -6.770291e+00 3.592041e+00
vertex -3.665852e+00 -6.687047e+00 3.665852e+00
vertex -3.716695e+00 -6.687047e+00 3.589758e+00
endloop
endfacet
facet normal -4.999981e-01 -8.602967e-01 9.945580e-02
outer loop
vertex -3.670419e+00 -6.746895e+00 3.500000e+00
vertex -3.630165e+00 -6.770291e+00 3.500000e+00
vertex -3.620257e+00 -6.770291e+00 3.549812e+00
endloop
endfacet
facet normal -4.421887e-02 -9.739743e-01 2.223033e-01
outer loop
vertex -3.500000e+00 -6.770291e+00 3.630165e+00
vertex -3.549812e+00 -6.770291e+00 3.620257e+00
vertex -3.500000e+00 -6.800000e+00 3.500000e+00
endloop
endfacet
facet normal -1.259247e-01 -9.739743e-01 1.884596e-01
outer loop
vertex -3.549812e+00 -6.770291e+00 3.620257e+00
vertex -3.592041e+00 -6.770291e+00 3.592041e+00
vertex -3.500000e+00 -6.800000e+00 3.500000e+00
endloop
endfacet
facet normal -1.884596e-01 -9.739743e-01 1.259247e-01
outer loop
vertex -3.592041e+00 -6.770291e+00 3.592041e+00
vertex -3.620257e+00 -6.770291e+00 3.549812e+00
vertex -3.500000e+00 -6.800000e+00 3.500000e+00
endloop
endfacet
facet normal -5.506922e-02 -9.104028e-01 4.100417e-01
outer loop
vertex -3.536161e+00 -6.797813e+00 3.500000e+00
vertex -3.500000e+00 -6.800000e+00 3.500000e+00
vertex -3.620257e+00 -6.770291e+00 3.549812e+00
endloop
endfacet
facet normal -9.709388e-01 2.393149e-01 -2.477924e-03
outer loop
vertex -3.765637e+00 -6.360583e+00 0.000000e+00
vertex -3.800000e+00 -6.500000e+00 0.000000e+00
vertex -3.792478e+00 -6.433244e+00 3.500000e+00
endloop
endfacet
facet normal -9.937122e-01 1.119645e-01 0.000000e+00
outer loop
vertex -3.800000e+00 -6.500000e+00 0.000000e+00
vertex -3.800000e+00 -6.500000e+00 3.500000e+00
vertex -3.792478e+00 -6.433244e+00 3.500000e+00
endloop
endfacet
facet normal -7.485086e-01 6.631208e-01 -2.375793e-03
outer loop
vertex -3.670419e+00 -6.253105e+00 0.000000e+00
vertex -3.765637e+00 -6.360583e+00 0.000000e+00
vertex -3.734549e+00 -6.312953e+00 3.500000e+00
endloop
endfacet
facet normal -8.374148e-01 5.465678e-01 0.000000e+00
outer loop
vertex -3.765637e+00 -6.360583e+00 0.000000e+00
vertex -3.765637e+00 -6.360583e+00 3.500000e+00
vertex -3.734549e+00 -6.312953e+00 3.500000e+00
endloop
endfacet
facet normal -3.546041e-01 9.350140e-01 -2.171652e-03
outer loop
vertex -3.536161e+00 -6.202187e+00 0.000000e+00
vertex -3.670419e+00 -6.253105e+00 0.000000e+00
vertex -3.630165e+00 -6.229709e+00 3.500000e+00
endloop
endfacet
facet normal -5.024894e-01 8.645834e-01 -9.962059e-17
outer loop
vertex -3.670419e+00 -6.253105e+00 0.000000e+00
vertex -3.670419e+00 -6.253105e+00 3.500000e+00
vertex -3.630165e+00 -6.229709e+00 3.500000e+00
endloop
endfacet
facet normal 1.205365e-01 9.927071e-01 -1.865744e-03
outer loop
vertex -3.393619e+00 -6.219495e+00 0.000000e+00
vertex -3.536161e+00 -6.202187e+00 0.000000e+00
vertex -3.500000e+00 -6.200000e+00 3.500000e+00
endloop
endfacet
facet normal -6.037850e-02 9.981756e-01 0.000000e+00
outer loop
vertex -3.536161e+00 -6.202187e+00 0.000000e+00
vertex -3.536161e+00 -6.202187e+00 3.500000e+00
vertex -3.500000e+00 -6.200000e+00 3.500000e+00
endloop
endfacet
facet normal 5.680647e-01 8.229839e-01 -0.000000e+00
outer loop
vertex -3.393619e+00 -6.219495e+00 0.000000e+00
vertex -3.393619e+00 -6.219495e+00 3.500000e+00
vertex -3.275447e+00 -6.301063e+00 3.500000e+00
endloop
endfacet
facet normal 8.854560e-01 4.647232e-01 -0.000000e+00
outer loop
vertex -3.275447e+00 -6.301063e+00 0.000000e+00
vertex -3.275447e+00 -6.301063e+00 3.500000e+00
vertex -3.208717e+00 -6.428205e+00 3.500000e+00
endloop
endfacet
facet normal 9.999969e-01 0.000000e+00 2.490694e-03
outer loop
vertex -3.208717e+00 -6.428205e+00 3.500000e+00
vertex -3.208717e+00 -6.571795e+00 3.500000e+00
vertex -3.200000e+00 -6.500000e+00 0.000000e+00
endloop
endfacet
facet normal 9.927089e-01 -1.205367e-01 0.000000e+00
outer loop
vertex -3.208717e+00 -6.571795e+00 3.500000e+00
vertex -3.208717e+00 -6.571795e+00 0.000000e+00
vertex -3.200000e+00 -6.500000e+00 0.000000e+00
endloop
endfacet
facet normal 8.854560e-01 -4.647232e-01 0.000000e+00
outer loop
vertex -3.208717e+00 -6.571795e+00 0.000000e+00
vertex -3.208717e+00 -6.571795e+00 3.500000e+00
vertex -3.275447e+00 -6.698937e+00 3.500000e+00
endloop
endfacet
facet normal 5.680647e-01 -8.229839e-01 0.000000e+00
outer loop
vertex -3.275447e+00 -6.698937e+00 0.000000e+00
vertex -3.275447e+00 -6.698937e+00 3.500000e+00
vertex -3.393619e+00 -6.780505e+00 3.500000e+00
endloop
endfacet
facet normal 1.802550e-01 -9.836199e-01 0.000000e+00
outer loop
vertex -3.393619e+00 -6.780505e+00 0.000000e+00
vertex -3.393619e+00 -6.780505e+00 3.500000e+00
vertex -3.500000e+00 -6.800000e+00 3.500000e+00
endloop
endfacet
facet normal 1.205365e-01 -9.927071e-01 -1.865744e-03
outer loop
vertex -3.500000e+00 -6.800000e+00 3.500000e+00
vertex -3.536161e+00 -6.797813e+00 0.000000e+00
vertex -3.393619e+00 -6.780505e+00 0.000000e+00
endloop
endfacet
facet normal -2.809796e-01 -9.597137e-01 0.000000e+00
outer loop
vertex -3.536161e+00 -6.797813e+00 0.000000e+00
vertex -3.536161e+00 -6.797813e+00 3.500000e+00
vertex -3.630165e+00 -6.770291e+00 3.500000e+00
endloop
endfacet
facet normal -3.546041e-01 -9.350140e-01 -2.171652e-03
outer loop
vertex -3.630165e+00 -6.770291e+00 3.500000e+00
vertex -3.670419e+00 -6.746895e+00 0.000000e+00
vertex -3.536161e+00 -6.797813e+00 0.000000e+00
endloop
endfacet
facet normal -6.822788e-01 -7.310920e-01 -2.705292e-16
outer loop
vertex -3.670419e+00 -6.746895e+00 0.000000e+00
vertex -3.670419e+00 -6.746895e+00 3.500000e+00
vertex -3.734549e+00 -6.687047e+00 3.500000e+00
endloop
endfacet
facet normal -7.485086e-01 -6.631208e-01 -2.375793e-03
outer loop
vertex -3.734549e+00 -6.687047e+00 3.500000e+00
vertex -3.765637e+00 -6.639417e+00 0.000000e+00
vertex -3.670419e+00 -6.746895e+00 0.000000e+00
endloop
endfacet
facet normal -9.380419e-01 -3.465219e-01 0.000000e+00
outer loop
vertex -3.765637e+00 -6.639417e+00 0.000000e+00
vertex -3.765637e+00 -6.639417e+00 3.500000e+00
vertex -3.792478e+00 -6.566756e+00 3.500000e+00
endloop
endfacet
facet normal -9.709388e-01 -2.393149e-01 -2.477924e-03
outer loop
vertex -3.792478e+00 -6.566756e+00 3.500000e+00
vertex -3.800000e+00 -6.500000e+00 0.000000e+00
vertex -3.765637e+00 -6.639417e+00 0.000000e+00
endloop
endfacet
facet normal -9.937122e-01 -1.119645e-01 0.000000e+00
outer loop
vertex -3.792478e+00 -6.566756e+00 3.500000e+00
vertex -3.800000e+00 -6.500000e+00 3.500000e+00
vertex -3.800000e+00 -6.500000e+00 0.000000e+00
endloop
endfacet
facet normal -8.374148e-01 -5.465678e-01 0.000000e+00
outer loop
vertex -3.734549e+00 -6.687047e+00 3.500000e+00
vertex -3.765637e+00 -6.639417e+00 3.500000e+00
vertex -3.765637e+00 -6.639417e+00 0.000000e+00
endloop
endfacet
facet normal -5.024894e-01 -8.645834e-01 -1.989816e-16
outer loop
vertex -3.630165e+00 -6.770291e+00 3.500000e+00
vertex -3.670419e+00 -6.746895e+00 3.500000e+00
vertex -3.670419e+00 -6.746895e+00 0.000000e+00
endloop
endfacet
facet normal -6.037850e-02 -9.981756e-01 0.000000e+00
outer loop
vertex -3.500000e+00 -6.800000e+00 3.500000e+00
vertex -3.536161e+00 -6.797813e+00 3.500000e+00
vertex -3.536161e+00 -6.797813e+00 0.000000e+00
endloop
endfacet
facet normal 5.680647e-01 -8.229839e-01 0.000000e+00
outer loop
vertex -3.393619e+00 -6.780505e+00 3.500000e+00
vertex -3.393619e+00 -6.780505e+00 0.000000e+00
vertex -3.275447e+00 -6.698937e+00 0.000000e+00
endloop
endfacet
facet normal 8.854560e-01 -4.647232e-01 0.000000e+00
outer loop
vertex -3.275447e+00 -6.698937e+00 3.500000e+00
vertex -3.275447e+00 -6.698937e+00 0.000000e+00
vertex -3.208717e+00 -6.571795e+00 0.000000e+00
endloop
endfacet
facet normal 9.927089e-01 1.205367e-01 0.000000e+00
outer loop
vertex -3.200000e+00 -6.500000e+00 0.000000e+00
vertex -3.208717e+00 -6.428205e+00 0.000000e+00
vertex -3.208717e+00 -6.428205e+00 3.500000e+00
endloop
endfacet
facet normal 8.854560e-01 4.647232e-01 0.000000e+00
outer loop
vertex -3.208717e+00 -6.428205e+00 3.500000e+00
vertex -3.208717e+00 -6.428205e+00 0.000000e+00
vertex -3.275447e+00 -6.301063e+00 0.000000e+00
endloop
endfacet
facet normal 5.680647e-01 8.229839e-01 0.000000e+00
outer loop
vertex -3.275447e+00 -6.301063e+00 3.500000e+00
vertex -3.275447e+00 -6.301063e+00 0.000000e+00
vertex -3.393619e+00 -6.219495e+00 0.000000e+00
endloop
endfacet
facet normal 1.802550e-01 9.836199e-01 0.000000e+00
outer loop
vertex -3.500000e+00 -6.200000e+00 3.500000e+00
vertex -3.393619e+00 -6.219495e+00 3.500000e+00
vertex -3.393619e+00 -6.219495e+00 0.000000e+00
endloop
endfacet
facet normal -2.809796e-01 9.597137e-01 0.000000e+00
outer loop
vertex -3.630165e+00 -6.229709e+00 3.500000e+00
vertex -3.536161e+00 -6.202187e+00 3.500000e+00
vertex -3.536161e+00 -6.202187e+00 0.000000e+00
endloop
endfacet
facet normal -6.822788e-01 7.310920e-01 -1.362229e-16
outer loop
vertex -3.734549e+00 -6.312953e+00 3.500000e+00
vertex -3.670419e+00 -6.253105e+00 3.500000e+00
vertex -3.670419e+00 -6.253105e+00 0.000000e+00
endloop
endfacet
facet normal -9.380419e-01 3.465219e-01 0.000000e+00
outer loop
vertex -3.792478e+00 -6.433244e+00 3.500000e+00
vertex -3.765637e+00 -6.360583e+00 3.500000e+00
vertex -3.765637e+00 -6.360583e+00 0.000000e+00
endloop
endfacet
facet normal 0.000000e+00 0.000000e+00 -1.000000e+00
outer loop
vertex -3.500000e+00 -6.500000e+00 0.000000e+00
vertex -3.208717e+00 -6.571795e+00 0.000000e+00
vertex -3.275447e+00 -6.698937e+00 0.000000e+00
endloop
endfacet
facet normal -0.000000e+00 0.000000e+00 -1.000000e+00
outer loop
vertex -3.275447e+00 -6.698937e+00 0.000000e+00
vertex -3.393619e+00 -6.780505e+00 0.000000e+00
vertex -3.500000e+00 -6.500000e+00 0.000000e+00
endloop
endfacet
facet normal -0.000000e+00 0.000000e+00 -1.000000e+00
outer loop
vertex -3.393619e+00 -6.780505e+00 0.000000e+00
vertex -3.536161e+00 -6.797813e+00 0.000000e+00
vertex -3.500000e+00 -6.500000e+00 0.000000e+00
endloop
endfacet
facet normal 0.000000e+00 0.000000e+00 -1.000000e+00
outer loop
vertex -3.536161e+00 -6.797813e+00 0.000000e+00
vertex -3.670419e+00 -6.746895e+00 0.000000e+00
vertex -3.500000e+00 -6.500000e+00 0.000000e+00
endloop
endfacet
facet normal 0.000000e+00 0.000000e+00 -1.000000e+00
outer loop
vertex -3.670419e+00 -6.746895e+00 0.000000e+00
vertex -3.765637e+00 -6.639417e+00 0.000000e+00
vertex -3.500000e+00 -6.500000e+00 0.000000e+00
endloop
endfacet
facet normal 0.000000e+00 0.000000e+00 -1.000000e+00
outer loop
vertex -3.765637e+00 -6.639417e+00 0.000000e+00
vertex -3.800000e+00 -6.500000e+00 0.000000e+00
vertex -3.500000e+00 -6.500000e+00 0.000000e+00
endloop
endfacet
facet normal 0.000000e+00 0.000000e+00 -1.000000e+00
outer loop
vertex -3.800000e+00 -6.500000e+00 0.000000e+00
vertex -3.765637e+00 -6.360583e+00 0.000000e+00
vertex -3.500000e+00 -6.500000e+00 0.000000e+00
endloop
endfacet
facet normal 0.000000e+00 0.000000e+00 -1.000000e+00
outer loop
vertex -3.765637e+00 -6.360583e+00 0.000000e+00
vertex -3.670419e+00 -6.253105e+00 0.000000e+00
vertex -3.500000e+00 -6.500000e+00 0.000000e+00
endloop
endfacet
facet normal 0.000000e+00 0.000000e+00 -1.000000e+00
outer loop
vertex -3.670419e+00 -6.253105e+00 0.000000e+00
vertex -3.536161e+00 -6.202187e+00 0.000000e+00
vertex -3.500000e+00 -6.500000e+00 0.000000e+00
endloop
endfacet
facet normal 0.000000e+00 0.000000e+00 -1.000000e+00
outer loop
vertex -3.536161e+00 -6.202187e+00 0.000000e+00
vertex -3.393619e+00 -6.219495e+00 0.000000e+00
vertex -3.500000e+00 -6.500000e+00 0.000000e+00
endloop
endfacet
facet normal 0.000000e+00 -0.000000e+00 -1.000000e+00
outer loop
vertex -3.393619e+00 -6.219495e+00 0.000000e+00
vertex -3.275447e+00 -6.301063e+00 0.000000e+00
vertex -3.500000e+00 -6.500000e+00 0.000000e+00
endloop
endfacet
facet normal 0.000000e+00 -0.000000e+00 -1.000000e+00
outer loop
vertex -3.275447e+00 -6.301063e+00 0.000000e+00
vertex -3.208717e+00 -6.428205e+00 0.000000e+00
vertex -3.500000e+00 -6.500000e+00 0.000000e+00
endloop
endfacet
facet normal 0.000000e+00 -0.000000e+00 -1.000000e+00
outer loop
vertex -3.208717e+00 -6.428205e+00 0.000000e+00
vertex -3.200000e+00 -6.500000e+00 0.000000e+00
vertex -3.500000e+00 -6.500000e+00 0.000000e+00
endloop
endfacet
facet normal -0.000000e+00 0.000000e+00 -1.000000e+00
outer loop
vertex -3.200000e+00 -6.500000e+00 0.000000e+00
vertex -3.208717e+00 -6.571795e+00 0.000000e+00
vertex -3.500000e+00 -6.500000e+00 0.000000e+00
endloop
endfacet
endsolid SHAPR3D_SOLID
