solid SHAPR3D_SOLID
facet normal 3.374081e-01 -7.701119e-02 9.382031e-01
outer loop
vertex 1.172747e+00 -5.647653e-01 7.702907e+00
vertex 1.301651e+00 0.000000e+00 7.702907e+00
vertex 7.179470e-01 0.000000e+00 7.912825e+00
endloop
endfacet
facet normal -1.163134e-01 -2.623878e-01 9.579268e-01
outer loop
vertex -1.172747e+00 -5.647653e-01 7.702907e+00
vertex 3.673940e-16 0.000000e+00 8.000000e+00
vertex -7.179470e-01 0.000000e+00 7.912825e+00
endloop
endfacet
facet normal 5.866533e-01 -2.162346e-01 7.804361e-01
outer loop
vertex 1.172747e+00 -5.647653e-01 7.702907e+00
vertex 2.113217e+00 -1.017672e+00 6.870469e+00
vertex 1.989368e+00 0.000000e+00 7.245532e+00
endloop
endfacet
facet normal 7.154425e-01 -1.632951e-01 6.793208e-01
outer loop
vertex 2.113217e+00 -1.017672e+00 6.870469e+00
vertex 2.345494e+00 0.000000e+00 6.870469e+00
vertex 1.989368e+00 0.000000e+00 7.245532e+00
endloop
endfacet
facet normal 4.950128e-01 -3.947595e-01 7.740331e-01
outer loop
vertex 2.113217e+00 -1.017672e+00 6.870469e+00
vertex 1.172747e+00 -5.647653e-01 7.702907e+00
vertex 8.115663e-01 -1.017672e+00 7.702907e+00
endloop
endfacet
facet normal 2.747114e-01 -5.704440e-01 7.740331e-01
outer loop
vertex 1.462392e+00 -1.833781e+00 6.870469e+00
vertex 8.115663e-01 -1.017672e+00 7.702907e+00
vertex 2.896446e-01 -1.269016e+00 7.702907e+00
endloop
endfacet
facet normal 0.000000e+00 -6.331451e-01 7.740331e-01
outer loop
vertex 5.219216e-01 -2.286688e+00 6.870469e+00
vertex 2.896446e-01 -1.269016e+00 7.702907e+00
vertex -2.896446e-01 -1.269016e+00 7.702907e+00
endloop
endfacet
facet normal -2.747114e-01 -5.704440e-01 7.740331e-01
outer loop
vertex -5.219216e-01 -2.286688e+00 6.870469e+00
vertex -2.896446e-01 -1.269016e+00 7.702907e+00
vertex -8.115663e-01 -1.017672e+00 7.702907e+00
endloop
endfacet
facet normal -4.950128e-01 -3.947595e-01 7.740331e-01
outer loop
vertex -1.462392e+00 -1.833781e+00 6.870469e+00
vertex -8.115663e-01 -1.017672e+00 7.702907e+00
vertex -1.172747e+00 -5.647653e-01 7.702907e+00
endloop
endfacet
facet normal -5.494037e-01 -1.253978e-01 8.260938e-01
outer loop
vertex -1.172747e+00 -5.647653e-01 7.702907e+00
vertex -1.301651e+00 0.000000e+00 7.702907e+00
vertex -1.989368e+00 0.000000e+00 7.245532e+00
endloop
endfacet
facet normal -5.866533e-01 -2.162346e-01 7.804361e-01
outer loop
vertex -1.989368e+00 0.000000e+00 7.245532e+00
vertex -2.113217e+00 -1.017672e+00 6.870469e+00
vertex -1.172747e+00 -5.647653e-01 7.702907e+00
endloop
endfacet
facet normal 8.680322e-01 -2.501436e-01 4.288919e-01
outer loop
vertex 2.113217e+00 -1.017672e+00 6.870469e+00
vertex 2.635139e+00 -1.269016e+00 5.667563e+00
vertex 2.805049e+00 0.000000e+00 6.063815e+00
endloop
endfacet
facet normal 9.351918e-01 -2.134514e-01 2.825859e-01
outer loop
vertex 2.635139e+00 -1.269016e+00 5.667563e+00
vertex 2.924784e+00 0.000000e+00 5.667563e+00
vertex 2.805049e+00 0.000000e+00 6.063815e+00
endloop
endfacet
facet normal 7.077120e-01 -5.643815e-01 4.249908e-01
outer loop
vertex 2.635139e+00 -1.269016e+00 5.667563e+00
vertex 2.113217e+00 -1.017672e+00 6.870469e+00
vertex 1.462392e+00 -1.833781e+00 6.870469e+00
endloop
endfacet
facet normal 3.927506e-01 -8.155549e-01 4.249908e-01
outer loop
vertex 1.823573e+00 -2.286688e+00 5.667563e+00
vertex 1.462392e+00 -1.833781e+00 6.870469e+00
vertex 5.219216e-01 -2.286688e+00 6.870469e+00
endloop
endfacet
facet normal 0.000000e+00 -9.051977e-01 4.249908e-01
outer loop
vertex 6.508256e-01 -2.851453e+00 5.667563e+00
vertex 5.219216e-01 -2.286688e+00 6.870469e+00
vertex -5.219216e-01 -2.286688e+00 6.870469e+00
endloop
endfacet
facet normal -3.927506e-01 -8.155549e-01 4.249908e-01
outer loop
vertex -6.508256e-01 -2.851453e+00 5.667563e+00
vertex -5.219216e-01 -2.286688e+00 6.870469e+00
vertex -1.462392e+00 -1.833781e+00 6.870469e+00
endloop
endfacet
facet normal -7.077120e-01 -5.643815e-01 4.249908e-01
outer loop
vertex -1.823573e+00 -2.286688e+00 5.667563e+00
vertex -1.462392e+00 -1.833781e+00 6.870469e+00
vertex -2.113217e+00 -1.017672e+00 6.870469e+00
endloop
endfacet
facet normal -8.522893e-01 -1.945295e-01 4.855525e-01
outer loop
vertex -2.113217e+00 -1.017672e+00 6.870469e+00
vertex -2.345494e+00 0.000000e+00 6.870469e+00
vertex -2.805049e+00 0.000000e+00 6.063815e+00
endloop
endfacet
facet normal -8.680322e-01 -2.501436e-01 4.288919e-01
outer loop
vertex -2.805049e+00 0.000000e+00 6.063815e+00
vertex -2.635139e+00 -1.269016e+00 5.667563e+00
vertex -2.113217e+00 -1.017672e+00 6.870469e+00
endloop
endfacet
facet normal 9.653614e-01 -2.609163e-01 0.000000e+00
outer loop
vertex 2.635139e+00 -1.269016e+00 5.667563e+00
vertex 2.635139e+00 -1.269016e+00 4.332437e+00
vertex 2.978127e+00 0.000000e+00 4.638390e+00
endloop
endfacet
facet normal 9.611418e-01 -2.193743e-01 -1.675751e-01
outer loop
vertex 2.635139e+00 -1.269016e+00 4.332437e+00
vertex 2.924784e+00 0.000000e+00 4.332437e+00
vertex 2.978127e+00 0.000000e+00 4.638390e+00
endloop
endfacet
facet normal 7.818315e-01 -6.234898e-01 0.000000e+00
outer loop
vertex 2.635139e+00 -1.269016e+00 4.332437e+00
vertex 2.635139e+00 -1.269016e+00 5.667563e+00
vertex 1.823573e+00 -2.286688e+00 5.667563e+00
endloop
endfacet
facet normal 4.338837e-01 -9.009689e-01 0.000000e+00
outer loop
vertex 1.823573e+00 -2.286688e+00 4.332437e+00
vertex 1.823573e+00 -2.286688e+00 5.667563e+00
vertex 6.508256e-01 -2.851453e+00 5.667563e+00
endloop
endfacet
facet normal 0.000000e+00 -1.000000e+00 0.000000e+00
outer loop
vertex 6.508256e-01 -2.851453e+00 4.332437e+00
vertex 6.508256e-01 -2.851453e+00 5.667563e+00
vertex -6.508256e-01 -2.851453e+00 5.667563e+00
endloop
endfacet
facet normal -4.338837e-01 -9.009689e-01 0.000000e+00
outer loop
vertex -6.508256e-01 -2.851453e+00 4.332437e+00
vertex -6.508256e-01 -2.851453e+00 5.667563e+00
vertex -1.823573e+00 -2.286688e+00 5.667563e+00
endloop
endfacet
facet normal -7.818315e-01 -6.234898e-01 0.000000e+00
outer loop
vertex -1.823573e+00 -2.286688e+00 4.332437e+00
vertex -1.823573e+00 -2.286688e+00 5.667563e+00
vertex -2.635139e+00 -1.269016e+00 5.667563e+00
endloop
endfacet
facet normal -9.736856e-01 -2.222374e-01 5.046694e-02
outer loop
vertex -2.635139e+00 -1.269016e+00 5.667563e+00
vertex -2.924784e+00 0.000000e+00 5.667563e+00
vertex -2.978127e+00 0.000000e+00 4.638390e+00
endloop
endfacet
facet normal -9.653614e-01 -2.609163e-01 0.000000e+00
outer loop
vertex -2.978127e+00 0.000000e+00 4.638390e+00
vertex -2.635139e+00 -1.269016e+00 4.332437e+00
vertex -2.635139e+00 -1.269016e+00 5.667563e+00
endloop
endfacet
facet normal 8.727398e-01 -2.351738e-01 -4.278066e-01
outer loop
vertex 2.635139e+00 -1.269016e+00 4.332437e+00
vertex 2.113217e+00 -1.017672e+00 3.129531e+00
vertex 2.468952e+00 0.000000e+00 3.295806e+00
endloop
endfacet
facet normal 7.077120e-01 -5.643815e-01 -4.249908e-01
outer loop
vertex 2.113217e+00 -1.017672e+00 3.129531e+00
vertex 2.635139e+00 -1.269016e+00 4.332437e+00
vertex 1.823573e+00 -2.286688e+00 4.332437e+00
endloop
endfacet
facet normal 3.927506e-01 -8.155549e-01 -4.249908e-01
outer loop
vertex 1.462392e+00 -1.833781e+00 3.129531e+00
vertex 1.823573e+00 -2.286688e+00 4.332437e+00
vertex 6.508256e-01 -2.851453e+00 4.332437e+00
endloop
endfacet
facet normal 0.000000e+00 -9.051977e-01 -4.249908e-01
outer loop
vertex 5.219216e-01 -2.286688e+00 3.129531e+00
vertex 6.508256e-01 -2.851453e+00 4.332437e+00
vertex -6.508256e-01 -2.851453e+00 4.332437e+00
endloop
endfacet
facet normal -3.927506e-01 -8.155549e-01 -4.249908e-01
outer loop
vertex -5.219216e-01 -2.286688e+00 3.129531e+00
vertex -6.508256e-01 -2.851453e+00 4.332437e+00
vertex -1.823573e+00 -2.286688e+00 4.332437e+00
endloop
endfacet
facet normal -7.077120e-01 -5.643815e-01 -4.249908e-01
outer loop
vertex -1.462392e+00 -1.833781e+00 3.129531e+00
vertex -1.823573e+00 -2.286688e+00 4.332437e+00
vertex -2.635139e+00 -1.269016e+00 4.332437e+00
endloop
endfacet
facet normal -8.960586e-01 -2.045195e-01 -3.940188e-01
outer loop
vertex -2.635139e+00 -1.269016e+00 4.332437e+00
vertex -2.924784e+00 0.000000e+00 4.332437e+00
vertex -2.468952e+00 0.000000e+00 3.295806e+00
endloop
endfacet
facet normal -8.727398e-01 -2.351738e-01 -4.278066e-01
outer loop
vertex -2.468952e+00 0.000000e+00 3.295806e+00
vertex -2.113217e+00 -1.017672e+00 3.129531e+00
vertex -2.635139e+00 -1.269016e+00 4.332437e+00
endloop
endfacet
facet normal 6.047543e-01 -1.730413e-01 -7.773860e-01
outer loop
vertex 2.113217e+00 -1.017672e+00 3.129531e+00
vertex 1.172747e+00 -5.647653e-01 2.297093e+00
vertex 1.394170e+00 0.000000e+00 2.343632e+00
endloop
endfacet
facet normal 4.950128e-01 -3.947595e-01 -7.740331e-01
outer loop
vertex 1.172747e+00 -5.647653e-01 2.297093e+00
vertex 2.113217e+00 -1.017672e+00 3.129531e+00
vertex 1.462392e+00 -1.833781e+00 3.129531e+00
endloop
endfacet
facet normal 2.747114e-01 -5.704440e-01 -7.740331e-01
outer loop
vertex 8.115663e-01 -1.017672e+00 2.297093e+00
vertex 1.462392e+00 -1.833781e+00 3.129531e+00
vertex 5.219216e-01 -2.286688e+00 3.129531e+00
endloop
endfacet
facet normal 0.000000e+00 -6.331451e-01 -7.740331e-01
outer loop
vertex 2.896446e-01 -1.269016e+00 2.297093e+00
vertex 5.219216e-01 -2.286688e+00 3.129531e+00
vertex -5.219216e-01 -2.286688e+00 3.129531e+00
endloop
endfacet
facet normal -2.747114e-01 -5.704440e-01 -7.740331e-01
outer loop
vertex -2.896446e-01 -1.269016e+00 2.297093e+00
vertex -5.219216e-01 -2.286688e+00 3.129531e+00
vertex -1.462392e+00 -1.833781e+00 3.129531e+00
endloop
endfacet
facet normal -4.950128e-01 -3.947595e-01 -7.740331e-01
outer loop
vertex -8.115663e-01 -1.017672e+00 2.297093e+00
vertex -1.462392e+00 -1.833781e+00 3.129531e+00
vertex -2.113217e+00 -1.017672e+00 3.129531e+00
endloop
endfacet
facet normal -6.302674e-01 -1.438544e-01 -7.629344e-01
outer loop
vertex -2.113217e+00 -1.017672e+00 3.129531e+00
vertex -2.345494e+00 0.000000e+00 3.129531e+00
vertex -1.394170e+00 0.000000e+00 2.343632e+00
endloop
endfacet
facet normal -2.392928e-01 -1.381614e-02 -9.708491e-01
outer loop
vertex 0.000000e+00 0.000000e+00 2.000000e+00
vertex -1.172747e+00 -5.647653e-01 2.297093e+00
vertex -1.394170e+00 0.000000e+00 2.343632e+00
endloop
endfacet
facet normal -1.782182e-01 -1.421243e-01 -9.736729e-01
outer loop
vertex 0.000000e+00 0.000000e+00 2.000000e+00
vertex -8.115663e-01 -1.017672e+00 2.297093e+00
vertex -1.172747e+00 -5.647653e-01 2.297093e+00
endloop
endfacet
facet normal -9.890365e-02 -2.053756e-01 -9.736729e-01
outer loop
vertex 0.000000e+00 0.000000e+00 2.000000e+00
vertex -2.896446e-01 -1.269016e+00 2.297093e+00
vertex -8.115663e-01 -1.017672e+00 2.297093e+00
endloop
endfacet
facet normal 0.000000e+00 -2.279497e-01 -9.736729e-01
outer loop
vertex 0.000000e+00 0.000000e+00 2.000000e+00
vertex 2.896446e-01 -1.269016e+00 2.297093e+00
vertex -2.896446e-01 -1.269016e+00 2.297093e+00
endloop
endfacet
facet normal 9.890365e-02 -2.053756e-01 -9.736729e-01
outer loop
vertex 0.000000e+00 0.000000e+00 2.000000e+00
vertex 8.115663e-01 -1.017672e+00 2.297093e+00
vertex 2.896446e-01 -1.269016e+00 2.297093e+00
endloop
endfacet
facet normal 1.782182e-01 -1.421243e-01 -9.736729e-01
outer loop
vertex 0.000000e+00 0.000000e+00 2.000000e+00
vertex 1.172747e+00 -5.647653e-01 2.297093e+00
vertex 8.115663e-01 -1.017672e+00 2.297093e+00
endloop
endfacet
facet normal 2.392928e-01 -1.381614e-02 -9.708491e-01
outer loop
vertex 0.000000e+00 0.000000e+00 2.000000e+00
vertex 1.394170e+00 0.000000e+00 2.343632e+00
vertex 1.172747e+00 -5.647653e-01 2.297093e+00
endloop
endfacet
facet normal -6.047543e-01 -1.730413e-01 -7.773860e-01
outer loop
vertex -1.394170e+00 0.000000e+00 2.343632e+00
vertex -1.172747e+00 -5.647653e-01 2.297093e+00
vertex -2.113217e+00 -1.017672e+00 3.129531e+00
endloop
endfacet
facet normal -4.950128e-01 -3.947595e-01 -7.740331e-01
outer loop
vertex -2.113217e+00 -1.017672e+00 3.129531e+00
vertex -1.172747e+00 -5.647653e-01 2.297093e+00
vertex -8.115663e-01 -1.017672e+00 2.297093e+00
endloop
endfacet
facet normal -2.747114e-01 -5.704440e-01 -7.740331e-01
outer loop
vertex -1.462392e+00 -1.833781e+00 3.129531e+00
vertex -8.115663e-01 -1.017672e+00 2.297093e+00
vertex -2.896446e-01 -1.269016e+00 2.297093e+00
endloop
endfacet
facet normal 0.000000e+00 -6.331451e-01 -7.740331e-01
outer loop
vertex -5.219216e-01 -2.286688e+00 3.129531e+00
vertex -2.896446e-01 -1.269016e+00 2.297093e+00
vertex 2.896446e-01 -1.269016e+00 2.297093e+00
endloop
endfacet
facet normal 2.747114e-01 -5.704440e-01 -7.740331e-01
outer loop
vertex 5.219216e-01 -2.286688e+00 3.129531e+00
vertex 2.896446e-01 -1.269016e+00 2.297093e+00
vertex 8.115663e-01 -1.017672e+00 2.297093e+00
endloop
endfacet
facet normal 4.950128e-01 -3.947595e-01 -7.740331e-01
outer loop
vertex 1.462392e+00 -1.833781e+00 3.129531e+00
vertex 8.115663e-01 -1.017672e+00 2.297093e+00
vertex 1.172747e+00 -5.647653e-01 2.297093e+00
endloop
endfacet
facet normal 6.591824e-01 -1.088509e-01 -7.440632e-01
outer loop
vertex 1.394170e+00 0.000000e+00 2.343632e+00
vertex 2.468952e+00 0.000000e+00 3.295806e+00
vertex 2.113217e+00 -1.017672e+00 3.129531e+00
endloop
endfacet
facet normal -7.897352e-01 -1.802519e-01 -5.863681e-01
outer loop
vertex -2.468952e+00 0.000000e+00 3.295806e+00
vertex -2.345494e+00 0.000000e+00 3.129531e+00
vertex -2.113217e+00 -1.017672e+00 3.129531e+00
endloop
endfacet
facet normal -7.077120e-01 -5.643815e-01 -4.249908e-01
outer loop
vertex -2.635139e+00 -1.269016e+00 4.332437e+00
vertex -2.113217e+00 -1.017672e+00 3.129531e+00
vertex -1.462392e+00 -1.833781e+00 3.129531e+00
endloop
endfacet
facet normal -3.927506e-01 -8.155549e-01 -4.249908e-01
outer loop
vertex -1.823573e+00 -2.286688e+00 4.332437e+00
vertex -1.462392e+00 -1.833781e+00 3.129531e+00
vertex -5.219216e-01 -2.286688e+00 3.129531e+00
endloop
endfacet
facet normal 0.000000e+00 -9.051977e-01 -4.249908e-01
outer loop
vertex -6.508256e-01 -2.851453e+00 4.332437e+00
vertex -5.219216e-01 -2.286688e+00 3.129531e+00
vertex 5.219216e-01 -2.286688e+00 3.129531e+00
endloop
endfacet
facet normal 3.927506e-01 -8.155549e-01 -4.249908e-01
outer loop
vertex 6.508256e-01 -2.851453e+00 4.332437e+00
vertex 5.219216e-01 -2.286688e+00 3.129531e+00
vertex 1.462392e+00 -1.833781e+00 3.129531e+00
endloop
endfacet
facet normal 7.077120e-01 -5.643815e-01 -4.249908e-01
outer loop
vertex 1.823573e+00 -2.286688e+00 4.332437e+00
vertex 1.462392e+00 -1.833781e+00 3.129531e+00
vertex 2.113217e+00 -1.017672e+00 3.129531e+00
endloop
endfacet
facet normal 8.960586e-01 -2.045195e-01 -3.940188e-01
outer loop
vertex 2.468952e+00 0.000000e+00 3.295806e+00
vertex 2.924784e+00 0.000000e+00 4.332437e+00
vertex 2.635139e+00 -1.269016e+00 4.332437e+00
endloop
endfacet
facet normal -9.611418e-01 -2.193743e-01 -1.675751e-01
outer loop
vertex -2.978127e+00 0.000000e+00 4.638390e+00
vertex -2.924784e+00 0.000000e+00 4.332437e+00
vertex -2.635139e+00 -1.269016e+00 4.332437e+00
endloop
endfacet
facet normal -7.818315e-01 -6.234898e-01 -0.000000e+00
outer loop
vertex -2.635139e+00 -1.269016e+00 5.667563e+00
vertex -2.635139e+00 -1.269016e+00 4.332437e+00
vertex -1.823573e+00 -2.286688e+00 4.332437e+00
endloop
endfacet
facet normal -4.338837e-01 -9.009689e-01 -0.000000e+00
outer loop
vertex -1.823573e+00 -2.286688e+00 5.667563e+00
vertex -1.823573e+00 -2.286688e+00 4.332437e+00
vertex -6.508256e-01 -2.851453e+00 4.332437e+00
endloop
endfacet
facet normal 0.000000e+00 -1.000000e+00 0.000000e+00
outer loop
vertex -6.508256e-01 -2.851453e+00 5.667563e+00
vertex -6.508256e-01 -2.851453e+00 4.332437e+00
vertex 6.508256e-01 -2.851453e+00 4.332437e+00
endloop
endfacet
facet normal 4.338837e-01 -9.009689e-01 0.000000e+00
outer loop
vertex 6.508256e-01 -2.851453e+00 5.667563e+00
vertex 6.508256e-01 -2.851453e+00 4.332437e+00
vertex 1.823573e+00 -2.286688e+00 4.332437e+00
endloop
endfacet
facet normal 7.818315e-01 -6.234898e-01 0.000000e+00
outer loop
vertex 1.823573e+00 -2.286688e+00 5.667563e+00
vertex 1.823573e+00 -2.286688e+00 4.332437e+00
vertex 2.635139e+00 -1.269016e+00 4.332437e+00
endloop
endfacet
facet normal 9.736856e-01 -2.222374e-01 5.046694e-02
outer loop
vertex 2.978127e+00 0.000000e+00 4.638390e+00
vertex 2.924784e+00 0.000000e+00 5.667563e+00
vertex 2.635139e+00 -1.269016e+00 5.667563e+00
endloop
endfacet
facet normal -9.351918e-01 -2.134514e-01 2.825859e-01
outer loop
vertex -2.805049e+00 0.000000e+00 6.063815e+00
vertex -2.924784e+00 0.000000e+00 5.667563e+00
vertex -2.635139e+00 -1.269016e+00 5.667563e+00
endloop
endfacet
facet normal -7.077120e-01 -5.643815e-01 4.249908e-01
outer loop
vertex -2.113217e+00 -1.017672e+00 6.870469e+00
vertex -2.635139e+00 -1.269016e+00 5.667563e+00
vertex -1.823573e+00 -2.286688e+00 5.667563e+00
endloop
endfacet
facet normal -3.927506e-01 -8.155549e-01 4.249908e-01
outer loop
vertex -1.462392e+00 -1.833781e+00 6.870469e+00
vertex -1.823573e+00 -2.286688e+00 5.667563e+00
vertex -6.508256e-01 -2.851453e+00 5.667563e+00
endloop
endfacet
facet normal 0.000000e+00 -9.051977e-01 4.249908e-01
outer loop
vertex -5.219216e-01 -2.286688e+00 6.870469e+00
vertex -6.508256e-01 -2.851453e+00 5.667563e+00
vertex 6.508256e-01 -2.851453e+00 5.667563e+00
endloop
endfacet
facet normal 3.927506e-01 -8.155549e-01 4.249908e-01
outer loop
vertex 5.219216e-01 -2.286688e+00 6.870469e+00
vertex 6.508256e-01 -2.851453e+00 5.667563e+00
vertex 1.823573e+00 -2.286688e+00 5.667563e+00
endloop
endfacet
facet normal 7.077120e-01 -5.643815e-01 4.249908e-01
outer loop
vertex 1.462392e+00 -1.833781e+00 6.870469e+00
vertex 1.823573e+00 -2.286688e+00 5.667563e+00
vertex 2.635139e+00 -1.269016e+00 5.667563e+00
endloop
endfacet
facet normal 8.522893e-01 -1.945295e-01 4.855525e-01
outer loop
vertex 2.805049e+00 0.000000e+00 6.063815e+00
vertex 2.345494e+00 0.000000e+00 6.870469e+00
vertex 2.113217e+00 -1.017672e+00 6.870469e+00
endloop
endfacet
facet normal -7.154425e-01 -1.632951e-01 6.793208e-01
outer loop
vertex -1.989368e+00 0.000000e+00 7.245532e+00
vertex -2.345494e+00 0.000000e+00 6.870469e+00
vertex -2.113217e+00 -1.017672e+00 6.870469e+00
endloop
endfacet
facet normal -4.950128e-01 -3.947595e-01 7.740331e-01
outer loop
vertex -1.172747e+00 -5.647653e-01 7.702907e+00
vertex -2.113217e+00 -1.017672e+00 6.870469e+00
vertex -1.462392e+00 -1.833781e+00 6.870469e+00
endloop
endfacet
facet normal -2.747114e-01 -5.704440e-01 7.740331e-01
outer loop
vertex -8.115663e-01 -1.017672e+00 7.702907e+00
vertex -1.462392e+00 -1.833781e+00 6.870469e+00
vertex -5.219216e-01 -2.286688e+00 6.870469e+00
endloop
endfacet
facet normal 0.000000e+00 -6.331451e-01 7.740331e-01
outer loop
vertex -2.896446e-01 -1.269016e+00 7.702907e+00
vertex -5.219216e-01 -2.286688e+00 6.870469e+00
vertex 5.219216e-01 -2.286688e+00 6.870469e+00
endloop
endfacet
facet normal 2.747114e-01 -5.704440e-01 7.740331e-01
outer loop
vertex 2.896446e-01 -1.269016e+00 7.702907e+00
vertex 5.219216e-01 -2.286688e+00 6.870469e+00
vertex 1.462392e+00 -1.833781e+00 6.870469e+00
endloop
endfacet
facet normal 4.950128e-01 -3.947595e-01 7.740331e-01
outer loop
vertex 8.115663e-01 -1.017672e+00 7.702907e+00
vertex 1.462392e+00 -1.833781e+00 6.870469e+00
vertex 2.113217e+00 -1.017672e+00 6.870469e+00
endloop
endfacet
facet normal 5.494037e-01 -1.253978e-01 8.260938e-01
outer loop
vertex 1.989368e+00 0.000000e+00 7.245532e+00
vertex 1.301651e+00 0.000000e+00 7.702907e+00
vertex 1.172747e+00 -5.647653e-01 7.702907e+00
endloop
endfacet
facet normal -3.374081e-01 -7.701119e-02 9.382031e-01
outer loop
vertex -7.179470e-01 0.000000e+00 7.912825e+00
vertex -1.301651e+00 0.000000e+00 7.702907e+00
vertex -1.172747e+00 -5.647653e-01 7.702907e+00
endloop
endfacet
facet normal -1.782182e-01 -1.421243e-01 9.736729e-01
outer loop
vertex -1.172747e+00 -5.647653e-01 7.702907e+00
vertex -8.115663e-01 -1.017672e+00 7.702907e+00
vertex 3.673940e-16 0.000000e+00 8.000000e+00
endloop
endfacet
facet normal -9.890365e-02 -2.053756e-01 9.736729e-01
outer loop
vertex -8.115663e-01 -1.017672e+00 7.702907e+00
vertex -2.896446e-01 -1.269016e+00 7.702907e+00
vertex 3.673940e-16 0.000000e+00 8.000000e+00
endloop
endfacet
facet normal 0.000000e+00 -2.279497e-01 9.736729e-01
outer loop
vertex -2.896446e-01 -1.269016e+00 7.702907e+00
vertex 2.896446e-01 -1.269016e+00 7.702907e+00
vertex 3.673940e-16 0.000000e+00 8.000000e+00
endloop
endfacet
facet normal 9.890365e-02 -2.053756e-01 9.736729e-01
outer loop
vertex 2.896446e-01 -1.269016e+00 7.702907e+00
vertex 8.115663e-01 -1.017672e+00 7.702907e+00
vertex 3.673940e-16 0.000000e+00 8.000000e+00
endloop
endfacet
facet normal 1.782182e-01 -1.421243e-01 9.736729e-01
outer loop
vertex 8.115663e-01 -1.017672e+00 7.702907e+00
vertex 1.172747e+00 -5.647653e-01 7.702907e+00
vertex 3.673940e-16 0.000000e+00 8.000000e+00
endloop
endfacet
facet normal 1.163134e-01 -2.623878e-01 9.579268e-01
outer loop
vertex 7.179470e-01 0.000000e+00 7.912825e+00
vertex 3.673940e-16 0.000000e+00 8.000000e+00
vertex 1.172747e+00 -5.647653e-01 7.702907e+00
endloop
endfacet
facet normal 2.393157e-01 1.172309e-17 -9.709418e-01
outer loop
vertex 0.000000e+00 0.000000e+00 2.000000e+00
vertex -7.347881e-16 1.500000e+01 2.000000e+00
vertex 1.394170e+00 1.500000e+01 2.343632e+00
endloop
endfacet
facet normal 6.368918e-01 0.000000e+00 -7.709532e-01
outer loop
vertex 1.394170e+00 0.000000e+00 2.343632e+00
vertex 1.394170e+00 1.500000e+01 2.343632e+00
vertex 2.345494e+00 1.500000e+01 3.129531e+00
endloop
endfacet
facet normal 6.631200e-01 -2.839423e-03 -7.485077e-01
outer loop
vertex 2.345494e+00 1.500000e+01 3.129531e+00
vertex 2.468952e+00 0.000000e+00 3.295806e+00
vertex 1.394170e+00 0.000000e+00 2.343632e+00
endloop
endfacet
facet normal 9.851390e-01 0.000000e+00 -1.717591e-01
outer loop
vertex 2.978127e+00 0.000000e+00 4.638390e+00
vertex 2.924784e+00 0.000000e+00 4.332437e+00
vertex 2.924784e+00 1.500000e+01 4.332437e+00
endloop
endfacet
facet normal 9.154080e-01 0.000000e+00 -4.025272e-01
outer loop
vertex 2.468952e+00 1.500000e+01 3.295806e+00
vertex 2.924784e+00 1.500000e+01 4.332437e+00
vertex 2.924784e+00 0.000000e+00 4.332437e+00
endloop
endfacet
facet normal 9.154080e-01 0.000000e+00 -4.025272e-01
outer loop
vertex 2.924784e+00 0.000000e+00 4.332437e+00
vertex 2.468952e+00 0.000000e+00 3.295806e+00
vertex 2.468952e+00 1.500000e+01 3.295806e+00
endloop
endfacet
facet normal 9.572530e-01 0.000000e+00 2.892521e-01
outer loop
vertex 2.805049e+00 0.000000e+00 6.063815e+00
vertex 2.924784e+00 0.000000e+00 5.667563e+00
vertex 2.924784e+00 1.500000e+01 5.667563e+00
endloop
endfacet
facet normal 9.986595e-01 0.000000e+00 5.176135e-02
outer loop
vertex 2.978127e+00 1.500000e+01 4.638390e+00
vertex 2.924784e+00 1.500000e+01 5.667563e+00
vertex 2.924784e+00 0.000000e+00 5.667563e+00
endloop
endfacet
facet normal 9.986595e-01 0.000000e+00 5.176135e-02
outer loop
vertex 2.924784e+00 0.000000e+00 5.667563e+00
vertex 2.978127e+00 0.000000e+00 4.638390e+00
vertex 2.978127e+00 1.500000e+01 4.638390e+00
endloop
endfacet
facet normal 7.251763e-01 0.000000e+00 6.885632e-01
outer loop
vertex 1.989368e+00 0.000000e+00 7.245532e+00
vertex 2.345494e+00 0.000000e+00 6.870469e+00
vertex 2.345494e+00 1.500000e+01 6.870469e+00
endloop
endfacet
facet normal 8.688880e-01 0.000000e+00 4.950088e-01
outer loop
vertex 2.805049e+00 1.500000e+01 6.063815e+00
vertex 2.345494e+00 1.500000e+01 6.870469e+00
vertex 2.345494e+00 0.000000e+00 6.870469e+00
endloop
endfacet
facet normal 8.688880e-01 0.000000e+00 4.950088e-01
outer loop
vertex 2.345494e+00 0.000000e+00 6.870469e+00
vertex 2.805049e+00 0.000000e+00 6.063815e+00
vertex 2.805049e+00 1.500000e+01 6.063815e+00
endloop
endfacet
facet normal 3.384131e-01 3.641369e-18 9.409977e-01
outer loop
vertex 7.179470e-01 0.000000e+00 7.912825e+00
vertex 1.301651e+00 0.000000e+00 7.702907e+00
vertex 1.301651e+00 1.500000e+01 7.702907e+00
endloop
endfacet
facet normal 5.537749e-01 5.469662e-18 8.326664e-01
outer loop
vertex 1.989368e+00 1.500000e+01 7.245532e+00
vertex 1.301651e+00 1.500000e+01 7.702907e+00
vertex 1.301651e+00 0.000000e+00 7.702907e+00
endloop
endfacet
facet normal 5.537749e-01 0.000000e+00 8.326664e-01
outer loop
vertex 1.301651e+00 0.000000e+00 7.702907e+00
vertex 1.989368e+00 0.000000e+00 7.245532e+00
vertex 1.989368e+00 1.500000e+01 7.245532e+00
endloop
endfacet
facet normal -1.205367e-01 0.000000e+00 9.927089e-01
outer loop
vertex -7.179470e-01 0.000000e+00 7.912825e+00
vertex 3.673940e-16 0.000000e+00 8.000000e+00
vertex 3.673940e-16 1.500000e+01 8.000000e+00
endloop
endfacet
facet normal 1.205367e-01 0.000000e+00 9.927089e-01
outer loop
vertex 7.179470e-01 1.500000e+01 7.912825e+00
vertex 3.673940e-16 1.500000e+01 8.000000e+00
vertex 3.673940e-16 0.000000e+00 8.000000e+00
endloop
endfacet
facet normal 1.205367e-01 0.000000e+00 9.927089e-01
outer loop
vertex 3.673940e-16 0.000000e+00 8.000000e+00
vertex 7.179470e-01 0.000000e+00 7.912825e+00
vertex 7.179470e-01 1.500000e+01 7.912825e+00
endloop
endfacet
facet normal -5.537749e-01 2.187865e-17 8.326664e-01
outer loop
vertex -1.989368e+00 0.000000e+00 7.245532e+00
vertex -1.301651e+00 0.000000e+00 7.702907e+00
vertex -1.301651e+00 1.500000e+01 7.702907e+00
endloop
endfacet
facet normal -3.384131e-01 1.274479e-17 9.409977e-01
outer loop
vertex -7.179470e-01 1.500000e+01 7.912825e+00
vertex -1.301651e+00 1.500000e+01 7.702907e+00
vertex -1.301651e+00 0.000000e+00 7.702907e+00
endloop
endfacet
facet normal -3.384131e-01 0.000000e+00 9.409977e-01
outer loop
vertex -1.301651e+00 0.000000e+00 7.702907e+00
vertex -7.179470e-01 0.000000e+00 7.912825e+00
vertex -7.179470e-01 1.500000e+01 7.912825e+00
endloop
endfacet
facet normal -8.688880e-01 1.946414e-17 4.950088e-01
outer loop
vertex -2.805049e+00 0.000000e+00 6.063815e+00
vertex -2.345494e+00 0.000000e+00 6.870469e+00
vertex -2.345494e+00 1.500000e+01 6.870469e+00
endloop
endfacet
facet normal -7.251763e-01 1.746902e-17 6.885632e-01
outer loop
vertex -1.989368e+00 1.500000e+01 7.245532e+00
vertex -2.345494e+00 1.500000e+01 6.870469e+00
vertex -2.345494e+00 0.000000e+00 6.870469e+00
endloop
endfacet
facet normal -7.251763e-01 0.000000e+00 6.885632e-01
outer loop
vertex -2.345494e+00 0.000000e+00 6.870469e+00
vertex -1.989368e+00 0.000000e+00 7.245532e+00
vertex -1.989368e+00 1.500000e+01 7.245532e+00
endloop
endfacet
facet normal -9.986595e-01 2.027402e-17 5.176135e-02
outer loop
vertex -2.978127e+00 0.000000e+00 4.638390e+00
vertex -2.924784e+00 0.000000e+00 5.667563e+00
vertex -2.924784e+00 1.500000e+01 5.667563e+00
endloop
endfacet
facet normal -9.572530e-01 8.184944e-18 2.892521e-01
outer loop
vertex -2.805049e+00 1.500000e+01 6.063815e+00
vertex -2.924784e+00 1.500000e+01 5.667563e+00
vertex -2.924784e+00 0.000000e+00 5.667563e+00
endloop
endfacet
facet normal -9.572530e-01 0.000000e+00 2.892521e-01
outer loop
vertex -2.924784e+00 0.000000e+00 5.667563e+00
vertex -2.805049e+00 0.000000e+00 6.063815e+00
vertex -2.805049e+00 1.500000e+01 6.063815e+00
endloop
endfacet
facet normal -9.154080e-01 2.393540e-17 -4.025272e-01
outer loop
vertex -2.468952e+00 0.000000e+00 3.295806e+00
vertex -2.924784e+00 0.000000e+00 4.332437e+00
vertex -2.924784e+00 1.500000e+01 4.332437e+00
endloop
endfacet
facet normal -9.851390e-01 2.272805e-17 -1.717591e-01
outer loop
vertex -2.978127e+00 1.500000e+01 4.638390e+00
vertex -2.924784e+00 1.500000e+01 4.332437e+00
vertex -2.924784e+00 0.000000e+00 4.332437e+00
endloop
endfacet
facet normal -9.851390e-01 0.000000e+00 -1.717591e-01
outer loop
vertex -2.924784e+00 0.000000e+00 4.332437e+00
vertex -2.978127e+00 0.000000e+00 4.638390e+00
vertex -2.978127e+00 1.500000e+01 4.638390e+00
endloop
endfacet
facet normal -6.368918e-01 -0.000000e+00 -7.709532e-01
outer loop
vertex -1.394170e+00 1.500000e+01 2.343632e+00
vertex -1.394170e+00 0.000000e+00 2.343632e+00
vertex -2.345494e+00 0.000000e+00 3.129531e+00
endloop
endfacet
facet normal -6.631200e-01 2.839423e-03 -7.485077e-01
outer loop
vertex -2.345494e+00 0.000000e+00 3.129531e+00
vertex -2.468952e+00 1.500000e+01 3.295806e+00
vertex -1.394170e+00 1.500000e+01 2.343632e+00
endloop
endfacet
facet normal -2.393157e-01 0.000000e+00 -9.709418e-01
outer loop
vertex -1.394170e+00 0.000000e+00 2.343632e+00
vertex -1.394170e+00 1.500000e+01 2.343632e+00
vertex -7.347881e-16 1.500000e+01 2.000000e+00
endloop
endfacet
facet normal -2.393157e-01 -1.172309e-17 -9.709418e-01
outer loop
vertex -7.347881e-16 1.500000e+01 2.000000e+00
vertex 0.000000e+00 0.000000e+00 2.000000e+00
vertex -1.394170e+00 0.000000e+00 2.343632e+00
endloop
endfacet
facet normal -8.028861e-01 0.000000e+00 -5.961325e-01
outer loop
vertex -2.345494e+00 0.000000e+00 3.129531e+00
vertex -2.468952e+00 0.000000e+00 3.295806e+00
vertex -2.468952e+00 1.500000e+01 3.295806e+00
endloop
endfacet
facet normal -9.154080e-01 0.000000e+00 -4.025272e-01
outer loop
vertex -2.924784e+00 1.500000e+01 4.332437e+00
vertex -2.468952e+00 1.500000e+01 3.295806e+00
vertex -2.468952e+00 0.000000e+00 3.295806e+00
endloop
endfacet
facet normal -9.986595e-01 0.000000e+00 5.176135e-02
outer loop
vertex -2.924784e+00 1.500000e+01 5.667563e+00
vertex -2.978127e+00 1.500000e+01 4.638390e+00
vertex -2.978127e+00 0.000000e+00 4.638390e+00
endloop
endfacet
facet normal -8.688880e-01 0.000000e+00 4.950088e-01
outer loop
vertex -2.345494e+00 1.500000e+01 6.870469e+00
vertex -2.805049e+00 1.500000e+01 6.063815e+00
vertex -2.805049e+00 0.000000e+00 6.063815e+00
endloop
endfacet
facet normal -5.537749e-01 0.000000e+00 8.326664e-01
outer loop
vertex -1.301651e+00 1.500000e+01 7.702907e+00
vertex -1.989368e+00 1.500000e+01 7.245532e+00
vertex -1.989368e+00 0.000000e+00 7.245532e+00
endloop
endfacet
facet normal -1.205367e-01 0.000000e+00 9.927089e-01
outer loop
vertex 3.673940e-16 1.500000e+01 8.000000e+00
vertex -7.179470e-01 1.500000e+01 7.912825e+00
vertex -7.179470e-01 0.000000e+00 7.912825e+00
endloop
endfacet
facet normal 3.384131e-01 0.000000e+00 9.409977e-01
outer loop
vertex 1.301651e+00 1.500000e+01 7.702907e+00
vertex 7.179470e-01 1.500000e+01 7.912825e+00
vertex 7.179470e-01 0.000000e+00 7.912825e+00
endloop
endfacet
facet normal 7.251763e-01 0.000000e+00 6.885632e-01
outer loop
vertex 2.345494e+00 1.500000e+01 6.870469e+00
vertex 1.989368e+00 1.500000e+01 7.245532e+00
vertex 1.989368e+00 0.000000e+00 7.245532e+00
endloop
endfacet
facet normal 9.572530e-01 0.000000e+00 2.892521e-01
outer loop
vertex 2.924784e+00 1.500000e+01 5.667563e+00
vertex 2.805049e+00 1.500000e+01 6.063815e+00
vertex 2.805049e+00 0.000000e+00 6.063815e+00
endloop
endfacet
facet normal 9.851390e-01 0.000000e+00 -1.717591e-01
outer loop
vertex 2.924784e+00 1.500000e+01 4.332437e+00
vertex 2.978127e+00 1.500000e+01 4.638390e+00
vertex 2.978127e+00 0.000000e+00 4.638390e+00
endloop
endfacet
facet normal 8.028861e-01 0.000000e+00 -5.961325e-01
outer loop
vertex 2.345494e+00 1.500000e+01 3.129531e+00
vertex 2.468952e+00 1.500000e+01 3.295806e+00
vertex 2.468952e+00 0.000000e+00 3.295806e+00
endloop
endfacet
facet normal 2.393157e-01 0.000000e+00 -9.709418e-01
outer loop
vertex 1.394170e+00 1.500000e+01 2.343632e+00
vertex 1.394170e+00 0.000000e+00 2.343632e+00
vertex 0.000000e+00 0.000000e+00 2.000000e+00
endloop
endfacet
facet normal -3.374081e-01 7.701119e-02 9.382031e-01
outer loop
vertex -1.172747e+00 1.556477e+01 7.702907e+00
vertex -1.301651e+00 1.500000e+01 7.702907e+00
vertex -7.179470e-01 1.500000e+01 7.912825e+00
endloop
endfacet
facet normal 1.163134e-01 2.623878e-01 9.579268e-01
outer loop
vertex 1.172747e+00 1.556477e+01 7.702907e+00
vertex 3.673940e-16 1.500000e+01 8.000000e+00
vertex 7.179470e-01 1.500000e+01 7.912825e+00
endloop
endfacet
facet normal -5.866533e-01 2.162346e-01 7.804361e-01
outer loop
vertex -1.172747e+00 1.556477e+01 7.702907e+00
vertex -2.113217e+00 1.601767e+01 6.870469e+00
vertex -1.989368e+00 1.500000e+01 7.245532e+00
endloop
endfacet
facet normal -7.154425e-01 1.632951e-01 6.793208e-01
outer loop
vertex -2.113217e+00 1.601767e+01 6.870469e+00
vertex -2.345494e+00 1.500000e+01 6.870469e+00
vertex -1.989368e+00 1.500000e+01 7.245532e+00
endloop
endfacet
facet normal -4.950128e-01 3.947595e-01 7.740331e-01
outer loop
vertex -2.113217e+00 1.601767e+01 6.870469e+00
vertex -1.172747e+00 1.556477e+01 7.702907e+00
vertex -8.115663e-01 1.601767e+01 7.702907e+00
endloop
endfacet
facet normal -2.747114e-01 5.704440e-01 7.740331e-01
outer loop
vertex -1.462392e+00 1.683378e+01 6.870469e+00
vertex -8.115663e-01 1.601767e+01 7.702907e+00
vertex -2.896446e-01 1.626902e+01 7.702907e+00
endloop
endfacet
facet normal 3.025001e-15 6.331451e-01 7.740331e-01
outer loop
vertex -5.219216e-01 1.728669e+01 6.870469e+00
vertex -2.896446e-01 1.626902e+01 7.702907e+00
vertex 2.896446e-01 1.626902e+01 7.702907e+00
endloop
endfacet
facet normal 2.747114e-01 5.704440e-01 7.740331e-01
outer loop
vertex 5.219216e-01 1.728669e+01 6.870469e+00
vertex 2.896446e-01 1.626902e+01 7.702907e+00
vertex 8.115663e-01 1.601767e+01 7.702907e+00
endloop
endfacet
facet normal 4.950128e-01 3.947595e-01 7.740331e-01
outer loop
vertex 1.462392e+00 1.683378e+01 6.870469e+00
vertex 8.115663e-01 1.601767e+01 7.702907e+00
vertex 1.172747e+00 1.556477e+01 7.702907e+00
endloop
endfacet
facet normal 5.494037e-01 1.253978e-01 8.260938e-01
outer loop
vertex 1.172747e+00 1.556477e+01 7.702907e+00
vertex 1.301651e+00 1.500000e+01 7.702907e+00
vertex 1.989368e+00 1.500000e+01 7.245532e+00
endloop
endfacet
facet normal 5.866533e-01 2.162346e-01 7.804361e-01
outer loop
vertex 1.989368e+00 1.500000e+01 7.245532e+00
vertex 2.113217e+00 1.601767e+01 6.870469e+00
vertex 1.172747e+00 1.556477e+01 7.702907e+00
endloop
endfacet
facet normal -8.680322e-01 2.501436e-01 4.288919e-01
outer loop
vertex -2.113217e+00 1.601767e+01 6.870469e+00
vertex -2.635139e+00 1.626902e+01 5.667563e+00
vertex -2.805049e+00 1.500000e+01 6.063815e+00
endloop
endfacet
facet normal -9.351918e-01 2.134514e-01 2.825859e-01
outer loop
vertex -2.635139e+00 1.626902e+01 5.667563e+00
vertex -2.924784e+00 1.500000e+01 5.667563e+00
vertex -2.805049e+00 1.500000e+01 6.063815e+00
endloop
endfacet
facet normal -7.077120e-01 5.643815e-01 4.249908e-01
outer loop
vertex -2.635139e+00 1.626902e+01 5.667563e+00
vertex -2.113217e+00 1.601767e+01 6.870469e+00
vertex -1.462392e+00 1.683378e+01 6.870469e+00
endloop
endfacet
facet normal -3.927506e-01 8.155549e-01 4.249908e-01
outer loop
vertex -1.823573e+00 1.728669e+01 5.667563e+00
vertex -1.462392e+00 1.683378e+01 6.870469e+00
vertex -5.219216e-01 1.728669e+01 6.870469e+00
endloop
endfacet
facet normal 0.000000e+00 9.051977e-01 4.249908e-01
outer loop
vertex -6.508256e-01 1.785145e+01 5.667563e+00
vertex -5.219216e-01 1.728669e+01 6.870469e+00
vertex 5.219216e-01 1.728669e+01 6.870469e+00
endloop
endfacet
facet normal 3.927506e-01 8.155549e-01 4.249908e-01
outer loop
vertex 6.508256e-01 1.785145e+01 5.667563e+00
vertex 5.219216e-01 1.728669e+01 6.870469e+00
vertex 1.462392e+00 1.683378e+01 6.870469e+00
endloop
endfacet
facet normal 7.077120e-01 5.643815e-01 4.249908e-01
outer loop
vertex 1.823573e+00 1.728669e+01 5.667563e+00
vertex 1.462392e+00 1.683378e+01 6.870469e+00
vertex 2.113217e+00 1.601767e+01 6.870469e+00
endloop
endfacet
facet normal 8.522893e-01 1.945295e-01 4.855525e-01
outer loop
vertex 2.113217e+00 1.601767e+01 6.870469e+00
vertex 2.345494e+00 1.500000e+01 6.870469e+00
vertex 2.805049e+00 1.500000e+01 6.063815e+00
endloop
endfacet
facet normal 8.680322e-01 2.501436e-01 4.288919e-01
outer loop
vertex 2.805049e+00 1.500000e+01 6.063815e+00
vertex 2.635139e+00 1.626902e+01 5.667563e+00
vertex 2.113217e+00 1.601767e+01 6.870469e+00
endloop
endfacet
facet normal -9.653614e-01 2.609163e-01 0.000000e+00
outer loop
vertex -2.635139e+00 1.626902e+01 5.667563e+00
vertex -2.635139e+00 1.626902e+01 4.332437e+00
vertex -2.978127e+00 1.500000e+01 4.638390e+00
endloop
endfacet
facet normal -9.611418e-01 2.193743e-01 -1.675751e-01
outer loop
vertex -2.635139e+00 1.626902e+01 4.332437e+00
vertex -2.924784e+00 1.500000e+01 4.332437e+00
vertex -2.978127e+00 1.500000e+01 4.638390e+00
endloop
endfacet
facet normal -7.818315e-01 6.234898e-01 0.000000e+00
outer loop
vertex -2.635139e+00 1.626902e+01 4.332437e+00
vertex -2.635139e+00 1.626902e+01 5.667563e+00
vertex -1.823573e+00 1.728669e+01 5.667563e+00
endloop
endfacet
facet normal -4.338837e-01 9.009689e-01 0.000000e+00
outer loop
vertex -1.823573e+00 1.728669e+01 4.332437e+00
vertex -1.823573e+00 1.728669e+01 5.667563e+00
vertex -6.508256e-01 1.785145e+01 5.667563e+00
endloop
endfacet
facet normal 0.000000e+00 1.000000e+00 0.000000e+00
outer loop
vertex -6.508256e-01 1.785145e+01 4.332437e+00
vertex -6.508256e-01 1.785145e+01 5.667563e+00
vertex 6.508256e-01 1.785145e+01 5.667563e+00
endloop
endfacet
facet normal 4.338837e-01 9.009689e-01 -0.000000e+00
outer loop
vertex 6.508256e-01 1.785145e+01 4.332437e+00
vertex 6.508256e-01 1.785145e+01 5.667563e+00
vertex 1.823573e+00 1.728669e+01 5.667563e+00
endloop
endfacet
facet normal 7.818315e-01 6.234898e-01 -0.000000e+00
outer loop
vertex 1.823573e+00 1.728669e+01 4.332437e+00
vertex 1.823573e+00 1.728669e+01 5.667563e+00
vertex 2.635139e+00 1.626902e+01 5.667563e+00
endloop
endfacet
facet normal 9.736856e-01 2.222374e-01 5.046694e-02
outer loop
vertex 2.635139e+00 1.626902e+01 5.667563e+00
vertex 2.924784e+00 1.500000e+01 5.667563e+00
vertex 2.978127e+00 1.500000e+01 4.638390e+00
endloop
endfacet
facet normal 9.653614e-01 2.609163e-01 0.000000e+00
outer loop
vertex 2.978127e+00 1.500000e+01 4.638390e+00
vertex 2.635139e+00 1.626902e+01 4.332437e+00
vertex 2.635139e+00 1.626902e+01 5.667563e+00
endloop
endfacet
facet normal -8.727398e-01 2.351738e-01 -4.278066e-01
outer loop
vertex -2.635139e+00 1.626902e+01 4.332437e+00
vertex -2.113217e+00 1.601767e+01 3.129531e+00
vertex -2.468952e+00 1.500000e+01 3.295806e+00
endloop
endfacet
facet normal -7.077120e-01 5.643815e-01 -4.249908e-01
outer loop
vertex -2.113217e+00 1.601767e+01 3.129531e+00
vertex -2.635139e+00 1.626902e+01 4.332437e+00
vertex -1.823573e+00 1.728669e+01 4.332437e+00
endloop
endfacet
facet normal -3.927506e-01 8.155549e-01 -4.249908e-01
outer loop
vertex -1.462392e+00 1.683378e+01 3.129531e+00
vertex -1.823573e+00 1.728669e+01 4.332437e+00
vertex -6.508256e-01 1.785145e+01 4.332437e+00
endloop
endfacet
facet normal 0.000000e+00 9.051977e-01 -4.249908e-01
outer loop
vertex -5.219216e-01 1.728669e+01 3.129531e+00
vertex -6.508256e-01 1.785145e+01 4.332437e+00
vertex 6.508256e-01 1.785145e+01 4.332437e+00
endloop
endfacet
facet normal 3.927506e-01 8.155549e-01 -4.249908e-01
outer loop
vertex 5.219216e-01 1.728669e+01 3.129531e+00
vertex 6.508256e-01 1.785145e+01 4.332437e+00
vertex 1.823573e+00 1.728669e+01 4.332437e+00
endloop
endfacet
facet normal 7.077120e-01 5.643815e-01 -4.249908e-01
outer loop
vertex 1.462392e+00 1.683378e+01 3.129531e+00
vertex 1.823573e+00 1.728669e+01 4.332437e+00
vertex 2.635139e+00 1.626902e+01 4.332437e+00
endloop
endfacet
facet normal 8.960586e-01 2.045195e-01 -3.940188e-01
outer loop
vertex 2.635139e+00 1.626902e+01 4.332437e+00
vertex 2.924784e+00 1.500000e+01 4.332437e+00
vertex 2.468952e+00 1.500000e+01 3.295806e+00
endloop
endfacet
facet normal 8.727398e-01 2.351738e-01 -4.278066e-01
outer loop
vertex 2.468952e+00 1.500000e+01 3.295806e+00
vertex 2.113217e+00 1.601767e+01 3.129531e+00
vertex 2.635139e+00 1.626902e+01 4.332437e+00
endloop
endfacet
facet normal -6.047543e-01 1.730413e-01 -7.773860e-01
outer loop
vertex -2.113217e+00 1.601767e+01 3.129531e+00
vertex -1.172747e+00 1.556477e+01 2.297093e+00
vertex -1.394170e+00 1.500000e+01 2.343632e+00
endloop
endfacet
facet normal -4.950128e-01 3.947595e-01 -7.740331e-01
outer loop
vertex -1.172747e+00 1.556477e+01 2.297093e+00
vertex -2.113217e+00 1.601767e+01 3.129531e+00
vertex -1.462392e+00 1.683378e+01 3.129531e+00
endloop
endfacet
facet normal -2.747114e-01 5.704440e-01 -7.740331e-01
outer loop
vertex -8.115663e-01 1.601767e+01 2.297093e+00
vertex -1.462392e+00 1.683378e+01 3.129531e+00
vertex -5.219216e-01 1.728669e+01 3.129531e+00
endloop
endfacet
facet normal 0.000000e+00 6.331451e-01 -7.740331e-01
outer loop
vertex -2.896446e-01 1.626902e+01 2.297093e+00
vertex -5.219216e-01 1.728669e+01 3.129531e+00
vertex 5.219216e-01 1.728669e+01 3.129531e+00
endloop
endfacet
facet normal 2.747114e-01 5.704440e-01 -7.740331e-01
outer loop
vertex 2.896446e-01 1.626902e+01 2.297093e+00
vertex 5.219216e-01 1.728669e+01 3.129531e+00
vertex 1.462392e+00 1.683378e+01 3.129531e+00
endloop
endfacet
facet normal 4.950128e-01 3.947595e-01 -7.740331e-01
outer loop
vertex 8.115663e-01 1.601767e+01 2.297093e+00
vertex 1.462392e+00 1.683378e+01 3.129531e+00
vertex 2.113217e+00 1.601767e+01 3.129531e+00
endloop
endfacet
facet normal 6.302674e-01 1.438544e-01 -7.629344e-01
outer loop
vertex 2.113217e+00 1.601767e+01 3.129531e+00
vertex 2.345494e+00 1.500000e+01 3.129531e+00
vertex 1.394170e+00 1.500000e+01 2.343632e+00
endloop
endfacet
facet normal 2.392928e-01 1.381614e-02 -9.708491e-01
outer loop
vertex -7.347881e-16 1.500000e+01 2.000000e+00
vertex 1.172747e+00 1.556477e+01 2.297093e+00
vertex 1.394170e+00 1.500000e+01 2.343632e+00
endloop
endfacet
facet normal 1.782182e-01 1.421243e-01 -9.736729e-01
outer loop
vertex -7.347881e-16 1.500000e+01 2.000000e+00
vertex 8.115663e-01 1.601767e+01 2.297093e+00
vertex 1.172747e+00 1.556477e+01 2.297093e+00
endloop
endfacet
facet normal 9.890365e-02 2.053756e-01 -9.736729e-01
outer loop
vertex -7.347881e-16 1.500000e+01 2.000000e+00
vertex 2.896446e-01 1.626902e+01 2.297093e+00
vertex 8.115663e-01 1.601767e+01 2.297093e+00
endloop
endfacet
facet normal 0.000000e+00 2.279497e-01 -9.736729e-01
outer loop
vertex -7.347881e-16 1.500000e+01 2.000000e+00
vertex -2.896446e-01 1.626902e+01 2.297093e+00
vertex 2.896446e-01 1.626902e+01 2.297093e+00
endloop
endfacet
facet normal -9.890365e-02 2.053756e-01 -9.736729e-01
outer loop
vertex -7.347881e-16 1.500000e+01 2.000000e+00
vertex -8.115663e-01 1.601767e+01 2.297093e+00
vertex -2.896446e-01 1.626902e+01 2.297093e+00
endloop
endfacet
facet normal -1.782182e-01 1.421243e-01 -9.736729e-01
outer loop
vertex -7.347881e-16 1.500000e+01 2.000000e+00
vertex -1.172747e+00 1.556477e+01 2.297093e+00
vertex -8.115663e-01 1.601767e+01 2.297093e+00
endloop
endfacet
facet normal -2.392928e-01 1.381614e-02 -9.708491e-01
outer loop
vertex -7.347881e-16 1.500000e+01 2.000000e+00
vertex -1.394170e+00 1.500000e+01 2.343632e+00
vertex -1.172747e+00 1.556477e+01 2.297093e+00
endloop
endfacet
facet normal 6.047543e-01 1.730413e-01 -7.773860e-01
outer loop
vertex 1.394170e+00 1.500000e+01 2.343632e+00
vertex 1.172747e+00 1.556477e+01 2.297093e+00
vertex 2.113217e+00 1.601767e+01 3.129531e+00
endloop
endfacet
facet normal 4.950128e-01 3.947595e-01 -7.740331e-01
outer loop
vertex 2.113217e+00 1.601767e+01 3.129531e+00
vertex 1.172747e+00 1.556477e+01 2.297093e+00
vertex 8.115663e-01 1.601767e+01 2.297093e+00
endloop
endfacet
facet normal 2.747114e-01 5.704440e-01 -7.740331e-01
outer loop
vertex 1.462392e+00 1.683378e+01 3.129531e+00
vertex 8.115663e-01 1.601767e+01 2.297093e+00
vertex 2.896446e-01 1.626902e+01 2.297093e+00
endloop
endfacet
facet normal 0.000000e+00 6.331451e-01 -7.740331e-01
outer loop
vertex 5.219216e-01 1.728669e+01 3.129531e+00
vertex 2.896446e-01 1.626902e+01 2.297093e+00
vertex -2.896446e-01 1.626902e+01 2.297093e+00
endloop
endfacet
facet normal -2.747114e-01 5.704440e-01 -7.740331e-01
outer loop
vertex -5.219216e-01 1.728669e+01 3.129531e+00
vertex -2.896446e-01 1.626902e+01 2.297093e+00
vertex -8.115663e-01 1.601767e+01 2.297093e+00
endloop
endfacet
facet normal -4.950128e-01 3.947595e-01 -7.740331e-01
outer loop
vertex -1.462392e+00 1.683378e+01 3.129531e+00
vertex -8.115663e-01 1.601767e+01 2.297093e+00
vertex -1.172747e+00 1.556477e+01 2.297093e+00
endloop
endfacet
facet normal -6.591824e-01 1.088509e-01 -7.440632e-01
outer loop
vertex -1.394170e+00 1.500000e+01 2.343632e+00
vertex -2.468952e+00 1.500000e+01 3.295806e+00
vertex -2.113217e+00 1.601767e+01 3.129531e+00
endloop
endfacet
facet normal 7.897352e-01 1.802519e-01 -5.863681e-01
outer loop
vertex 2.468952e+00 1.500000e+01 3.295806e+00
vertex 2.345494e+00 1.500000e+01 3.129531e+00
vertex 2.113217e+00 1.601767e+01 3.129531e+00
endloop
endfacet
facet normal 7.077120e-01 5.643815e-01 -4.249908e-01
outer loop
vertex 2.635139e+00 1.626902e+01 4.332437e+00
vertex 2.113217e+00 1.601767e+01 3.129531e+00
vertex 1.462392e+00 1.683378e+01 3.129531e+00
endloop
endfacet
facet normal 3.927506e-01 8.155549e-01 -4.249908e-01
outer loop
vertex 1.823573e+00 1.728669e+01 4.332437e+00
vertex 1.462392e+00 1.683378e+01 3.129531e+00
vertex 5.219216e-01 1.728669e+01 3.129531e+00
endloop
endfacet
facet normal 0.000000e+00 9.051977e-01 -4.249908e-01
outer loop
vertex 6.508256e-01 1.785145e+01 4.332437e+00
vertex 5.219216e-01 1.728669e+01 3.129531e+00
vertex -5.219216e-01 1.728669e+01 3.129531e+00
endloop
endfacet
facet normal -3.927506e-01 8.155549e-01 -4.249908e-01
outer loop
vertex -6.508256e-01 1.785145e+01 4.332437e+00
vertex -5.219216e-01 1.728669e+01 3.129531e+00
vertex -1.462392e+00 1.683378e+01 3.129531e+00
endloop
endfacet
facet normal -7.077120e-01 5.643815e-01 -4.249908e-01
outer loop
vertex -1.823573e+00 1.728669e+01 4.332437e+00
vertex -1.462392e+00 1.683378e+01 3.129531e+00
vertex -2.113217e+00 1.601767e+01 3.129531e+00
endloop
endfacet
facet normal -8.960586e-01 2.045195e-01 -3.940188e-01
outer loop
vertex -2.468952e+00 1.500000e+01 3.295806e+00
vertex -2.924784e+00 1.500000e+01 4.332437e+00
vertex -2.635139e+00 1.626902e+01 4.332437e+00
endloop
endfacet
facet normal 9.611418e-01 2.193743e-01 -1.675751e-01
outer loop
vertex 2.978127e+00 1.500000e+01 4.638390e+00
vertex 2.924784e+00 1.500000e+01 4.332437e+00
vertex 2.635139e+00 1.626902e+01 4.332437e+00
endloop
endfacet
facet normal 7.818315e-01 6.234898e-01 0.000000e+00
outer loop
vertex 2.635139e+00 1.626902e+01 5.667563e+00
vertex 2.635139e+00 1.626902e+01 4.332437e+00
vertex 1.823573e+00 1.728669e+01 4.332437e+00
endloop
endfacet
facet normal 4.338837e-01 9.009689e-01 0.000000e+00
outer loop
vertex 1.823573e+00 1.728669e+01 5.667563e+00
vertex 1.823573e+00 1.728669e+01 4.332437e+00
vertex 6.508256e-01 1.785145e+01 4.332437e+00
endloop
endfacet
facet normal 0.000000e+00 1.000000e+00 0.000000e+00
outer loop
vertex 6.508256e-01 1.785145e+01 5.667563e+00
vertex 6.508256e-01 1.785145e+01 4.332437e+00
vertex -6.508256e-01 1.785145e+01 4.332437e+00
endloop
endfacet
facet normal -4.338837e-01 9.009689e-01 0.000000e+00
outer loop
vertex -6.508256e-01 1.785145e+01 5.667563e+00
vertex -6.508256e-01 1.785145e+01 4.332437e+00
vertex -1.823573e+00 1.728669e+01 4.332437e+00
endloop
endfacet
facet normal -7.818315e-01 6.234898e-01 0.000000e+00
outer loop
vertex -1.823573e+00 1.728669e+01 5.667563e+00
vertex -1.823573e+00 1.728669e+01 4.332437e+00
vertex -2.635139e+00 1.626902e+01 4.332437e+00
endloop
endfacet
facet normal -9.736856e-01 2.222374e-01 5.046694e-02
outer loop
vertex -2.978127e+00 1.500000e+01 4.638390e+00
vertex -2.924784e+00 1.500000e+01 5.667563e+00
vertex -2.635139e+00 1.626902e+01 5.667563e+00
endloop
endfacet
facet normal 9.351918e-01 2.134514e-01 2.825859e-01
outer loop
vertex 2.805049e+00 1.500000e+01 6.063815e+00
vertex 2.924784e+00 1.500000e+01 5.667563e+00
vertex 2.635139e+00 1.626902e+01 5.667563e+00
endloop
endfacet
facet normal 7.077120e-01 5.643815e-01 4.249908e-01
outer loop
vertex 2.113217e+00 1.601767e+01 6.870469e+00
vertex 2.635139e+00 1.626902e+01 5.667563e+00
vertex 1.823573e+00 1.728669e+01 5.667563e+00
endloop
endfacet
facet normal 3.927506e-01 8.155549e-01 4.249908e-01
outer loop
vertex 1.462392e+00 1.683378e+01 6.870469e+00
vertex 1.823573e+00 1.728669e+01 5.667563e+00
vertex 6.508256e-01 1.785145e+01 5.667563e+00
endloop
endfacet
facet normal 0.000000e+00 9.051977e-01 4.249908e-01
outer loop
vertex 5.219216e-01 1.728669e+01 6.870469e+00
vertex 6.508256e-01 1.785145e+01 5.667563e+00
vertex -6.508256e-01 1.785145e+01 5.667563e+00
endloop
endfacet
facet normal -3.927506e-01 8.155549e-01 4.249908e-01
outer loop
vertex -5.219216e-01 1.728669e+01 6.870469e+00
vertex -6.508256e-01 1.785145e+01 5.667563e+00
vertex -1.823573e+00 1.728669e+01 5.667563e+00
endloop
endfacet
facet normal -7.077120e-01 5.643815e-01 4.249908e-01
outer loop
vertex -1.462392e+00 1.683378e+01 6.870469e+00
vertex -1.823573e+00 1.728669e+01 5.667563e+00
vertex -2.635139e+00 1.626902e+01 5.667563e+00
endloop
endfacet
facet normal -8.522893e-01 1.945295e-01 4.855525e-01
outer loop
vertex -2.805049e+00 1.500000e+01 6.063815e+00
vertex -2.345494e+00 1.500000e+01 6.870469e+00
vertex -2.113217e+00 1.601767e+01 6.870469e+00
endloop
endfacet
facet normal 7.154425e-01 1.632951e-01 6.793208e-01
outer loop
vertex 1.989368e+00 1.500000e+01 7.245532e+00
vertex 2.345494e+00 1.500000e+01 6.870469e+00
vertex 2.113217e+00 1.601767e+01 6.870469e+00
endloop
endfacet
facet normal 4.950128e-01 3.947595e-01 7.740331e-01
outer loop
vertex 1.172747e+00 1.556477e+01 7.702907e+00
vertex 2.113217e+00 1.601767e+01 6.870469e+00
vertex 1.462392e+00 1.683378e+01 6.870469e+00
endloop
endfacet
facet normal 2.747114e-01 5.704440e-01 7.740331e-01
outer loop
vertex 8.115663e-01 1.601767e+01 7.702907e+00
vertex 1.462392e+00 1.683378e+01 6.870469e+00
vertex 5.219216e-01 1.728669e+01 6.870469e+00
endloop
endfacet
facet normal 0.000000e+00 6.331451e-01 7.740331e-01
outer loop
vertex 2.896446e-01 1.626902e+01 7.702907e+00
vertex 5.219216e-01 1.728669e+01 6.870469e+00
vertex -5.219216e-01 1.728669e+01 6.870469e+00
endloop
endfacet
facet normal -2.747114e-01 5.704440e-01 7.740331e-01
outer loop
vertex -2.896446e-01 1.626902e+01 7.702907e+00
vertex -5.219216e-01 1.728669e+01 6.870469e+00
vertex -1.462392e+00 1.683378e+01 6.870469e+00
endloop
endfacet
facet normal -4.950128e-01 3.947595e-01 7.740331e-01
outer loop
vertex -8.115663e-01 1.601767e+01 7.702907e+00
vertex -1.462392e+00 1.683378e+01 6.870469e+00
vertex -2.113217e+00 1.601767e+01 6.870469e+00
endloop
endfacet
facet normal -5.494037e-01 1.253978e-01 8.260938e-01
outer loop
vertex -1.989368e+00 1.500000e+01 7.245532e+00
vertex -1.301651e+00 1.500000e+01 7.702907e+00
vertex -1.172747e+00 1.556477e+01 7.702907e+00
endloop
endfacet
facet normal 3.374081e-01 7.701119e-02 9.382031e-01
outer loop
vertex 7.179470e-01 1.500000e+01 7.912825e+00
vertex 1.301651e+00 1.500000e+01 7.702907e+00
vertex 1.172747e+00 1.556477e+01 7.702907e+00
endloop
endfacet
facet normal 1.782182e-01 1.421243e-01 9.736729e-01
outer loop
vertex 1.172747e+00 1.556477e+01 7.702907e+00
vertex 8.115663e-01 1.601767e+01 7.702907e+00
vertex 3.673940e-16 1.500000e+01 8.000000e+00
endloop
endfacet
facet normal 9.890365e-02 2.053756e-01 9.736729e-01
outer loop
vertex 8.115663e-01 1.601767e+01 7.702907e+00
vertex 2.896446e-01 1.626902e+01 7.702907e+00
vertex 3.673940e-16 1.500000e+01 8.000000e+00
endloop
endfacet
facet normal 1.092179e-15 2.279497e-01 9.736729e-01
outer loop
vertex 2.896446e-01 1.626902e+01 7.702907e+00
vertex -2.896446e-01 1.626902e+01 7.702907e+00
vertex 3.673940e-16 1.500000e+01 8.000000e+00
endloop
endfacet
facet normal -9.890365e-02 2.053756e-01 9.736729e-01
outer loop
vertex -2.896446e-01 1.626902e+01 7.702907e+00
vertex -8.115663e-01 1.601767e+01 7.702907e+00
vertex 3.673940e-16 1.500000e+01 8.000000e+00
endloop
endfacet
facet normal -1.782182e-01 1.421243e-01 9.736729e-01
outer loop
vertex -8.115663e-01 1.601767e+01 7.702907e+00
vertex -1.172747e+00 1.556477e+01 7.702907e+00
vertex 3.673940e-16 1.500000e+01 8.000000e+00
endloop
endfacet
facet normal -1.163134e-01 2.623878e-01 9.579268e-01
outer loop
vertex -7.179470e-01 1.500000e+01 7.912825e+00
vertex 3.673940e-16 1.500000e+01 8.000000e+00
vertex -1.172747e+00 1.556477e+01 7.702907e+00
endloop
endfacet
endsolid SHAPR3D_SOLID
