solid SHAPR3D_SOLID
facet normal 0.000000e+00 0.000000e+00 -1.000000e+00
outer loop
vertex 7.000000e+00 5.000000e-01 0.000000e+00
vertex 7.970942e+00 2.606843e-01 0.000000e+00
vertex 7.748511e+00 -1.631227e-01 0.000000e+00
endloop
endfacet
facet normal -0.000000e+00 0.000000e+00 -1.000000e+00
outer loop
vertex 7.748511e+00 -1.631227e-01 0.000000e+00
vertex 7.354605e+00 -4.350162e-01 0.000000e+00
vertex 7.000000e+00 5.000000e-01 0.000000e+00
endloop
endfacet
facet normal -0.000000e+00 0.000000e+00 -1.000000e+00
outer loop
vertex 7.354605e+00 -4.350162e-01 0.000000e+00
vertex 6.879463e+00 -4.927089e-01 0.000000e+00
vertex 7.000000e+00 5.000000e-01 0.000000e+00
endloop
endfacet
facet normal 0.000000e+00 0.000000e+00 -1.000000e+00
outer loop
vertex 6.879463e+00 -4.927089e-01 0.000000e+00
vertex 6.431935e+00 -3.229839e-01 0.000000e+00
vertex 7.000000e+00 5.000000e-01 0.000000e+00
endloop
endfacet
facet normal 0.000000e+00 0.000000e+00 -1.000000e+00
outer loop
vertex 6.431935e+00 -3.229839e-01 0.000000e+00
vertex 6.114544e+00 3.527683e-02 0.000000e+00
vertex 7.000000e+00 5.000000e-01 0.000000e+00
endloop
endfacet
facet normal 0.000000e+00 0.000000e+00 -1.000000e+00
outer loop
vertex 6.114544e+00 3.527683e-02 0.000000e+00
vertex 6.000000e+00 5.000000e-01 0.000000e+00
vertex 7.000000e+00 5.000000e-01 0.000000e+00
endloop
endfacet
facet normal 0.000000e+00 0.000000e+00 -1.000000e+00
outer loop
vertex 6.000000e+00 5.000000e-01 0.000000e+00
vertex 6.114544e+00 9.647232e-01 0.000000e+00
vertex 7.000000e+00 5.000000e-01 0.000000e+00
endloop
endfacet
facet normal 0.000000e+00 0.000000e+00 -1.000000e+00
outer loop
vertex 6.114544e+00 9.647232e-01 0.000000e+00
vertex 6.431935e+00 1.322984e+00 0.000000e+00
vertex 7.000000e+00 5.000000e-01 0.000000e+00
endloop
endfacet
facet normal 0.000000e+00 0.000000e+00 -1.000000e+00
outer loop
vertex 6.431935e+00 1.322984e+00 0.000000e+00
vertex 6.879463e+00 1.492709e+00 0.000000e+00
vertex 7.000000e+00 5.000000e-01 0.000000e+00
endloop
endfacet
facet normal 0.000000e+00 0.000000e+00 -1.000000e+00
outer loop
vertex 6.879463e+00 1.492709e+00 0.000000e+00
vertex 7.354605e+00 1.435016e+00 0.000000e+00
vertex 7.000000e+00 5.000000e-01 0.000000e+00
endloop
endfacet
facet normal 0.000000e+00 -0.000000e+00 -1.000000e+00
outer loop
vertex 7.354605e+00 1.435016e+00 0.000000e+00
vertex 7.748511e+00 1.163123e+00 0.000000e+00
vertex 7.000000e+00 5.000000e-01 0.000000e+00
endloop
endfacet
facet normal 0.000000e+00 -0.000000e+00 -1.000000e+00
outer loop
vertex 7.748511e+00 1.163123e+00 0.000000e+00
vertex 7.970942e+00 7.393157e-01 0.000000e+00
vertex 7.000000e+00 5.000000e-01 0.000000e+00
endloop
endfacet
facet normal 0.000000e+00 -0.000000e+00 -1.000000e+00
outer loop
vertex 7.970942e+00 7.393157e-01 0.000000e+00
vertex 8.000000e+00 5.000000e-01 0.000000e+00
vertex 7.000000e+00 5.000000e-01 0.000000e+00
endloop
endfacet
facet normal -0.000000e+00 0.000000e+00 -1.000000e+00
outer loop
vertex 8.000000e+00 5.000000e-01 0.000000e+00
vertex 7.970942e+00 2.606843e-01 0.000000e+00
vertex 7.000000e+00 5.000000e-01 0.000000e+00
endloop
endfacet
facet normal -9.708967e-01 2.393046e-01 -9.635955e-03
outer loop
vertex 6.114544e+00 9.647232e-01 0.000000e+00
vertex 6.000000e+00 5.000000e-01 0.000000e+00
vertex 6.025072e+00 7.225209e-01 3.000000e+00
endloop
endfacet
facet normal -9.937122e-01 1.119645e-01 0.000000e+00
outer loop
vertex 6.000000e+00 5.000000e-01 0.000000e+00
vertex 6.000000e+00 5.000000e-01 3.000000e+00
vertex 6.025072e+00 7.225209e-01 3.000000e+00
endloop
endfacet
facet normal -7.484788e-01 6.630944e-01 -9.238827e-03
outer loop
vertex 6.431935e+00 1.322984e+00 0.000000e+00
vertex 6.114544e+00 9.647232e-01 0.000000e+00
vertex 6.218169e+00 1.123490e+00 3.000000e+00
endloop
endfacet
facet normal -8.374148e-01 5.465678e-01 0.000000e+00
outer loop
vertex 6.114544e+00 9.647232e-01 0.000000e+00
vertex 6.114544e+00 9.647232e-01 3.000000e+00
vertex 6.218169e+00 1.123490e+00 3.000000e+00
endloop
endfacet
facet normal -3.545922e-01 9.349829e-01 -8.445033e-03
outer loop
vertex 6.879463e+00 1.492709e+00 0.000000e+00
vertex 6.431935e+00 1.322984e+00 0.000000e+00
vertex 6.566116e+00 1.400969e+00 3.000000e+00
endloop
endfacet
facet normal -5.024894e-01 8.645834e-01 0.000000e+00
outer loop
vertex 6.431935e+00 1.322984e+00 0.000000e+00
vertex 6.431935e+00 1.322984e+00 3.000000e+00
vertex 6.566116e+00 1.400969e+00 3.000000e+00
endloop
endfacet
facet normal 1.205335e-01 9.926827e-01 -7.255495e-03
outer loop
vertex 7.354605e+00 1.435016e+00 0.000000e+00
vertex 6.879463e+00 1.492709e+00 0.000000e+00
vertex 7.000000e+00 1.500000e+00 3.000000e+00
endloop
endfacet
facet normal -6.037850e-02 9.981756e-01 0.000000e+00
outer loop
vertex 6.879463e+00 1.492709e+00 0.000000e+00
vertex 6.879463e+00 1.492709e+00 3.000000e+00
vertex 7.000000e+00 1.500000e+00 3.000000e+00
endloop
endfacet
facet normal 5.680556e-01 8.229706e-01 -5.671602e-03
outer loop
vertex 7.748511e+00 1.163123e+00 0.000000e+00
vertex 7.354605e+00 1.435016e+00 0.000000e+00
vertex 7.433884e+00 1.400969e+00 3.000000e+00
endloop
endfacet
facet normal 3.946117e-01 9.188480e-01 -0.000000e+00
outer loop
vertex 7.354605e+00 1.435016e+00 0.000000e+00
vertex 7.354605e+00 1.435016e+00 3.000000e+00
vertex 7.433884e+00 1.400969e+00 3.000000e+00
endloop
endfacet
facet normal 8.854500e-01 4.647200e-01 -3.695221e-03
outer loop
vertex 7.970942e+00 7.393157e-01 0.000000e+00
vertex 7.748511e+00 1.163123e+00 0.000000e+00
vertex 7.781831e+00 1.123490e+00 3.000000e+00
endloop
endfacet
facet normal 7.654277e-01 6.435219e-01 -0.000000e+00
outer loop
vertex 7.748511e+00 1.163123e+00 0.000000e+00
vertex 7.748511e+00 1.163123e+00 3.000000e+00
vertex 7.781831e+00 1.123490e+00 3.000000e+00
endloop
endfacet
facet normal 9.937122e-01 -1.119645e-01 9.711370e-18
outer loop
vertex 8.000000e+00 5.000000e-01 0.000000e+00
vertex 8.000000e+00 5.000000e-01 3.000000e+00
vertex 7.974928e+00 2.774791e-01 3.000000e+00
endloop
endfacet
facet normal 9.927087e-01 -1.205367e-01 -6.442167e-04
outer loop
vertex 7.974928e+00 2.774791e-01 3.000000e+00
vertex 7.970942e+00 2.606843e-01 0.000000e+00
vertex 8.000000e+00 5.000000e-01 0.000000e+00
endloop
endfacet
facet normal 9.927089e-01 1.205367e-01 -1.024797e-17
outer loop
vertex 7.970942e+00 7.393157e-01 3.000000e+00
vertex 8.000000e+00 5.000000e-01 3.000000e+00
vertex 8.000000e+00 5.000000e-01 0.000000e+00
endloop
endfacet
facet normal 9.927089e-01 1.205367e-01 0.000000e+00
outer loop
vertex 8.000000e+00 5.000000e-01 0.000000e+00
vertex 7.970942e+00 7.393157e-01 0.000000e+00
vertex 7.970942e+00 7.393157e-01 3.000000e+00
endloop
endfacet
facet normal 8.971906e-01 -4.416435e-01 0.000000e+00
outer loop
vertex 7.970942e+00 2.606843e-01 0.000000e+00
vertex 7.970942e+00 2.606843e-01 3.000000e+00
vertex 7.781831e+00 -1.234898e-01 3.000000e+00
endloop
endfacet
facet normal 8.854500e-01 -4.647200e-01 -3.695221e-03
outer loop
vertex 7.781831e+00 -1.234898e-01 3.000000e+00
vertex 7.748511e+00 -1.631227e-01 0.000000e+00
vertex 7.970942e+00 2.606843e-01 0.000000e+00
endloop
endfacet
facet normal 6.030397e-01 -7.977112e-01 0.000000e+00
outer loop
vertex 7.748511e+00 -1.631227e-01 0.000000e+00
vertex 7.748511e+00 -1.631227e-01 3.000000e+00
vertex 7.433884e+00 -4.009689e-01 3.000000e+00
endloop
endfacet
facet normal 5.680556e-01 -8.229706e-01 -5.671602e-03
outer loop
vertex 7.433884e+00 -4.009689e-01 3.000000e+00
vertex 7.354605e+00 -4.350162e-01 0.000000e+00
vertex 7.748511e+00 -1.631227e-01 0.000000e+00
endloop
endfacet
facet normal 1.802550e-01 -9.836199e-01 0.000000e+00
outer loop
vertex 7.354605e+00 -4.350162e-01 0.000000e+00
vertex 7.354605e+00 -4.350162e-01 3.000000e+00
vertex 7.000000e+00 -5.000000e-01 3.000000e+00
endloop
endfacet
facet normal 1.205335e-01 -9.926827e-01 -7.255495e-03
outer loop
vertex 7.000000e+00 -5.000000e-01 3.000000e+00
vertex 6.879463e+00 -4.927089e-01 0.000000e+00
vertex 7.354605e+00 -4.350162e-01 0.000000e+00
endloop
endfacet
facet normal -2.809796e-01 -9.597137e-01 0.000000e+00
outer loop
vertex 6.879463e+00 -4.927089e-01 0.000000e+00
vertex 6.879463e+00 -4.927089e-01 3.000000e+00
vertex 6.566116e+00 -4.009689e-01 3.000000e+00
endloop
endfacet
facet normal -3.545922e-01 -9.349829e-01 -8.445033e-03
outer loop
vertex 6.566116e+00 -4.009689e-01 3.000000e+00
vertex 6.431935e+00 -3.229839e-01 0.000000e+00
vertex 6.879463e+00 -4.927089e-01 0.000000e+00
endloop
endfacet
facet normal -6.822788e-01 -7.310920e-01 0.000000e+00
outer loop
vertex 6.431935e+00 -3.229839e-01 0.000000e+00
vertex 6.431935e+00 -3.229839e-01 3.000000e+00
vertex 6.218169e+00 -1.234898e-01 3.000000e+00
endloop
endfacet
facet normal -7.484788e-01 -6.630944e-01 -9.238827e-03
outer loop
vertex 6.218169e+00 -1.234898e-01 3.000000e+00
vertex 6.114544e+00 3.527683e-02 0.000000e+00
vertex 6.431935e+00 -3.229839e-01 0.000000e+00
endloop
endfacet
facet normal -9.380419e-01 -3.465219e-01 0.000000e+00
outer loop
vertex 6.114544e+00 3.527683e-02 0.000000e+00
vertex 6.114544e+00 3.527683e-02 3.000000e+00
vertex 6.025072e+00 2.774791e-01 3.000000e+00
endloop
endfacet
facet normal -9.708967e-01 -2.393046e-01 -9.635955e-03
outer loop
vertex 6.025072e+00 2.774791e-01 3.000000e+00
vertex 6.000000e+00 5.000000e-01 0.000000e+00
vertex 6.114544e+00 3.527683e-02 0.000000e+00
endloop
endfacet
facet normal -9.937122e-01 -1.119645e-01 0.000000e+00
outer loop
vertex 6.025072e+00 2.774791e-01 3.000000e+00
vertex 6.000000e+00 5.000000e-01 3.000000e+00
vertex 6.000000e+00 5.000000e-01 0.000000e+00
endloop
endfacet
facet normal -8.374148e-01 -5.465678e-01 0.000000e+00
outer loop
vertex 6.218169e+00 -1.234898e-01 3.000000e+00
vertex 6.114544e+00 3.527683e-02 3.000000e+00
vertex 6.114544e+00 3.527683e-02 0.000000e+00
endloop
endfacet
facet normal -5.024894e-01 -8.645834e-01 0.000000e+00
outer loop
vertex 6.566116e+00 -4.009689e-01 3.000000e+00
vertex 6.431935e+00 -3.229839e-01 3.000000e+00
vertex 6.431935e+00 -3.229839e-01 0.000000e+00
endloop
endfacet
facet normal -6.037850e-02 -9.981756e-01 0.000000e+00
outer loop
vertex 7.000000e+00 -5.000000e-01 3.000000e+00
vertex 6.879463e+00 -4.927089e-01 3.000000e+00
vertex 6.879463e+00 -4.927089e-01 0.000000e+00
endloop
endfacet
facet normal 3.946117e-01 -9.188480e-01 0.000000e+00
outer loop
vertex 7.433884e+00 -4.009689e-01 3.000000e+00
vertex 7.354605e+00 -4.350162e-01 3.000000e+00
vertex 7.354605e+00 -4.350162e-01 0.000000e+00
endloop
endfacet
facet normal 7.654277e-01 -6.435219e-01 0.000000e+00
outer loop
vertex 7.781831e+00 -1.234898e-01 3.000000e+00
vertex 7.748511e+00 -1.631227e-01 3.000000e+00
vertex 7.748511e+00 -1.631227e-01 0.000000e+00
endloop
endfacet
facet normal 9.729711e-01 -2.309269e-01 0.000000e+00
outer loop
vertex 7.974928e+00 2.774791e-01 3.000000e+00
vertex 7.970942e+00 2.606843e-01 3.000000e+00
vertex 7.970942e+00 2.606843e-01 0.000000e+00
endloop
endfacet
facet normal 8.971906e-01 4.416435e-01 0.000000e+00
outer loop
vertex 7.781831e+00 1.123490e+00 3.000000e+00
vertex 7.970942e+00 7.393157e-01 3.000000e+00
vertex 7.970942e+00 7.393157e-01 0.000000e+00
endloop
endfacet
facet normal 6.030397e-01 7.977112e-01 0.000000e+00
outer loop
vertex 7.433884e+00 1.400969e+00 3.000000e+00
vertex 7.748511e+00 1.163123e+00 3.000000e+00
vertex 7.748511e+00 1.163123e+00 0.000000e+00
endloop
endfacet
facet normal 1.802550e-01 9.836199e-01 0.000000e+00
outer loop
vertex 7.000000e+00 1.500000e+00 3.000000e+00
vertex 7.354605e+00 1.435016e+00 3.000000e+00
vertex 7.354605e+00 1.435016e+00 0.000000e+00
endloop
endfacet
facet normal -2.809796e-01 9.597137e-01 0.000000e+00
outer loop
vertex 6.566116e+00 1.400969e+00 3.000000e+00
vertex 6.879463e+00 1.492709e+00 3.000000e+00
vertex 6.879463e+00 1.492709e+00 0.000000e+00
endloop
endfacet
facet normal -6.822788e-01 7.310920e-01 0.000000e+00
outer loop
vertex 6.218169e+00 1.123490e+00 3.000000e+00
vertex 6.431935e+00 1.322984e+00 3.000000e+00
vertex 6.431935e+00 1.322984e+00 0.000000e+00
endloop
endfacet
facet normal -9.380419e-01 3.465219e-01 0.000000e+00
outer loop
vertex 6.025072e+00 7.225209e-01 3.000000e+00
vertex 6.114544e+00 9.647232e-01 3.000000e+00
vertex 6.114544e+00 9.647232e-01 0.000000e+00
endloop
endfacet
facet normal 3.930208e-01 9.151436e-01 8.970443e-02
outer loop
vertex 7.390916e+00 1.400969e+00 3.188255e+00
vertex 7.433884e+00 1.400969e+00 3.000000e+00
vertex 7.354605e+00 1.435016e+00 3.000000e+00
endloop
endfacet
facet normal -5.606562e-02 9.268752e-01 3.711590e-01
outer loop
vertex 6.609084e+00 1.400969e+00 3.188255e+00
vertex 7.000000e+00 1.500000e+00 3.000000e+00
vertex 6.879463e+00 1.492709e+00 3.000000e+00
endloop
endfacet
facet normal 5.943519e-01 7.862187e-01 1.691329e-01
outer loop
vertex 7.704406e+00 1.123490e+00 3.339224e+00
vertex 7.748511e+00 1.163123e+00 3.000000e+00
vertex 7.433884e+00 1.400969e+00 3.000000e+00
endloop
endfacet
facet normal 7.540075e-01 6.339206e-01 1.720973e-01
outer loop
vertex 7.704406e+00 1.123490e+00 3.339224e+00
vertex 7.781831e+00 1.123490e+00 3.000000e+00
vertex 7.748511e+00 1.163123e+00 3.000000e+00
endloop
endfacet
facet normal 4.950128e-01 7.740331e-01 3.947595e-01
outer loop
vertex 7.704406e+00 1.123490e+00 3.339224e+00
vertex 7.390916e+00 1.400969e+00 3.188255e+00
vertex 7.270522e+00 1.400969e+00 3.339224e+00
endloop
endfacet
facet normal -4.950128e-01 7.740331e-01 3.947595e-01
outer loop
vertex 6.512536e+00 1.123490e+00 3.611260e+00
vertex 6.729478e+00 1.400969e+00 3.339224e+00
vertex 6.609084e+00 1.400969e+00 3.188255e+00
endloop
endfacet
facet normal -4.992168e-01 8.589526e-01 1.139430e-01
outer loop
vertex 6.609084e+00 1.400969e+00 3.188255e+00
vertex 6.566116e+00 1.400969e+00 3.000000e+00
vertex 6.431935e+00 1.322984e+00 3.000000e+00
endloop
endfacet
facet normal -5.828129e-01 7.808462e-01 2.249630e-01
outer loop
vertex 6.431935e+00 1.322984e+00 3.000000e+00
vertex 6.295594e+00 1.123490e+00 3.339224e+00
vertex 6.609084e+00 1.400969e+00 3.188255e+00
endloop
endfacet
facet normal 8.773519e-01 4.318779e-01 2.091293e-01
outer loop
vertex 7.878380e+00 7.225209e-01 3.423005e+00
vertex 7.970942e+00 7.393157e-01 3.000000e+00
vertex 7.781831e+00 1.123490e+00 3.000000e+00
endloop
endfacet
facet normal 7.077120e-01 4.249908e-01 5.643815e-01
outer loop
vertex 7.878380e+00 7.225209e-01 3.423005e+00
vertex 7.704406e+00 1.123490e+00 3.339224e+00
vertex 7.487464e+00 1.123490e+00 3.611260e+00
endloop
endfacet
facet normal 3.927506e-01 4.249908e-01 8.155549e-01
outer loop
vertex 7.607858e+00 7.225209e-01 3.762229e+00
vertex 7.487464e+00 1.123490e+00 3.611260e+00
vertex 7.173974e+00 1.123490e+00 3.762229e+00
endloop
endfacet
facet normal -7.077120e-01 4.249908e-01 5.643815e-01
outer loop
vertex 6.392142e+00 7.225209e-01 3.762229e+00
vertex 6.512536e+00 1.123490e+00 3.611260e+00
vertex 6.295594e+00 1.123490e+00 3.339224e+00
endloop
endfacet
facet normal -8.225252e-01 5.368496e-01 1.877360e-01
outer loop
vertex 6.295594e+00 1.123490e+00 3.339224e+00
vertex 6.218169e+00 1.123490e+00 3.000000e+00
vertex 6.114544e+00 9.647232e-01 3.000000e+00
endloop
endfacet
facet normal -8.646608e-01 4.295785e-01 2.604305e-01
outer loop
vertex 6.114544e+00 9.647232e-01 3.000000e+00
vertex 6.121620e+00 7.225209e-01 3.423005e+00
vertex 6.295594e+00 1.123490e+00 3.339224e+00
endloop
endfacet
facet normal 9.610655e-01 0.000000e+00 2.763206e-01
outer loop
vertex 7.878380e+00 7.225209e-01 3.423005e+00
vertex 7.878380e+00 2.774791e-01 3.423005e+00
vertex 8.000000e+00 5.000000e-01 3.000000e+00
endloop
endfacet
facet normal 9.690986e-01 -1.091912e-01 2.211904e-01
outer loop
vertex 7.878380e+00 2.774791e-01 3.423005e+00
vertex 7.974928e+00 2.774791e-01 3.000000e+00
vertex 8.000000e+00 5.000000e-01 3.000000e+00
endloop
endfacet
facet normal 7.818315e-01 -0.000000e+00 6.234898e-01
outer loop
vertex 7.878380e+00 2.774791e-01 3.423005e+00
vertex 7.878380e+00 7.225209e-01 3.423005e+00
vertex 7.607858e+00 7.225209e-01 3.762229e+00
endloop
endfacet
facet normal 4.338837e-01 -0.000000e+00 9.009689e-01
outer loop
vertex 7.607858e+00 2.774791e-01 3.762229e+00
vertex 7.607858e+00 7.225209e-01 3.762229e+00
vertex 7.216942e+00 7.225209e-01 3.950484e+00
endloop
endfacet
facet normal 0.000000e+00 -0.000000e+00 1.000000e+00
outer loop
vertex 7.216942e+00 2.774791e-01 3.950484e+00
vertex 7.216942e+00 7.225209e-01 3.950484e+00
vertex 6.783058e+00 7.225209e-01 3.950484e+00
endloop
endfacet
facet normal -4.338837e-01 0.000000e+00 9.009689e-01
outer loop
vertex 6.783058e+00 2.774791e-01 3.950484e+00
vertex 6.783058e+00 7.225209e-01 3.950484e+00
vertex 6.392142e+00 7.225209e-01 3.762229e+00
endloop
endfacet
facet normal -7.818315e-01 0.000000e+00 6.234898e-01
outer loop
vertex 6.392142e+00 2.774791e-01 3.762229e+00
vertex 6.392142e+00 7.225209e-01 3.762229e+00
vertex 6.121620e+00 7.225209e-01 3.423005e+00
endloop
endfacet
facet normal -9.690986e-01 1.091912e-01 2.211904e-01
outer loop
vertex 6.121620e+00 7.225209e-01 3.423005e+00
vertex 6.025072e+00 7.225209e-01 3.000000e+00
vertex 6.000000e+00 5.000000e-01 3.000000e+00
endloop
endfacet
facet normal -9.610655e-01 0.000000e+00 2.763206e-01
outer loop
vertex 6.000000e+00 5.000000e-01 3.000000e+00
vertex 6.121620e+00 2.774791e-01 3.423005e+00
vertex 6.121620e+00 7.225209e-01 3.423005e+00
endloop
endfacet
facet normal 8.825025e-01 -4.249908e-01 2.014254e-01
outer loop
vertex 7.878380e+00 2.774791e-01 3.423005e+00
vertex 7.704406e+00 -1.234898e-01 3.339224e+00
vertex 7.781831e+00 -1.234898e-01 3.000000e+00
endloop
endfacet
facet normal 8.773519e-01 -4.318779e-01 2.091293e-01
outer loop
vertex 7.781831e+00 -1.234898e-01 3.000000e+00
vertex 7.970942e+00 2.606843e-01 3.000000e+00
vertex 7.878380e+00 2.774791e-01 3.423005e+00
endloop
endfacet
facet normal 7.077120e-01 -4.249908e-01 5.643815e-01
outer loop
vertex 7.704406e+00 -1.234898e-01 3.339224e+00
vertex 7.878380e+00 2.774791e-01 3.423005e+00
vertex 7.607858e+00 2.774791e-01 3.762229e+00
endloop
endfacet
facet normal 3.927506e-01 -4.249908e-01 8.155549e-01
outer loop
vertex 7.487464e+00 -1.234898e-01 3.611260e+00
vertex 7.607858e+00 2.774791e-01 3.762229e+00
vertex 7.216942e+00 2.774791e-01 3.950484e+00
endloop
endfacet
facet normal -7.077120e-01 -4.249908e-01 5.643815e-01
outer loop
vertex 6.512536e+00 -1.234898e-01 3.611260e+00
vertex 6.392142e+00 2.774791e-01 3.762229e+00
vertex 6.121620e+00 2.774791e-01 3.423005e+00
endloop
endfacet
facet normal -8.646608e-01 -4.295785e-01 2.604305e-01
outer loop
vertex 6.295594e+00 -1.234898e-01 3.339224e+00
vertex 6.121620e+00 2.774791e-01 3.423005e+00
vertex 6.114544e+00 3.527683e-02 3.000000e+00
endloop
endfacet
facet normal -9.172541e-01 -3.388427e-01 2.093573e-01
outer loop
vertex 6.121620e+00 2.774791e-01 3.423005e+00
vertex 6.025072e+00 2.774791e-01 3.000000e+00
vertex 6.114544e+00 3.527683e-02 3.000000e+00
endloop
endfacet
facet normal 6.172708e-01 -7.740331e-01 1.408880e-01
outer loop
vertex 7.704406e+00 -1.234898e-01 3.339224e+00
vertex 7.390916e+00 -4.009689e-01 3.188255e+00
vertex 7.433884e+00 -4.009689e-01 3.000000e+00
endloop
endfacet
facet normal 5.943519e-01 -7.862187e-01 1.691329e-01
outer loop
vertex 7.433884e+00 -4.009689e-01 3.000000e+00
vertex 7.748511e+00 -1.631227e-01 3.000000e+00
vertex 7.704406e+00 -1.234898e-01 3.339224e+00
endloop
endfacet
facet normal 4.950128e-01 -7.740331e-01 3.947595e-01
outer loop
vertex 7.390916e+00 -4.009689e-01 3.188255e+00
vertex 7.704406e+00 -1.234898e-01 3.339224e+00
vertex 7.487464e+00 -1.234898e-01 3.611260e+00
endloop
endfacet
facet normal -4.950128e-01 -7.740331e-01 3.947595e-01
outer loop
vertex 6.729478e+00 -4.009689e-01 3.339224e+00
vertex 6.512536e+00 -1.234898e-01 3.611260e+00
vertex 6.295594e+00 -1.234898e-01 3.339224e+00
endloop
endfacet
facet normal -5.828129e-01 -7.808462e-01 2.249630e-01
outer loop
vertex 6.609084e+00 -4.009689e-01 3.188255e+00
vertex 6.295594e+00 -1.234898e-01 3.339224e+00
vertex 6.431935e+00 -3.229839e-01 3.000000e+00
endloop
endfacet
facet normal -6.741535e-01 -7.223854e-01 1.538711e-01
outer loop
vertex 6.295594e+00 -1.234898e-01 3.339224e+00
vertex 6.218169e+00 -1.234898e-01 3.000000e+00
vertex 6.431935e+00 -3.229839e-01 3.000000e+00
endloop
endfacet
facet normal 1.784366e-01 -9.736972e-01 1.416835e-01
outer loop
vertex 7.390916e+00 -4.009689e-01 3.188255e+00
vertex 7.000000e+00 -5.000000e-01 3.000000e+00
vertex 7.354605e+00 -4.350162e-01 3.000000e+00
endloop
endfacet
facet normal -2.804036e-01 -9.577462e-01 6.400029e-02
outer loop
vertex 6.609084e+00 -4.009689e-01 3.188255e+00
vertex 6.566116e+00 -4.009689e-01 3.000000e+00
vertex 6.879463e+00 -4.927089e-01 3.000000e+00
endloop
endfacet
facet normal -3.829284e-01 -3.735960e-01 8.448620e-01
outer loop
vertex 6.392142e+00 2.774791e-01 3.762229e+00
vertex 6.732953e+00 -1.118268e-01 3.744549e+00
vertex 6.788636e+00 -8.938744e-02 3.779710e+00
endloop
endfacet
facet normal -4.521153e-01 -4.299845e-01 7.814762e-01
outer loop
vertex 6.392142e+00 2.774791e-01 3.762229e+00
vertex 6.512536e+00 -1.234898e-01 3.611260e+00
vertex 6.715852e+00 -1.217825e-01 3.729826e+00
endloop
endfacet
facet normal -4.389712e-01 -4.203528e-01 7.941082e-01
outer loop
vertex 6.715852e+00 -1.217825e-01 3.729826e+00
vertex 6.732953e+00 -1.118268e-01 3.744549e+00
vertex 6.392142e+00 2.774791e-01 3.762229e+00
endloop
endfacet
facet normal -3.991738e-01 -3.919143e-01 8.288929e-01
outer loop
vertex 6.788636e+00 -8.938744e-02 3.779710e+00
vertex 6.783058e+00 2.774791e-01 3.950484e+00
vertex 6.392142e+00 2.774791e-01 3.762229e+00
endloop
endfacet
facet normal 0.000000e+00 -3.648226e-01 9.310771e-01
outer loop
vertex 7.216942e+00 2.774791e-01 3.950484e+00
vertex 6.783058e+00 2.774791e-01 3.950484e+00
vertex 6.920804e+00 -8.105913e-02 3.809999e+00
endloop
endfacet
facet normal 1.713654e-02 -3.770076e-01 9.260516e-01
outer loop
vertex 6.920804e+00 -8.105913e-02 3.809999e+00
vertex 6.986756e+00 -9.653421e-02 3.802478e+00
vertex 7.216942e+00 2.774791e-01 3.950484e+00
endloop
endfacet
facet normal -2.104665e-01 -4.105468e-01 8.872177e-01
outer loop
vertex 6.783058e+00 2.774791e-01 3.950484e+00
vertex 6.818732e+00 -8.245874e-02 3.792391e+00
vertex 6.853244e+00 -7.835202e-02 3.802478e+00
endloop
endfacet
facet normal -1.172042e-01 -4.010205e-01 9.085405e-01
outer loop
vertex 6.853244e+00 -7.835202e-02 3.802478e+00
vertex 6.920804e+00 -8.105913e-02 3.809999e+00
vertex 6.783058e+00 2.774791e-01 3.950484e+00
endloop
endfacet
facet normal 9.132754e-02 -5.772790e-01 8.114236e-01
outer loop
vertex 7.173974e+00 -1.234898e-01 3.762229e+00
vertex 6.986756e+00 -9.653421e-02 3.802478e+00
vertex 7.107047e+00 -1.589287e-01 3.744549e+00
endloop
endfacet
facet normal 3.303091e-01 -6.484175e-01 6.858940e-01
outer loop
vertex 7.487464e+00 -1.234898e-01 3.611260e+00
vertex 7.173974e+00 -1.234898e-01 3.762229e+00
vertex 7.190291e+00 -2.442970e-01 3.640165e+00
endloop
endfacet
facet normal 3.554665e-01 -7.368068e-01 5.751168e-01
outer loop
vertex 7.190291e+00 -2.442970e-01 3.640165e+00
vertex 7.220000e+00 -3.315648e-01 3.510000e+00
vertex 7.487464e+00 -1.234898e-01 3.611260e+00
endloop
endfacet
facet normal 4.378933e-01 -7.802344e-01 4.466360e-01
outer loop
vertex 7.220000e+00 -3.315648e-01 3.510000e+00
vertex 7.270522e+00 -4.009689e-01 3.339224e+00
vertex 7.487464e+00 -1.234898e-01 3.611260e+00
endloop
endfacet
facet normal 0.000000e+00 -8.880136e-01 4.598171e-01
outer loop
vertex 6.914581e+00 -3.559227e-01 3.510000e+00
vertex 6.903452e+00 -4.009689e-01 3.423005e+00
vertex 7.096548e+00 -4.009689e-01 3.423005e+00
endloop
endfacet
facet normal 6.566562e-02 -8.233678e-01 5.636962e-01
outer loop
vertex 7.096548e+00 -4.009689e-01 3.423005e+00
vertex 7.220000e+00 -3.315648e-01 3.510000e+00
vertex 6.914581e+00 -3.559227e-01 3.510000e+00
endloop
endfacet
facet normal -4.279649e-01 -7.005296e-01 5.710555e-01
outer loop
vertex 6.512536e+00 -1.234898e-01 3.611260e+00
vertex 6.620000e+00 -2.716865e-01 3.510000e+00
vertex 6.649709e+00 -1.837288e-01 3.640165e+00
endloop
endfacet
facet normal -8.481402e-01 -5.044507e-01 -1.618261e-01
outer loop
vertex 6.512536e+00 -1.234898e-01 3.611260e+00
vertex 6.729478e+00 -4.009689e-01 3.339224e+00
vertex 6.620000e+00 -2.716865e-01 3.510000e+00
endloop
endfacet
facet normal -2.107488e-01 -8.741108e-01 4.376245e-01
outer loop
vertex 6.729478e+00 -4.009689e-01 3.339224e+00
vertex 6.903452e+00 -4.009689e-01 3.423005e+00
vertex 6.880022e+00 -3.517660e-01 3.510000e+00
endloop
endfacet
facet normal -2.595435e-01 -8.427501e-01 4.716030e-01
outer loop
vertex 6.880022e+00 -3.517660e-01 3.510000e+00
vertex 6.620000e+00 -2.716865e-01 3.510000e+00
vertex 6.729478e+00 -4.009689e-01 3.339224e+00
endloop
endfacet
facet normal 1.779886e-01 6.874091e-01 7.041228e-01
outer loop
vertex 7.173974e+00 1.123490e+00 3.762229e+00
vertex 7.190291e+00 1.244297e+00 3.640165e+00
vertex 7.107047e+00 1.158929e+00 3.744549e+00
endloop
endfacet
facet normal -1.172323e-01 4.010239e-01 9.085353e-01
outer loop
vertex 6.783058e+00 7.225209e-01 3.950484e+00
vertex 6.920773e+00 1.081055e+00 3.809999e+00
vertex 6.853244e+00 1.078352e+00 3.802478e+00
endloop
endfacet
facet normal 1.710948e-02 3.769934e-01 9.260579e-01
outer loop
vertex 7.216942e+00 7.225209e-01 3.950484e+00
vertex 6.986756e+00 1.096534e+00 3.802478e+00
vertex 6.920773e+00 1.081055e+00 3.809999e+00
endloop
endfacet
facet normal 1.294953e-01 4.327490e-01 8.921655e-01
outer loop
vertex 7.216942e+00 7.225209e-01 3.950484e+00
vertex 7.173974e+00 1.123490e+00 3.762229e+00
vertex 6.986756e+00 1.096534e+00 3.802478e+00
endloop
endfacet
facet normal 0.000000e+00 3.648262e-01 9.310757e-01
outer loop
vertex 6.920773e+00 1.081055e+00 3.809999e+00
vertex 6.783058e+00 7.225209e-01 3.950484e+00
vertex 7.216942e+00 7.225209e-01 3.950484e+00
endloop
endfacet
facet normal -4.389712e-01 4.203528e-01 7.941082e-01
outer loop
vertex 6.392142e+00 7.225209e-01 3.762229e+00
vertex 6.732953e+00 1.111827e+00 3.744549e+00
vertex 6.715852e+00 1.121782e+00 3.729826e+00
endloop
endfacet
facet normal -3.991745e-01 3.919107e-01 8.288943e-01
outer loop
vertex 6.392142e+00 7.225209e-01 3.762229e+00
vertex 6.783058e+00 7.225209e-01 3.950484e+00
vertex 6.788621e+00 1.089392e+00 3.779703e+00
endloop
endfacet
facet normal -3.829393e-01 3.736052e-01 8.448530e-01
outer loop
vertex 6.788621e+00 1.089392e+00 3.779703e+00
vertex 6.732953e+00 1.111827e+00 3.744549e+00
vertex 6.392142e+00 7.225209e-01 3.762229e+00
endloop
endfacet
facet normal -2.726153e-01 4.094330e-01 8.706581e-01
outer loop
vertex 6.783058e+00 7.225209e-01 3.950484e+00
vertex 6.818731e+00 1.082459e+00 3.792391e+00
vertex 6.788621e+00 1.089392e+00 3.779703e+00
endloop
endfacet
facet normal -2.595435e-01 8.427501e-01 4.716030e-01
outer loop
vertex 6.729478e+00 1.400969e+00 3.339224e+00
vertex 6.620000e+00 1.271686e+00 3.510000e+00
vertex 6.880022e+00 1.351766e+00 3.510000e+00
endloop
endfacet
facet normal -4.049397e-01 5.848775e-01 7.028102e-01
outer loop
vertex 6.512536e+00 1.123490e+00 3.611260e+00
vertex 6.715852e+00 1.121782e+00 3.729826e+00
vertex 6.649709e+00 1.183729e+00 3.640165e+00
endloop
endfacet
facet normal -4.279649e-01 7.005296e-01 5.710555e-01
outer loop
vertex 6.649709e+00 1.183729e+00 3.640165e+00
vertex 6.620000e+00 1.271686e+00 3.510000e+00
vertex 6.512536e+00 1.123490e+00 3.611260e+00
endloop
endfacet
facet normal -8.481402e-01 5.044507e-01 -1.618261e-01
outer loop
vertex 6.620000e+00 1.271686e+00 3.510000e+00
vertex 6.729478e+00 1.400969e+00 3.339224e+00
vertex 6.512536e+00 1.123490e+00 3.611260e+00
endloop
endfacet
facet normal 6.566562e-02 8.233678e-01 5.636962e-01
outer loop
vertex 6.914581e+00 1.355923e+00 3.510000e+00
vertex 7.220000e+00 1.331565e+00 3.510000e+00
vertex 7.096548e+00 1.400969e+00 3.423005e+00
endloop
endfacet
facet normal -1.055408e-01 8.774766e-01 4.678632e-01
outer loop
vertex 6.903452e+00 1.400969e+00 3.423005e+00
vertex 6.880022e+00 1.351766e+00 3.510000e+00
vertex 6.914581e+00 1.355923e+00 3.510000e+00
endloop
endfacet
facet normal 3.554665e-01 7.368068e-01 5.751168e-01
outer loop
vertex 7.487464e+00 1.123490e+00 3.611260e+00
vertex 7.220000e+00 1.331565e+00 3.510000e+00
vertex 7.190291e+00 1.244297e+00 3.640165e+00
endloop
endfacet
facet normal 4.378933e-01 7.802344e-01 4.466360e-01
outer loop
vertex 7.487464e+00 1.123490e+00 3.611260e+00
vertex 7.270522e+00 1.400969e+00 3.339224e+00
vertex 7.220000e+00 1.331565e+00 3.510000e+00
endloop
endfacet
facet normal 2.019893e-01 8.850279e-01 4.194351e-01
outer loop
vertex 7.270522e+00 1.400969e+00 3.339224e+00
vertex 7.096548e+00 1.400969e+00 3.423005e+00
vertex 7.220000e+00 1.331565e+00 3.510000e+00
endloop
endfacet
facet normal 3.303091e-01 6.484175e-01 6.858940e-01
outer loop
vertex 7.190291e+00 1.244297e+00 3.640165e+00
vertex 7.173974e+00 1.123490e+00 3.762229e+00
vertex 7.487464e+00 1.123490e+00 3.611260e+00
endloop
endfacet
facet normal 0.000000e+00 8.880136e-01 4.598171e-01
outer loop
vertex 7.096548e+00 1.400969e+00 3.423005e+00
vertex 6.903452e+00 1.400969e+00 3.423005e+00
vertex 6.914581e+00 1.355923e+00 3.510000e+00
endloop
endfacet
facet normal -2.107488e-01 8.741108e-01 4.376245e-01
outer loop
vertex 6.880022e+00 1.351766e+00 3.510000e+00
vertex 6.903452e+00 1.400969e+00 3.423005e+00
vertex 6.729478e+00 1.400969e+00 3.339224e+00
endloop
endfacet
facet normal -4.521153e-01 4.299845e-01 7.814762e-01
outer loop
vertex 6.715852e+00 1.121782e+00 3.729826e+00
vertex 6.512536e+00 1.123490e+00 3.611260e+00
vertex 6.392142e+00 7.225209e-01 3.762229e+00
endloop
endfacet
facet normal -2.104667e-01 4.105468e-01 8.872176e-01
outer loop
vertex 6.853244e+00 1.078352e+00 3.802478e+00
vertex 6.818731e+00 1.082459e+00 3.792391e+00
vertex 6.783058e+00 7.225209e-01 3.950484e+00
endloop
endfacet
facet normal 9.132754e-02 5.772790e-01 8.114236e-01
outer loop
vertex 7.107047e+00 1.158929e+00 3.744549e+00
vertex 6.986756e+00 1.096534e+00 3.802478e+00
vertex 7.173974e+00 1.123490e+00 3.762229e+00
endloop
endfacet
facet normal -4.049397e-01 -5.848775e-01 7.028102e-01
outer loop
vertex 6.649709e+00 -1.837288e-01 3.640165e+00
vertex 6.715852e+00 -1.217825e-01 3.729826e+00
vertex 6.512536e+00 -1.234898e-01 3.611260e+00
endloop
endfacet
facet normal -1.055408e-01 -8.774766e-01 4.678632e-01
outer loop
vertex 6.914581e+00 -3.559227e-01 3.510000e+00
vertex 6.880022e+00 -3.517660e-01 3.510000e+00
vertex 6.903452e+00 -4.009689e-01 3.423005e+00
endloop
endfacet
facet normal 2.019893e-01 -8.850279e-01 4.194351e-01
outer loop
vertex 7.220000e+00 -3.315648e-01 3.510000e+00
vertex 7.096548e+00 -4.009689e-01 3.423005e+00
vertex 7.270522e+00 -4.009689e-01 3.339224e+00
endloop
endfacet
facet normal 1.779886e-01 -6.874091e-01 7.041228e-01
outer loop
vertex 7.107047e+00 -1.589287e-01 3.744549e+00
vertex 7.190291e+00 -2.442970e-01 3.640165e+00
vertex 7.173974e+00 -1.234898e-01 3.762229e+00
endloop
endfacet
facet normal 1.294953e-01 -4.327490e-01 8.921655e-01
outer loop
vertex 6.986756e+00 -9.653421e-02 3.802478e+00
vertex 7.173974e+00 -1.234898e-01 3.762229e+00
vertex 7.216942e+00 2.774791e-01 3.950484e+00
endloop
endfacet
facet normal -2.726002e-01 -4.094335e-01 8.706626e-01
outer loop
vertex 6.788636e+00 -8.938744e-02 3.779710e+00
vertex 6.818732e+00 -8.245874e-02 3.792391e+00
vertex 6.783058e+00 2.774791e-01 3.950484e+00
endloop
endfacet
facet normal -5.606562e-02 -9.268752e-01 3.711590e-01
outer loop
vertex 6.879463e+00 -4.927089e-01 3.000000e+00
vertex 7.000000e+00 -5.000000e-01 3.000000e+00
vertex 6.609084e+00 -4.009689e-01 3.188255e+00
endloop
endfacet
facet normal -1.782182e-01 -9.736729e-01 1.421243e-01
outer loop
vertex 7.000000e+00 -5.000000e-01 3.000000e+00
vertex 6.729478e+00 -4.009689e-01 3.339224e+00
vertex 6.609084e+00 -4.009689e-01 3.188255e+00
endloop
endfacet
facet normal -9.890365e-02 -9.736729e-01 2.053756e-01
outer loop
vertex 7.000000e+00 -5.000000e-01 3.000000e+00
vertex 6.903452e+00 -4.009689e-01 3.423005e+00
vertex 6.729478e+00 -4.009689e-01 3.339224e+00
endloop
endfacet
facet normal 0.000000e+00 -9.736729e-01 2.279497e-01
outer loop
vertex 7.000000e+00 -5.000000e-01 3.000000e+00
vertex 7.096548e+00 -4.009689e-01 3.423005e+00
vertex 6.903452e+00 -4.009689e-01 3.423005e+00
endloop
endfacet
facet normal 9.890365e-02 -9.736729e-01 2.053756e-01
outer loop
vertex 7.000000e+00 -5.000000e-01 3.000000e+00
vertex 7.270522e+00 -4.009689e-01 3.339224e+00
vertex 7.096548e+00 -4.009689e-01 3.423005e+00
endloop
endfacet
facet normal 1.782182e-01 -9.736729e-01 1.421243e-01
outer loop
vertex 7.000000e+00 -5.000000e-01 3.000000e+00
vertex 7.390916e+00 -4.009689e-01 3.188255e+00
vertex 7.270522e+00 -4.009689e-01 3.339224e+00
endloop
endfacet
facet normal 3.930208e-01 -9.151436e-01 8.970443e-02
outer loop
vertex 7.354605e+00 -4.350162e-01 3.000000e+00
vertex 7.433884e+00 -4.009689e-01 3.000000e+00
vertex 7.390916e+00 -4.009689e-01 3.188255e+00
endloop
endfacet
facet normal -4.992168e-01 -8.589526e-01 1.139430e-01
outer loop
vertex 6.431935e+00 -3.229839e-01 3.000000e+00
vertex 6.566116e+00 -4.009689e-01 3.000000e+00
vertex 6.609084e+00 -4.009689e-01 3.188255e+00
endloop
endfacet
facet normal -4.950128e-01 -7.740331e-01 3.947595e-01
outer loop
vertex 6.295594e+00 -1.234898e-01 3.339224e+00
vertex 6.609084e+00 -4.009689e-01 3.188255e+00
vertex 6.729478e+00 -4.009689e-01 3.339224e+00
endloop
endfacet
facet normal 4.950128e-01 -7.740331e-01 3.947595e-01
outer loop
vertex 7.487464e+00 -1.234898e-01 3.611260e+00
vertex 7.270522e+00 -4.009689e-01 3.339224e+00
vertex 7.390916e+00 -4.009689e-01 3.188255e+00
endloop
endfacet
facet normal 7.540075e-01 -6.339206e-01 1.720973e-01
outer loop
vertex 7.748511e+00 -1.631227e-01 3.000000e+00
vertex 7.781831e+00 -1.234898e-01 3.000000e+00
vertex 7.704406e+00 -1.234898e-01 3.339224e+00
endloop
endfacet
facet normal -8.225252e-01 -5.368496e-01 1.877360e-01
outer loop
vertex 6.114544e+00 3.527683e-02 3.000000e+00
vertex 6.218169e+00 -1.234898e-01 3.000000e+00
vertex 6.295594e+00 -1.234898e-01 3.339224e+00
endloop
endfacet
facet normal -7.077120e-01 -4.249908e-01 5.643815e-01
outer loop
vertex 6.121620e+00 2.774791e-01 3.423005e+00
vertex 6.295594e+00 -1.234898e-01 3.339224e+00
vertex 6.512536e+00 -1.234898e-01 3.611260e+00
endloop
endfacet
facet normal 3.927506e-01 -4.249908e-01 8.155549e-01
outer loop
vertex 7.216942e+00 2.774791e-01 3.950484e+00
vertex 7.173974e+00 -1.234898e-01 3.762229e+00
vertex 7.487464e+00 -1.234898e-01 3.611260e+00
endloop
endfacet
facet normal 7.077120e-01 -4.249908e-01 5.643815e-01
outer loop
vertex 7.607858e+00 2.774791e-01 3.762229e+00
vertex 7.487464e+00 -1.234898e-01 3.611260e+00
vertex 7.704406e+00 -1.234898e-01 3.339224e+00
endloop
endfacet
facet normal 9.498315e-01 -2.254349e-01 2.167929e-01
outer loop
vertex 7.970942e+00 2.606843e-01 3.000000e+00
vertex 7.974928e+00 2.774791e-01 3.000000e+00
vertex 7.878380e+00 2.774791e-01 3.423005e+00
endloop
endfacet
facet normal -9.690986e-01 -1.091912e-01 2.211904e-01
outer loop
vertex 6.000000e+00 5.000000e-01 3.000000e+00
vertex 6.025072e+00 2.774791e-01 3.000000e+00
vertex 6.121620e+00 2.774791e-01 3.423005e+00
endloop
endfacet
facet normal -7.818315e-01 0.000000e+00 6.234898e-01
outer loop
vertex 6.121620e+00 7.225209e-01 3.423005e+00
vertex 6.121620e+00 2.774791e-01 3.423005e+00
vertex 6.392142e+00 2.774791e-01 3.762229e+00
endloop
endfacet
facet normal -4.338837e-01 0.000000e+00 9.009689e-01
outer loop
vertex 6.392142e+00 7.225209e-01 3.762229e+00
vertex 6.392142e+00 2.774791e-01 3.762229e+00
vertex 6.783058e+00 2.774791e-01 3.950484e+00
endloop
endfacet
facet normal 0.000000e+00 0.000000e+00 1.000000e+00
outer loop
vertex 6.783058e+00 7.225209e-01 3.950484e+00
vertex 6.783058e+00 2.774791e-01 3.950484e+00
vertex 7.216942e+00 2.774791e-01 3.950484e+00
endloop
endfacet
facet normal 4.338837e-01 0.000000e+00 9.009689e-01
outer loop
vertex 7.216942e+00 7.225209e-01 3.950484e+00
vertex 7.216942e+00 2.774791e-01 3.950484e+00
vertex 7.607858e+00 2.774791e-01 3.762229e+00
endloop
endfacet
facet normal 7.818315e-01 0.000000e+00 6.234898e-01
outer loop
vertex 7.607858e+00 7.225209e-01 3.762229e+00
vertex 7.607858e+00 2.774791e-01 3.762229e+00
vertex 7.878380e+00 2.774791e-01 3.423005e+00
endloop
endfacet
facet normal 9.691130e-01 1.176716e-01 2.167335e-01
outer loop
vertex 8.000000e+00 5.000000e-01 3.000000e+00
vertex 7.970942e+00 7.393157e-01 3.000000e+00
vertex 7.878380e+00 7.225209e-01 3.423005e+00
endloop
endfacet
facet normal -9.172541e-01 3.388427e-01 2.093573e-01
outer loop
vertex 6.114544e+00 9.647232e-01 3.000000e+00
vertex 6.025072e+00 7.225209e-01 3.000000e+00
vertex 6.121620e+00 7.225209e-01 3.423005e+00
endloop
endfacet
facet normal -7.077120e-01 4.249908e-01 5.643815e-01
outer loop
vertex 6.295594e+00 1.123490e+00 3.339224e+00
vertex 6.121620e+00 7.225209e-01 3.423005e+00
vertex 6.392142e+00 7.225209e-01 3.762229e+00
endloop
endfacet
facet normal 3.927506e-01 4.249908e-01 8.155549e-01
outer loop
vertex 7.173974e+00 1.123490e+00 3.762229e+00
vertex 7.216942e+00 7.225209e-01 3.950484e+00
vertex 7.607858e+00 7.225209e-01 3.762229e+00
endloop
endfacet
facet normal 7.077120e-01 4.249908e-01 5.643815e-01
outer loop
vertex 7.487464e+00 1.123490e+00 3.611260e+00
vertex 7.607858e+00 7.225209e-01 3.762229e+00
vertex 7.878380e+00 7.225209e-01 3.423005e+00
endloop
endfacet
facet normal 8.825025e-01 4.249908e-01 2.014254e-01
outer loop
vertex 7.781831e+00 1.123490e+00 3.000000e+00
vertex 7.704406e+00 1.123490e+00 3.339224e+00
vertex 7.878380e+00 7.225209e-01 3.423005e+00
endloop
endfacet
facet normal -6.741535e-01 7.223854e-01 1.538711e-01
outer loop
vertex 6.431935e+00 1.322984e+00 3.000000e+00
vertex 6.218169e+00 1.123490e+00 3.000000e+00
vertex 6.295594e+00 1.123490e+00 3.339224e+00
endloop
endfacet
facet normal -4.950128e-01 7.740331e-01 3.947595e-01
outer loop
vertex 6.609084e+00 1.400969e+00 3.188255e+00
vertex 6.295594e+00 1.123490e+00 3.339224e+00
vertex 6.512536e+00 1.123490e+00 3.611260e+00
endloop
endfacet
facet normal 4.950128e-01 7.740331e-01 3.947595e-01
outer loop
vertex 7.270522e+00 1.400969e+00 3.339224e+00
vertex 7.487464e+00 1.123490e+00 3.611260e+00
vertex 7.704406e+00 1.123490e+00 3.339224e+00
endloop
endfacet
facet normal 6.172708e-01 7.740331e-01 1.408880e-01
outer loop
vertex 7.433884e+00 1.400969e+00 3.000000e+00
vertex 7.390916e+00 1.400969e+00 3.188255e+00
vertex 7.704406e+00 1.123490e+00 3.339224e+00
endloop
endfacet
facet normal -2.804036e-01 9.577462e-01 6.400029e-02
outer loop
vertex 6.879463e+00 1.492709e+00 3.000000e+00
vertex 6.566116e+00 1.400969e+00 3.000000e+00
vertex 6.609084e+00 1.400969e+00 3.188255e+00
endloop
endfacet
facet normal -1.782182e-01 9.736729e-01 1.421243e-01
outer loop
vertex 6.609084e+00 1.400969e+00 3.188255e+00
vertex 6.729478e+00 1.400969e+00 3.339224e+00
vertex 7.000000e+00 1.500000e+00 3.000000e+00
endloop
endfacet
facet normal -9.890365e-02 9.736729e-01 2.053756e-01
outer loop
vertex 6.729478e+00 1.400969e+00 3.339224e+00
vertex 6.903452e+00 1.400969e+00 3.423005e+00
vertex 7.000000e+00 1.500000e+00 3.000000e+00
endloop
endfacet
facet normal -0.000000e+00 9.736729e-01 2.279497e-01
outer loop
vertex 6.903452e+00 1.400969e+00 3.423005e+00
vertex 7.096548e+00 1.400969e+00 3.423005e+00
vertex 7.000000e+00 1.500000e+00 3.000000e+00
endloop
endfacet
facet normal 9.890365e-02 9.736729e-01 2.053756e-01
outer loop
vertex 7.096548e+00 1.400969e+00 3.423005e+00
vertex 7.270522e+00 1.400969e+00 3.339224e+00
vertex 7.000000e+00 1.500000e+00 3.000000e+00
endloop
endfacet
facet normal 1.782182e-01 9.736729e-01 1.421243e-01
outer loop
vertex 7.270522e+00 1.400969e+00 3.339224e+00
vertex 7.390916e+00 1.400969e+00 3.188255e+00
vertex 7.000000e+00 1.500000e+00 3.000000e+00
endloop
endfacet
facet normal 1.784366e-01 9.736972e-01 1.416835e-01
outer loop
vertex 7.354605e+00 1.435016e+00 3.000000e+00
vertex 7.000000e+00 1.500000e+00 3.000000e+00
vertex 7.390916e+00 1.400969e+00 3.188255e+00
endloop
endfacet
facet normal 0.000000e+00 0.000000e+00 1.000000e+00
outer loop
vertex 6.880022e+00 1.351766e+00 3.510000e+00
vertex 6.880022e+00 -3.517660e-01 3.510000e+00
vertex 6.914581e+00 -3.559227e-01 3.510000e+00
endloop
endfacet
facet normal -5.475621e-15 4.495928e-16 1.000000e+00
outer loop
vertex 6.880022e+00 1.351766e+00 3.510000e+00
vertex 6.620000e+00 1.271686e+00 3.510000e+00
vertex 6.620000e+00 -2.716865e-01 3.510000e+00
endloop
endfacet
facet normal -2.668579e-15 2.173953e-30 1.000000e+00
outer loop
vertex 6.620000e+00 -2.716865e-01 3.510000e+00
vertex 6.880022e+00 -3.517660e-01 3.510000e+00
vertex 6.880022e+00 1.351766e+00 3.510000e+00
endloop
endfacet
facet normal -3.327425e-17 -4.172191e-16 1.000000e+00
outer loop
vertex 7.220000e+00 -3.315648e-01 3.510000e+00
vertex 7.220000e+00 1.331565e+00 3.510000e+00
vertex 6.914581e+00 1.355923e+00 3.510000e+00
endloop
endfacet
facet normal 4.840405e-17 -4.024361e-16 1.000000e+00
outer loop
vertex 6.914581e+00 1.355923e+00 3.510000e+00
vertex 6.880022e+00 1.351766e+00 3.510000e+00
vertex 7.220000e+00 -3.315648e-01 3.510000e+00
endloop
endfacet
facet normal 2.268267e-15 4.590399e-17 1.000000e+00
outer loop
vertex 6.914581e+00 -3.559227e-01 3.510000e+00
vertex 7.220000e+00 -3.315648e-01 3.510000e+00
vertex 6.880022e+00 1.351766e+00 3.510000e+00
endloop
endfacet
facet normal 9.749279e-01 3.406521e-15 -2.225209e-01
outer loop
vertex 6.620000e+00 -2.716865e-01 3.510000e+00
vertex 6.620000e+00 1.271686e+00 3.510000e+00
vertex 6.649709e+00 1.183729e+00 3.640165e+00
endloop
endfacet
facet normal 6.524531e-01 -1.908832e-15 -7.578291e-01
outer loop
vertex 6.715852e+00 1.121782e+00 3.729826e+00
vertex 6.732953e+00 1.111827e+00 3.744549e+00
vertex 6.732953e+00 -1.118268e-01 3.744549e+00
endloop
endfacet
facet normal 6.524531e-01 5.400170e-16 -7.578291e-01
outer loop
vertex 6.732953e+00 -1.118268e-01 3.744549e+00
vertex 6.715852e+00 -1.217825e-01 3.729826e+00
vertex 6.715852e+00 1.121782e+00 3.729826e+00
endloop
endfacet
facet normal 8.047275e-01 3.012331e-16 -5.936443e-01
outer loop
vertex 6.649709e+00 -1.837288e-01 3.640165e+00
vertex 6.649709e+00 1.183729e+00 3.640165e+00
vertex 6.715852e+00 1.121782e+00 3.729826e+00
endloop
endfacet
facet normal 2.805458e-01 -1.352867e-08 -9.598406e-01
outer loop
vertex 6.818732e+00 -8.245874e-02 3.792391e+00
vertex 6.818731e+00 1.082459e+00 3.792391e+00
vertex 6.853244e+00 1.078352e+00 3.802478e+00
endloop
endfacet
facet normal 2.805454e-01 -2.392041e-16 -9.598408e-01
outer loop
vertex 6.853244e+00 1.078352e+00 3.802478e+00
vertex 6.853244e+00 -7.835202e-02 3.802478e+00
vertex 6.818732e+00 -8.245874e-02 3.792391e+00
endloop
endfacet
facet normal 3.883215e-01 -7.458669e-07 -9.215239e-01
outer loop
vertex 6.788636e+00 -8.938744e-02 3.779710e+00
vertex 6.788621e+00 1.089392e+00 3.779703e+00
vertex 6.818731e+00 1.082459e+00 3.792391e+00
endloop
endfacet
facet normal 5.339339e-01 1.504045e-06 -8.455262e-01
outer loop
vertex 6.788636e+00 -8.938744e-02 3.779710e+00
vertex 6.732953e+00 1.111827e+00 3.744549e+00
vertex 6.788621e+00 1.089392e+00 3.779703e+00
endloop
endfacet
facet normal 3.882965e-01 1.228770e-08 -9.215345e-01
outer loop
vertex 6.818732e+00 -8.245874e-02 3.792391e+00
vertex 6.788636e+00 -8.938744e-02 3.779710e+00
vertex 6.818731e+00 1.082459e+00 3.792391e+00
endloop
endfacet
facet normal 1.106331e-01 2.963422e-06 -9.938613e-01
outer loop
vertex 6.920773e+00 1.081055e+00 3.809999e+00
vertex 6.920804e+00 -8.105913e-02 3.809999e+00
vertex 6.853244e+00 -7.835202e-02 3.802478e+00
endloop
endfacet
facet normal -1.132964e-01 -2.896395e-06 -9.935612e-01
outer loop
vertex 6.920773e+00 1.081055e+00 3.809999e+00
vertex 6.986756e+00 -9.653421e-02 3.802478e+00
vertex 6.920804e+00 -8.105913e-02 3.809999e+00
endloop
endfacet
facet normal 1.106834e-01 -4.634045e-16 -9.938557e-01
outer loop
vertex 6.853244e+00 -7.835202e-02 3.802478e+00
vertex 6.853244e+00 1.078352e+00 3.802478e+00
vertex 6.920773e+00 1.081055e+00 3.809999e+00
endloop
endfacet
facet normal -4.338837e-01 4.743857e-16 -9.009689e-01
outer loop
vertex 7.107047e+00 1.158929e+00 3.744549e+00
vertex 7.107047e+00 -1.589287e-01 3.744549e+00
vertex 6.986756e+00 -9.653421e-02 3.802478e+00
endloop
endfacet
facet normal -7.818315e-01 -0.000000e+00 -6.234898e-01
outer loop
vertex 7.190291e+00 1.244297e+00 3.640165e+00
vertex 7.190291e+00 -2.442970e-01 3.640165e+00
vertex 7.107047e+00 -1.589287e-01 3.744549e+00
endloop
endfacet
facet normal -9.749279e-01 0.000000e+00 -2.225209e-01
outer loop
vertex 7.220000e+00 -3.315648e-01 3.510000e+00
vertex 7.190291e+00 -2.442970e-01 3.640165e+00
vertex 7.190291e+00 1.244297e+00 3.640165e+00
endloop
endfacet
facet normal -9.749279e-01 -3.161372e-15 -2.225209e-01
outer loop
vertex 7.190291e+00 1.244297e+00 3.640165e+00
vertex 7.220000e+00 1.331565e+00 3.510000e+00
vertex 7.220000e+00 -3.315648e-01 3.510000e+00
endloop
endfacet
facet normal -7.818315e-01 3.282851e-16 -6.234898e-01
outer loop
vertex 7.107047e+00 -1.589287e-01 3.744549e+00
vertex 7.107047e+00 1.158929e+00 3.744549e+00
vertex 7.190291e+00 1.244297e+00 3.640165e+00
endloop
endfacet
facet normal -4.338837e-01 0.000000e+00 -9.009689e-01
outer loop
vertex 6.986756e+00 -9.653421e-02 3.802478e+00
vertex 6.986756e+00 1.096534e+00 3.802478e+00
vertex 7.107047e+00 1.158929e+00 3.744549e+00
endloop
endfacet
facet normal -1.132454e-01 0.000000e+00 -9.935671e-01
outer loop
vertex 6.920773e+00 1.081055e+00 3.809999e+00
vertex 6.986756e+00 1.096534e+00 3.802478e+00
vertex 6.986756e+00 -9.653421e-02 3.802478e+00
endloop
endfacet
facet normal 5.339107e-01 -1.691656e-15 -8.455409e-01
outer loop
vertex 6.788636e+00 -8.938744e-02 3.779710e+00
vertex 6.732953e+00 -1.118268e-01 3.744549e+00
vertex 6.732953e+00 1.111827e+00 3.744549e+00
endloop
endfacet
facet normal 8.047275e-01 9.568192e-17 -5.936443e-01
outer loop
vertex 6.715852e+00 -1.217825e-01 3.729826e+00
vertex 6.649709e+00 -1.837288e-01 3.640165e+00
vertex 6.715852e+00 1.121782e+00 3.729826e+00
endloop
endfacet
facet normal 9.749279e-01 1.129139e-16 -2.225209e-01
outer loop
vertex 6.649709e+00 1.183729e+00 3.640165e+00
vertex 6.649709e+00 -1.837288e-01 3.640165e+00
vertex 6.620000e+00 -2.716865e-01 3.510000e+00
endloop
endfacet
endsolid SHAPR3D_SOLID
