solid SHAPR3D_SOLID
facet normal 1.000000e+00 0.000000e+00 0.000000e+00
outer loop
vertex 4.000000e+00 1.800000e+01 1.000000e+00
vertex 4.000000e+00 -3.000000e+00 1.000000e+00
vertex 4.000000e+00 -3.000000e+00 0.000000e+00
endloop
endfacet
facet normal 1.000000e+00 0.000000e+00 0.000000e+00
outer loop
vertex 4.000000e+00 -3.000000e+00 0.000000e+00
vertex 4.000000e+00 1.800000e+01 0.000000e+00
vertex 4.000000e+00 1.800000e+01 1.000000e+00
endloop
endfacet
facet normal 0.000000e+00 -0.000000e+00 -1.000000e+00
outer loop
vertex 4.000000e+00 1.800000e+01 0.000000e+00
vertex 4.000000e+00 -3.000000e+00 0.000000e+00
vertex -4.000000e+00 -3.000000e+00 0.000000e+00
endloop
endfacet
facet normal 0.000000e+00 0.000000e+00 -1.000000e+00
outer loop
vertex -4.000000e+00 -3.000000e+00 0.000000e+00
vertex -4.000000e+00 1.800000e+01 0.000000e+00
vertex 4.000000e+00 1.800000e+01 0.000000e+00
endloop
endfacet
facet normal -1.000000e+00 0.000000e+00 0.000000e+00
outer loop
vertex -4.000000e+00 1.800000e+01 0.000000e+00
vertex -4.000000e+00 -3.000000e+00 0.000000e+00
vertex -4.000000e+00 -3.000000e+00 1.000000e+00
endloop
endfacet
facet normal -1.000000e+00 0.000000e+00 0.000000e+00
outer loop
vertex -4.000000e+00 -3.000000e+00 1.000000e+00
vertex -4.000000e+00 1.800000e+01 1.000000e+00
vertex -4.000000e+00 1.800000e+01 0.000000e+00
endloop
endfacet
facet normal -0.000000e+00 1.000000e+00 0.000000e+00
outer loop
vertex -4.000000e+00 1.800000e+01 1.000000e+00
vertex 4.000000e+00 1.800000e+01 1.000000e+00
vertex 4.000000e+00 1.800000e+01 0.000000e+00
endloop
endfacet
facet normal 0.000000e+00 1.000000e+00 0.000000e+00
outer loop
vertex 4.000000e+00 1.800000e+01 0.000000e+00
vertex -4.000000e+00 1.800000e+01 0.000000e+00
vertex -4.000000e+00 1.800000e+01 1.000000e+00
endloop
endfacet
facet normal 0.000000e+00 -1.000000e+00 0.000000e+00
outer loop
vertex -4.000000e+00 -3.000000e+00 0.000000e+00
vertex 4.000000e+00 -3.000000e+00 0.000000e+00
vertex 4.000000e+00 -3.000000e+00 1.000000e+00
endloop
endfacet
facet normal -0.000000e+00 -1.000000e+00 0.000000e+00
outer loop
vertex 4.000000e+00 -3.000000e+00 1.000000e+00
vertex -4.000000e+00 -3.000000e+00 1.000000e+00
vertex -4.000000e+00 -3.000000e+00 0.000000e+00
endloop
endfacet
facet normal 0.000000e+00 0.000000e+00 1.000000e+00
outer loop
vertex -4.000000e+00 1.800000e+01 1.000000e+00
vertex -3.500000e+00 1.750000e+01 1.000000e+00
vertex 3.500000e+00 1.750000e+01 1.000000e+00
endloop
endfacet
facet normal 0.000000e+00 0.000000e+00 1.000000e+00
outer loop
vertex -4.000000e+00 1.800000e+01 1.000000e+00
vertex -4.000000e+00 -3.000000e+00 1.000000e+00
vertex -3.500000e+00 -2.500000e+00 1.000000e+00
endloop
endfacet
facet normal 0.000000e+00 -0.000000e+00 1.000000e+00
outer loop
vertex -3.500000e+00 -2.500000e+00 1.000000e+00
vertex -3.500000e+00 1.750000e+01 1.000000e+00
vertex -4.000000e+00 1.800000e+01 1.000000e+00
endloop
endfacet
facet normal 0.000000e+00 0.000000e+00 1.000000e+00
outer loop
vertex -4.000000e+00 -3.000000e+00 1.000000e+00
vertex 4.000000e+00 -3.000000e+00 1.000000e+00
vertex 3.500000e+00 -2.500000e+00 1.000000e+00
endloop
endfacet
facet normal 0.000000e+00 0.000000e+00 1.000000e+00
outer loop
vertex 3.500000e+00 -2.500000e+00 1.000000e+00
vertex -3.500000e+00 -2.500000e+00 1.000000e+00
vertex -4.000000e+00 -3.000000e+00 1.000000e+00
endloop
endfacet
facet normal 0.000000e+00 0.000000e+00 1.000000e+00
outer loop
vertex 4.000000e+00 1.800000e+01 1.000000e+00
vertex 3.500000e+00 1.750000e+01 1.000000e+00
vertex 3.500000e+00 -2.500000e+00 1.000000e+00
endloop
endfacet
facet normal -0.000000e+00 0.000000e+00 1.000000e+00
outer loop
vertex 3.500000e+00 -2.500000e+00 1.000000e+00
vertex 4.000000e+00 -3.000000e+00 1.000000e+00
vertex 4.000000e+00 1.800000e+01 1.000000e+00
endloop
endfacet
facet normal 0.000000e+00 -0.000000e+00 1.000000e+00
outer loop
vertex 3.500000e+00 1.750000e+01 1.000000e+00
vertex 4.000000e+00 1.800000e+01 1.000000e+00
vertex -4.000000e+00 1.800000e+01 1.000000e+00
endloop
endfacet
facet normal 0.000000e+00 -1.000000e+00 0.000000e+00
outer loop
vertex 3.500000e+00 1.750000e+01 5.000000e-01
vertex 3.500000e+00 1.750000e+01 1.000000e+00
vertex -3.500000e+00 1.750000e+01 1.000000e+00
endloop
endfacet
facet normal 0.000000e+00 -1.000000e+00 0.000000e+00
outer loop
vertex -3.500000e+00 1.750000e+01 1.000000e+00
vertex -3.500000e+00 1.750000e+01 5.000000e-01
vertex 3.500000e+00 1.750000e+01 5.000000e-01
endloop
endfacet
facet normal 1.000000e+00 0.000000e+00 -0.000000e+00
outer loop
vertex -3.500000e+00 1.750000e+01 5.000000e-01
vertex -3.500000e+00 1.750000e+01 1.000000e+00
vertex -3.500000e+00 -2.500000e+00 1.000000e+00
endloop
endfacet
facet normal 1.000000e+00 0.000000e+00 0.000000e+00
outer loop
vertex -3.500000e+00 -2.500000e+00 1.000000e+00
vertex -3.500000e+00 -2.500000e+00 5.000000e-01
vertex -3.500000e+00 1.750000e+01 5.000000e-01
endloop
endfacet
facet normal -9.912706e-17 1.000000e+00 0.000000e+00
outer loop
vertex -3.500000e+00 -2.500000e+00 5.000000e-01
vertex -3.500000e+00 -2.500000e+00 1.000000e+00
vertex 3.500000e+00 -2.500000e+00 1.000000e+00
endloop
endfacet
facet normal 0.000000e+00 1.000000e+00 -1.387779e-15
outer loop
vertex 3.500000e+00 -2.500000e+00 1.000000e+00
vertex 3.500000e+00 -2.500000e+00 5.000000e-01
vertex -3.500000e+00 -2.500000e+00 5.000000e-01
endloop
endfacet
facet normal -1.000000e+00 3.469447e-17 -1.387779e-15
outer loop
vertex 3.500000e+00 -2.500000e+00 5.000000e-01
vertex 3.500000e+00 -2.500000e+00 1.000000e+00
vertex 3.500000e+00 1.750000e+01 1.000000e+00
endloop
endfacet
facet normal -1.000000e+00 0.000000e+00 -0.000000e+00
outer loop
vertex 3.500000e+00 1.750000e+01 1.000000e+00
vertex 3.500000e+00 1.750000e+01 5.000000e-01
vertex 3.500000e+00 -2.500000e+00 5.000000e-01
endloop
endfacet
facet normal 0.000000e+00 0.000000e+00 1.000000e+00
outer loop
vertex 3.500000e+00 1.750000e+01 5.000000e-01
vertex -3.500000e+00 1.750000e+01 5.000000e-01
vertex -5.000000e-01 1.300000e+01 5.000000e-01
endloop
endfacet
facet normal 0.000000e+00 0.000000e+00 1.000000e+00
outer loop
vertex -3.500000e+00 1.750000e+01 5.000000e-01
vertex -5.000000e-01 3.000000e+00 5.000000e-01
vertex -5.000000e-01 1.200000e+01 5.000000e-01
endloop
endfacet
facet normal 0.000000e+00 -0.000000e+00 1.000000e+00
outer loop
vertex -5.000000e-01 1.200000e+01 5.000000e-01
vertex -5.000000e-01 1.300000e+01 5.000000e-01
vertex -3.500000e+00 1.750000e+01 5.000000e-01
endloop
endfacet
facet normal 0.000000e+00 0.000000e+00 1.000000e+00
outer loop
vertex 5.000000e-01 1.200000e+01 5.000000e-01
vertex -5.000000e-01 1.200000e+01 5.000000e-01
vertex -5.000000e-01 3.000000e+00 5.000000e-01
endloop
endfacet
facet normal 0.000000e+00 0.000000e+00 1.000000e+00
outer loop
vertex -5.000000e-01 3.000000e+00 5.000000e-01
vertex 5.000000e-01 3.000000e+00 5.000000e-01
vertex 5.000000e-01 1.200000e+01 5.000000e-01
endloop
endfacet
facet normal 0.000000e+00 0.000000e+00 1.000000e+00
outer loop
vertex 3.500000e+00 1.750000e+01 5.000000e-01
vertex 5.000000e-01 1.300000e+01 5.000000e-01
vertex 5.000000e-01 1.200000e+01 5.000000e-01
endloop
endfacet
facet normal -0.000000e+00 0.000000e+00 1.000000e+00
outer loop
vertex 5.000000e-01 1.200000e+01 5.000000e-01
vertex 5.000000e-01 3.000000e+00 5.000000e-01
vertex 3.500000e+00 1.750000e+01 5.000000e-01
endloop
endfacet
facet normal 0.000000e+00 0.000000e+00 1.000000e+00
outer loop
vertex -3.500000e+00 -2.500000e+00 5.000000e-01
vertex -5.000000e-01 2.000000e+00 5.000000e-01
vertex -5.000000e-01 3.000000e+00 5.000000e-01
endloop
endfacet
facet normal 0.000000e+00 0.000000e+00 1.000000e+00
outer loop
vertex -5.000000e-01 3.000000e+00 5.000000e-01
vertex -3.500000e+00 1.750000e+01 5.000000e-01
vertex -3.500000e+00 -2.500000e+00 5.000000e-01
endloop
endfacet
facet normal 0.000000e+00 0.000000e+00 1.000000e+00
outer loop
vertex -3.500000e+00 -2.500000e+00 5.000000e-01
vertex 3.500000e+00 -2.500000e+00 5.000000e-01
vertex 5.000000e-01 2.000000e+00 5.000000e-01
endloop
endfacet
facet normal 0.000000e+00 0.000000e+00 1.000000e+00
outer loop
vertex 5.000000e-01 2.000000e+00 5.000000e-01
vertex -5.000000e-01 2.000000e+00 5.000000e-01
vertex -3.500000e+00 -2.500000e+00 5.000000e-01
endloop
endfacet
facet normal 0.000000e+00 -0.000000e+00 1.000000e+00
outer loop
vertex 3.500000e+00 -2.500000e+00 5.000000e-01
vertex 3.500000e+00 1.750000e+01 5.000000e-01
vertex 5.000000e-01 3.000000e+00 5.000000e-01
endloop
endfacet
facet normal 0.000000e+00 0.000000e+00 1.000000e+00
outer loop
vertex 5.000000e-01 3.000000e+00 5.000000e-01
vertex 5.000000e-01 2.000000e+00 5.000000e-01
vertex 3.500000e+00 -2.500000e+00 5.000000e-01
endloop
endfacet
facet normal 0.000000e+00 0.000000e+00 1.000000e+00
outer loop
vertex -5.000000e-01 1.300000e+01 5.000000e-01
vertex 5.000000e-01 1.300000e+01 5.000000e-01
vertex 3.500000e+00 1.750000e+01 5.000000e-01
endloop
endfacet
facet normal 0.000000e+00 1.000000e+00 0.000000e+00
outer loop
vertex 5.000000e-01 1.300000e+01 2.500000e+00
vertex 5.000000e-01 1.300000e+01 5.000000e-01
vertex -5.000000e-01 1.300000e+01 5.000000e-01
endloop
endfacet
facet normal 0.000000e+00 1.000000e+00 0.000000e+00
outer loop
vertex -5.000000e-01 1.300000e+01 5.000000e-01
vertex -5.000000e-01 1.300000e+01 2.500000e+00
vertex 5.000000e-01 1.300000e+01 2.500000e+00
endloop
endfacet
facet normal -1.000000e+00 0.000000e+00 -0.000000e+00
outer loop
vertex -5.000000e-01 1.300000e+01 2.500000e+00
vertex -5.000000e-01 1.300000e+01 5.000000e-01
vertex -5.000000e-01 1.200000e+01 5.000000e-01
endloop
endfacet
facet normal -1.000000e+00 0.000000e+00 0.000000e+00
outer loop
vertex -5.000000e-01 1.200000e+01 5.000000e-01
vertex -5.000000e-01 1.200000e+01 2.500000e+00
vertex -5.000000e-01 1.300000e+01 2.500000e+00
endloop
endfacet
facet normal 0.000000e+00 -1.000000e+00 0.000000e+00
outer loop
vertex -5.000000e-01 1.200000e+01 2.500000e+00
vertex -5.000000e-01 1.200000e+01 5.000000e-01
vertex 5.000000e-01 1.200000e+01 5.000000e-01
endloop
endfacet
facet normal 0.000000e+00 -1.000000e+00 0.000000e+00
outer loop
vertex 5.000000e-01 1.200000e+01 5.000000e-01
vertex 5.000000e-01 1.200000e+01 2.500000e+00
vertex -5.000000e-01 1.200000e+01 2.500000e+00
endloop
endfacet
facet normal 1.000000e+00 0.000000e+00 0.000000e+00
outer loop
vertex 5.000000e-01 1.200000e+01 2.500000e+00
vertex 5.000000e-01 1.200000e+01 5.000000e-01
vertex 5.000000e-01 1.300000e+01 5.000000e-01
endloop
endfacet
facet normal 1.000000e+00 0.000000e+00 -0.000000e+00
outer loop
vertex 5.000000e-01 1.300000e+01 5.000000e-01
vertex 5.000000e-01 1.300000e+01 2.500000e+00
vertex 5.000000e-01 1.200000e+01 2.500000e+00
endloop
endfacet
facet normal 0.000000e+00 -0.000000e+00 1.000000e+00
outer loop
vertex 5.000000e-01 1.200000e+01 2.500000e+00
vertex 5.000000e-01 1.300000e+01 2.500000e+00
vertex -5.000000e-01 1.300000e+01 2.500000e+00
endloop
endfacet
facet normal 0.000000e+00 0.000000e+00 1.000000e+00
outer loop
vertex -5.000000e-01 1.300000e+01 2.500000e+00
vertex -5.000000e-01 1.200000e+01 2.500000e+00
vertex 5.000000e-01 1.200000e+01 2.500000e+00
endloop
endfacet
facet normal 0.000000e+00 1.000000e+00 0.000000e+00
outer loop
vertex 5.000000e-01 3.000000e+00 2.500000e+00
vertex 5.000000e-01 3.000000e+00 5.000000e-01
vertex -5.000000e-01 3.000000e+00 5.000000e-01
endloop
endfacet
facet normal 0.000000e+00 1.000000e+00 0.000000e+00
outer loop
vertex -5.000000e-01 3.000000e+00 5.000000e-01
vertex -5.000000e-01 3.000000e+00 2.500000e+00
vertex 5.000000e-01 3.000000e+00 2.500000e+00
endloop
endfacet
facet normal -1.000000e+00 0.000000e+00 -0.000000e+00
outer loop
vertex -5.000000e-01 3.000000e+00 2.500000e+00
vertex -5.000000e-01 3.000000e+00 5.000000e-01
vertex -5.000000e-01 2.000000e+00 5.000000e-01
endloop
endfacet
facet normal -1.000000e+00 0.000000e+00 0.000000e+00
outer loop
vertex -5.000000e-01 2.000000e+00 5.000000e-01
vertex -5.000000e-01 2.000000e+00 2.500000e+00
vertex -5.000000e-01 3.000000e+00 2.500000e+00
endloop
endfacet
facet normal 0.000000e+00 -1.000000e+00 0.000000e+00
outer loop
vertex -5.000000e-01 2.000000e+00 2.500000e+00
vertex -5.000000e-01 2.000000e+00 5.000000e-01
vertex 5.000000e-01 2.000000e+00 5.000000e-01
endloop
endfacet
facet normal 0.000000e+00 -1.000000e+00 0.000000e+00
outer loop
vertex 5.000000e-01 2.000000e+00 5.000000e-01
vertex 5.000000e-01 2.000000e+00 2.500000e+00
vertex -5.000000e-01 2.000000e+00 2.500000e+00
endloop
endfacet
facet normal 1.000000e+00 0.000000e+00 0.000000e+00
outer loop
vertex 5.000000e-01 2.000000e+00 2.500000e+00
vertex 5.000000e-01 2.000000e+00 5.000000e-01
vertex 5.000000e-01 3.000000e+00 5.000000e-01
endloop
endfacet
facet normal 1.000000e+00 0.000000e+00 -0.000000e+00
outer loop
vertex 5.000000e-01 3.000000e+00 5.000000e-01
vertex 5.000000e-01 3.000000e+00 2.500000e+00
vertex 5.000000e-01 2.000000e+00 2.500000e+00
endloop
endfacet
facet normal 0.000000e+00 -0.000000e+00 1.000000e+00
outer loop
vertex 5.000000e-01 2.000000e+00 2.500000e+00
vertex 5.000000e-01 3.000000e+00 2.500000e+00
vertex -5.000000e-01 3.000000e+00 2.500000e+00
endloop
endfacet
facet normal 0.000000e+00 0.000000e+00 1.000000e+00
outer loop
vertex -5.000000e-01 3.000000e+00 2.500000e+00
vertex -5.000000e-01 2.000000e+00 2.500000e+00
vertex 5.000000e-01 2.000000e+00 2.500000e+00
endloop
endfacet
endsolid SHAPR3D_SOLID
