solid SHAPR3D_SOLID
facet normal 0.000000e+00 0.000000e+00 -1.000000e+00
outer loop
vertex 7.000000e+00 1.650000e+01 0.000000e+00
vertex 7.970942e+00 1.626068e+01 0.000000e+00
vertex 7.748511e+00 1.583688e+01 0.000000e+00
endloop
endfacet
facet normal -0.000000e+00 0.000000e+00 -1.000000e+00
outer loop
vertex 7.748511e+00 1.583688e+01 0.000000e+00
vertex 7.354605e+00 1.556498e+01 0.000000e+00
vertex 7.000000e+00 1.650000e+01 0.000000e+00
endloop
endfacet
facet normal -0.000000e+00 0.000000e+00 -1.000000e+00
outer loop
vertex 7.354605e+00 1.556498e+01 0.000000e+00
vertex 6.879463e+00 1.550729e+01 0.000000e+00
vertex 7.000000e+00 1.650000e+01 0.000000e+00
endloop
endfacet
facet normal 0.000000e+00 0.000000e+00 -1.000000e+00
outer loop
vertex 6.879463e+00 1.550729e+01 0.000000e+00
vertex 6.431935e+00 1.567702e+01 0.000000e+00
vertex 7.000000e+00 1.650000e+01 0.000000e+00
endloop
endfacet
facet normal 0.000000e+00 0.000000e+00 -1.000000e+00
outer loop
vertex 6.431935e+00 1.567702e+01 0.000000e+00
vertex 6.114544e+00 1.603528e+01 0.000000e+00
vertex 7.000000e+00 1.650000e+01 0.000000e+00
endloop
endfacet
facet normal 0.000000e+00 0.000000e+00 -1.000000e+00
outer loop
vertex 6.114544e+00 1.603528e+01 0.000000e+00
vertex 6.000000e+00 1.650000e+01 0.000000e+00
vertex 7.000000e+00 1.650000e+01 0.000000e+00
endloop
endfacet
facet normal 0.000000e+00 0.000000e+00 -1.000000e+00
outer loop
vertex 6.000000e+00 1.650000e+01 0.000000e+00
vertex 6.114544e+00 1.696472e+01 0.000000e+00
vertex 7.000000e+00 1.650000e+01 0.000000e+00
endloop
endfacet
facet normal 0.000000e+00 0.000000e+00 -1.000000e+00
outer loop
vertex 6.114544e+00 1.696472e+01 0.000000e+00
vertex 6.431935e+00 1.732298e+01 0.000000e+00
vertex 7.000000e+00 1.650000e+01 0.000000e+00
endloop
endfacet
facet normal 0.000000e+00 0.000000e+00 -1.000000e+00
outer loop
vertex 6.431935e+00 1.732298e+01 0.000000e+00
vertex 6.879463e+00 1.749271e+01 0.000000e+00
vertex 7.000000e+00 1.650000e+01 0.000000e+00
endloop
endfacet
facet normal 0.000000e+00 0.000000e+00 -1.000000e+00
outer loop
vertex 6.879463e+00 1.749271e+01 0.000000e+00
vertex 7.354605e+00 1.743502e+01 0.000000e+00
vertex 7.000000e+00 1.650000e+01 0.000000e+00
endloop
endfacet
facet normal 0.000000e+00 -0.000000e+00 -1.000000e+00
outer loop
vertex 7.354605e+00 1.743502e+01 0.000000e+00
vertex 7.748511e+00 1.716312e+01 0.000000e+00
vertex 7.000000e+00 1.650000e+01 0.000000e+00
endloop
endfacet
facet normal 0.000000e+00 -0.000000e+00 -1.000000e+00
outer loop
vertex 7.748511e+00 1.716312e+01 0.000000e+00
vertex 7.970942e+00 1.673932e+01 0.000000e+00
vertex 7.000000e+00 1.650000e+01 0.000000e+00
endloop
endfacet
facet normal 0.000000e+00 -0.000000e+00 -1.000000e+00
outer loop
vertex 7.970942e+00 1.673932e+01 0.000000e+00
vertex 8.000000e+00 1.650000e+01 0.000000e+00
vertex 7.000000e+00 1.650000e+01 0.000000e+00
endloop
endfacet
facet normal -0.000000e+00 0.000000e+00 -1.000000e+00
outer loop
vertex 8.000000e+00 1.650000e+01 0.000000e+00
vertex 7.970942e+00 1.626068e+01 0.000000e+00
vertex 7.000000e+00 1.650000e+01 0.000000e+00
endloop
endfacet
facet normal -9.708967e-01 2.393046e-01 -9.635955e-03
outer loop
vertex 6.114544e+00 1.696472e+01 0.000000e+00
vertex 6.000000e+00 1.650000e+01 0.000000e+00
vertex 6.025072e+00 1.672252e+01 3.000000e+00
endloop
endfacet
facet normal -9.937122e-01 1.119645e-01 0.000000e+00
outer loop
vertex 6.000000e+00 1.650000e+01 0.000000e+00
vertex 6.000000e+00 1.650000e+01 3.000000e+00
vertex 6.025072e+00 1.672252e+01 3.000000e+00
endloop
endfacet
facet normal -7.484788e-01 6.630944e-01 -9.238827e-03
outer loop
vertex 6.431935e+00 1.732298e+01 0.000000e+00
vertex 6.114544e+00 1.696472e+01 0.000000e+00
vertex 6.218169e+00 1.712349e+01 3.000000e+00
endloop
endfacet
facet normal -8.374148e-01 5.465678e-01 0.000000e+00
outer loop
vertex 6.114544e+00 1.696472e+01 0.000000e+00
vertex 6.114544e+00 1.696472e+01 3.000000e+00
vertex 6.218169e+00 1.712349e+01 3.000000e+00
endloop
endfacet
facet normal -3.545922e-01 9.349829e-01 -8.445033e-03
outer loop
vertex 6.879463e+00 1.749271e+01 0.000000e+00
vertex 6.431935e+00 1.732298e+01 0.000000e+00
vertex 6.566116e+00 1.740097e+01 3.000000e+00
endloop
endfacet
facet normal -5.024894e-01 8.645834e-01 0.000000e+00
outer loop
vertex 6.431935e+00 1.732298e+01 0.000000e+00
vertex 6.431935e+00 1.732298e+01 3.000000e+00
vertex 6.566116e+00 1.740097e+01 3.000000e+00
endloop
endfacet
facet normal 1.205335e-01 9.926827e-01 -7.255495e-03
outer loop
vertex 7.354605e+00 1.743502e+01 0.000000e+00
vertex 6.879463e+00 1.749271e+01 0.000000e+00
vertex 7.000000e+00 1.750000e+01 3.000000e+00
endloop
endfacet
facet normal -6.037850e-02 9.981756e-01 0.000000e+00
outer loop
vertex 6.879463e+00 1.749271e+01 0.000000e+00
vertex 6.879463e+00 1.749271e+01 3.000000e+00
vertex 7.000000e+00 1.750000e+01 3.000000e+00
endloop
endfacet
facet normal 5.680556e-01 8.229706e-01 -5.671602e-03
outer loop
vertex 7.748511e+00 1.716312e+01 0.000000e+00
vertex 7.354605e+00 1.743502e+01 0.000000e+00
vertex 7.433884e+00 1.740097e+01 3.000000e+00
endloop
endfacet
facet normal 3.946117e-01 9.188480e-01 -0.000000e+00
outer loop
vertex 7.354605e+00 1.743502e+01 0.000000e+00
vertex 7.354605e+00 1.743502e+01 3.000000e+00
vertex 7.433884e+00 1.740097e+01 3.000000e+00
endloop
endfacet
facet normal 8.854500e-01 4.647200e-01 -3.695221e-03
outer loop
vertex 7.970942e+00 1.673932e+01 0.000000e+00
vertex 7.748511e+00 1.716312e+01 0.000000e+00
vertex 7.781831e+00 1.712349e+01 3.000000e+00
endloop
endfacet
facet normal 7.654277e-01 6.435219e-01 -0.000000e+00
outer loop
vertex 7.748511e+00 1.716312e+01 0.000000e+00
vertex 7.748511e+00 1.716312e+01 3.000000e+00
vertex 7.781831e+00 1.712349e+01 3.000000e+00
endloop
endfacet
facet normal 9.937122e-01 -1.119645e-01 0.000000e+00
outer loop
vertex 8.000000e+00 1.650000e+01 0.000000e+00
vertex 8.000000e+00 1.650000e+01 3.000000e+00
vertex 7.974928e+00 1.627748e+01 3.000000e+00
endloop
endfacet
facet normal 9.927087e-01 -1.205367e-01 -6.442167e-04
outer loop
vertex 7.974928e+00 1.627748e+01 3.000000e+00
vertex 7.970942e+00 1.626068e+01 0.000000e+00
vertex 8.000000e+00 1.650000e+01 0.000000e+00
endloop
endfacet
facet normal 9.927089e-01 1.205367e-01 0.000000e+00
outer loop
vertex 7.970942e+00 1.673932e+01 3.000000e+00
vertex 8.000000e+00 1.650000e+01 3.000000e+00
vertex 8.000000e+00 1.650000e+01 0.000000e+00
endloop
endfacet
facet normal 9.927089e-01 1.205367e-01 0.000000e+00
outer loop
vertex 8.000000e+00 1.650000e+01 0.000000e+00
vertex 7.970942e+00 1.673932e+01 0.000000e+00
vertex 7.970942e+00 1.673932e+01 3.000000e+00
endloop
endfacet
facet normal 8.971906e-01 -4.416435e-01 0.000000e+00
outer loop
vertex 7.970942e+00 1.626068e+01 0.000000e+00
vertex 7.970942e+00 1.626068e+01 3.000000e+00
vertex 7.781831e+00 1.587651e+01 3.000000e+00
endloop
endfacet
facet normal 8.854500e-01 -4.647200e-01 -3.695221e-03
outer loop
vertex 7.781831e+00 1.587651e+01 3.000000e+00
vertex 7.748511e+00 1.583688e+01 0.000000e+00
vertex 7.970942e+00 1.626068e+01 0.000000e+00
endloop
endfacet
facet normal 6.030397e-01 -7.977112e-01 0.000000e+00
outer loop
vertex 7.748511e+00 1.583688e+01 0.000000e+00
vertex 7.748511e+00 1.583688e+01 3.000000e+00
vertex 7.433884e+00 1.559903e+01 3.000000e+00
endloop
endfacet
facet normal 5.680556e-01 -8.229706e-01 -5.671602e-03
outer loop
vertex 7.433884e+00 1.559903e+01 3.000000e+00
vertex 7.354605e+00 1.556498e+01 0.000000e+00
vertex 7.748511e+00 1.583688e+01 0.000000e+00
endloop
endfacet
facet normal 1.802550e-01 -9.836199e-01 0.000000e+00
outer loop
vertex 7.354605e+00 1.556498e+01 0.000000e+00
vertex 7.354605e+00 1.556498e+01 3.000000e+00
vertex 7.000000e+00 1.550000e+01 3.000000e+00
endloop
endfacet
facet normal 1.205335e-01 -9.926827e-01 -7.255495e-03
outer loop
vertex 7.000000e+00 1.550000e+01 3.000000e+00
vertex 6.879463e+00 1.550729e+01 0.000000e+00
vertex 7.354605e+00 1.556498e+01 0.000000e+00
endloop
endfacet
facet normal -2.809796e-01 -9.597137e-01 0.000000e+00
outer loop
vertex 6.879463e+00 1.550729e+01 0.000000e+00
vertex 6.879463e+00 1.550729e+01 3.000000e+00
vertex 6.566116e+00 1.559903e+01 3.000000e+00
endloop
endfacet
facet normal -3.545922e-01 -9.349829e-01 -8.445033e-03
outer loop
vertex 6.566116e+00 1.559903e+01 3.000000e+00
vertex 6.431935e+00 1.567702e+01 0.000000e+00
vertex 6.879463e+00 1.550729e+01 0.000000e+00
endloop
endfacet
facet normal -6.822788e-01 -7.310920e-01 0.000000e+00
outer loop
vertex 6.431935e+00 1.567702e+01 0.000000e+00
vertex 6.431935e+00 1.567702e+01 3.000000e+00
vertex 6.218169e+00 1.587651e+01 3.000000e+00
endloop
endfacet
facet normal -7.484788e-01 -6.630944e-01 -9.238827e-03
outer loop
vertex 6.218169e+00 1.587651e+01 3.000000e+00
vertex 6.114544e+00 1.603528e+01 0.000000e+00
vertex 6.431935e+00 1.567702e+01 0.000000e+00
endloop
endfacet
facet normal -9.380419e-01 -3.465219e-01 0.000000e+00
outer loop
vertex 6.114544e+00 1.603528e+01 0.000000e+00
vertex 6.114544e+00 1.603528e+01 3.000000e+00
vertex 6.025072e+00 1.627748e+01 3.000000e+00
endloop
endfacet
facet normal -9.708967e-01 -2.393046e-01 -9.635955e-03
outer loop
vertex 6.025072e+00 1.627748e+01 3.000000e+00
vertex 6.000000e+00 1.650000e+01 0.000000e+00
vertex 6.114544e+00 1.603528e+01 0.000000e+00
endloop
endfacet
facet normal -9.937122e-01 -1.119645e-01 0.000000e+00
outer loop
vertex 6.025072e+00 1.627748e+01 3.000000e+00
vertex 6.000000e+00 1.650000e+01 3.000000e+00
vertex 6.000000e+00 1.650000e+01 0.000000e+00
endloop
endfacet
facet normal -8.374148e-01 -5.465678e-01 0.000000e+00
outer loop
vertex 6.218169e+00 1.587651e+01 3.000000e+00
vertex 6.114544e+00 1.603528e+01 3.000000e+00
vertex 6.114544e+00 1.603528e+01 0.000000e+00
endloop
endfacet
facet normal -5.024894e-01 -8.645834e-01 0.000000e+00
outer loop
vertex 6.566116e+00 1.559903e+01 3.000000e+00
vertex 6.431935e+00 1.567702e+01 3.000000e+00
vertex 6.431935e+00 1.567702e+01 0.000000e+00
endloop
endfacet
facet normal -6.037850e-02 -9.981756e-01 0.000000e+00
outer loop
vertex 7.000000e+00 1.550000e+01 3.000000e+00
vertex 6.879463e+00 1.550729e+01 3.000000e+00
vertex 6.879463e+00 1.550729e+01 0.000000e+00
endloop
endfacet
facet normal 3.946117e-01 -9.188480e-01 0.000000e+00
outer loop
vertex 7.433884e+00 1.559903e+01 3.000000e+00
vertex 7.354605e+00 1.556498e+01 3.000000e+00
vertex 7.354605e+00 1.556498e+01 0.000000e+00
endloop
endfacet
facet normal 7.654277e-01 -6.435219e-01 0.000000e+00
outer loop
vertex 7.781831e+00 1.587651e+01 3.000000e+00
vertex 7.748511e+00 1.583688e+01 3.000000e+00
vertex 7.748511e+00 1.583688e+01 0.000000e+00
endloop
endfacet
facet normal 9.729711e-01 -2.309269e-01 0.000000e+00
outer loop
vertex 7.974928e+00 1.627748e+01 3.000000e+00
vertex 7.970942e+00 1.626068e+01 3.000000e+00
vertex 7.970942e+00 1.626068e+01 0.000000e+00
endloop
endfacet
facet normal 8.971906e-01 4.416435e-01 0.000000e+00
outer loop
vertex 7.781831e+00 1.712349e+01 3.000000e+00
vertex 7.970942e+00 1.673932e+01 3.000000e+00
vertex 7.970942e+00 1.673932e+01 0.000000e+00
endloop
endfacet
facet normal 6.030397e-01 7.977112e-01 0.000000e+00
outer loop
vertex 7.433884e+00 1.740097e+01 3.000000e+00
vertex 7.748511e+00 1.716312e+01 3.000000e+00
vertex 7.748511e+00 1.716312e+01 0.000000e+00
endloop
endfacet
facet normal 1.802550e-01 9.836199e-01 0.000000e+00
outer loop
vertex 7.000000e+00 1.750000e+01 3.000000e+00
vertex 7.354605e+00 1.743502e+01 3.000000e+00
vertex 7.354605e+00 1.743502e+01 0.000000e+00
endloop
endfacet
facet normal -2.809796e-01 9.597137e-01 0.000000e+00
outer loop
vertex 6.566116e+00 1.740097e+01 3.000000e+00
vertex 6.879463e+00 1.749271e+01 3.000000e+00
vertex 6.879463e+00 1.749271e+01 0.000000e+00
endloop
endfacet
facet normal -6.822788e-01 7.310920e-01 0.000000e+00
outer loop
vertex 6.218169e+00 1.712349e+01 3.000000e+00
vertex 6.431935e+00 1.732298e+01 3.000000e+00
vertex 6.431935e+00 1.732298e+01 0.000000e+00
endloop
endfacet
facet normal -9.380419e-01 3.465219e-01 0.000000e+00
outer loop
vertex 6.025072e+00 1.672252e+01 3.000000e+00
vertex 6.114544e+00 1.696472e+01 3.000000e+00
vertex 6.114544e+00 1.696472e+01 0.000000e+00
endloop
endfacet
facet normal 3.930208e-01 9.151436e-01 8.970443e-02
outer loop
vertex 7.390916e+00 1.740097e+01 3.188255e+00
vertex 7.433884e+00 1.740097e+01 3.000000e+00
vertex 7.354605e+00 1.743502e+01 3.000000e+00
endloop
endfacet
facet normal -5.606562e-02 9.268752e-01 3.711590e-01
outer loop
vertex 6.609084e+00 1.740097e+01 3.188255e+00
vertex 7.000000e+00 1.750000e+01 3.000000e+00
vertex 6.879463e+00 1.749271e+01 3.000000e+00
endloop
endfacet
facet normal 5.943519e-01 7.862187e-01 1.691329e-01
outer loop
vertex 7.704406e+00 1.712349e+01 3.339224e+00
vertex 7.748511e+00 1.716312e+01 3.000000e+00
vertex 7.433884e+00 1.740097e+01 3.000000e+00
endloop
endfacet
facet normal 7.540075e-01 6.339206e-01 1.720973e-01
outer loop
vertex 7.704406e+00 1.712349e+01 3.339224e+00
vertex 7.781831e+00 1.712349e+01 3.000000e+00
vertex 7.748511e+00 1.716312e+01 3.000000e+00
endloop
endfacet
facet normal 4.950128e-01 7.740331e-01 3.947595e-01
outer loop
vertex 7.704406e+00 1.712349e+01 3.339224e+00
vertex 7.390916e+00 1.740097e+01 3.188255e+00
vertex 7.270522e+00 1.740097e+01 3.339224e+00
endloop
endfacet
facet normal 2.747114e-01 7.740331e-01 5.704440e-01
outer loop
vertex 7.487464e+00 1.712349e+01 3.611260e+00
vertex 7.270522e+00 1.740097e+01 3.339224e+00
vertex 7.096548e+00 1.740097e+01 3.423005e+00
endloop
endfacet
facet normal 0.000000e+00 7.740331e-01 6.331451e-01
outer loop
vertex 7.173974e+00 1.712349e+01 3.762229e+00
vertex 7.096548e+00 1.740097e+01 3.423005e+00
vertex 6.903452e+00 1.740097e+01 3.423005e+00
endloop
endfacet
facet normal -2.747114e-01 7.740331e-01 5.704440e-01
outer loop
vertex 6.826026e+00 1.712349e+01 3.762229e+00
vertex 6.903452e+00 1.740097e+01 3.423005e+00
vertex 6.729478e+00 1.740097e+01 3.339224e+00
endloop
endfacet
facet normal -4.950128e-01 7.740331e-01 3.947595e-01
outer loop
vertex 6.512536e+00 1.712349e+01 3.611260e+00
vertex 6.729478e+00 1.740097e+01 3.339224e+00
vertex 6.609084e+00 1.740097e+01 3.188255e+00
endloop
endfacet
facet normal -4.992168e-01 8.589526e-01 1.139430e-01
outer loop
vertex 6.609084e+00 1.740097e+01 3.188255e+00
vertex 6.566116e+00 1.740097e+01 3.000000e+00
vertex 6.431935e+00 1.732298e+01 3.000000e+00
endloop
endfacet
facet normal -5.828129e-01 7.808462e-01 2.249630e-01
outer loop
vertex 6.431935e+00 1.732298e+01 3.000000e+00
vertex 6.295594e+00 1.712349e+01 3.339224e+00
vertex 6.609084e+00 1.740097e+01 3.188255e+00
endloop
endfacet
facet normal 8.773519e-01 4.318779e-01 2.091293e-01
outer loop
vertex 7.878380e+00 1.672252e+01 3.423005e+00
vertex 7.970942e+00 1.673932e+01 3.000000e+00
vertex 7.781831e+00 1.712349e+01 3.000000e+00
endloop
endfacet
facet normal 7.077120e-01 4.249908e-01 5.643815e-01
outer loop
vertex 7.878380e+00 1.672252e+01 3.423005e+00
vertex 7.704406e+00 1.712349e+01 3.339224e+00
vertex 7.487464e+00 1.712349e+01 3.611260e+00
endloop
endfacet
facet normal 3.927506e-01 4.249908e-01 8.155549e-01
outer loop
vertex 7.607858e+00 1.672252e+01 3.762229e+00
vertex 7.487464e+00 1.712349e+01 3.611260e+00
vertex 7.173974e+00 1.712349e+01 3.762229e+00
endloop
endfacet
facet normal 0.000000e+00 4.249908e-01 9.051977e-01
outer loop
vertex 7.216942e+00 1.672252e+01 3.950484e+00
vertex 7.173974e+00 1.712349e+01 3.762229e+00
vertex 6.826026e+00 1.712349e+01 3.762229e+00
endloop
endfacet
facet normal -3.927506e-01 4.249908e-01 8.155549e-01
outer loop
vertex 6.783058e+00 1.672252e+01 3.950484e+00
vertex 6.826026e+00 1.712349e+01 3.762229e+00
vertex 6.512536e+00 1.712349e+01 3.611260e+00
endloop
endfacet
facet normal -7.077120e-01 4.249908e-01 5.643815e-01
outer loop
vertex 6.392142e+00 1.672252e+01 3.762229e+00
vertex 6.512536e+00 1.712349e+01 3.611260e+00
vertex 6.295594e+00 1.712349e+01 3.339224e+00
endloop
endfacet
facet normal -8.225252e-01 5.368496e-01 1.877360e-01
outer loop
vertex 6.295594e+00 1.712349e+01 3.339224e+00
vertex 6.218169e+00 1.712349e+01 3.000000e+00
vertex 6.114544e+00 1.696472e+01 3.000000e+00
endloop
endfacet
facet normal -8.646608e-01 4.295785e-01 2.604305e-01
outer loop
vertex 6.114544e+00 1.696472e+01 3.000000e+00
vertex 6.121620e+00 1.672252e+01 3.423005e+00
vertex 6.295594e+00 1.712349e+01 3.339224e+00
endloop
endfacet
facet normal 9.610655e-01 0.000000e+00 2.763206e-01
outer loop
vertex 7.878380e+00 1.672252e+01 3.423005e+00
vertex 7.878380e+00 1.627748e+01 3.423005e+00
vertex 8.000000e+00 1.650000e+01 3.000000e+00
endloop
endfacet
facet normal 9.690986e-01 -1.091912e-01 2.211904e-01
outer loop
vertex 7.878380e+00 1.627748e+01 3.423005e+00
vertex 7.974928e+00 1.627748e+01 3.000000e+00
vertex 8.000000e+00 1.650000e+01 3.000000e+00
endloop
endfacet
facet normal 7.818315e-01 -0.000000e+00 6.234898e-01
outer loop
vertex 7.878380e+00 1.627748e+01 3.423005e+00
vertex 7.878380e+00 1.672252e+01 3.423005e+00
vertex 7.607858e+00 1.672252e+01 3.762229e+00
endloop
endfacet
facet normal 4.338837e-01 -0.000000e+00 9.009689e-01
outer loop
vertex 7.607858e+00 1.627748e+01 3.762229e+00
vertex 7.607858e+00 1.672252e+01 3.762229e+00
vertex 7.216942e+00 1.672252e+01 3.950484e+00
endloop
endfacet
facet normal 0.000000e+00 -0.000000e+00 1.000000e+00
outer loop
vertex 7.216942e+00 1.627748e+01 3.950484e+00
vertex 7.216942e+00 1.672252e+01 3.950484e+00
vertex 6.783058e+00 1.672252e+01 3.950484e+00
endloop
endfacet
facet normal -4.338837e-01 0.000000e+00 9.009689e-01
outer loop
vertex 6.783058e+00 1.627748e+01 3.950484e+00
vertex 6.783058e+00 1.672252e+01 3.950484e+00
vertex 6.392142e+00 1.672252e+01 3.762229e+00
endloop
endfacet
facet normal -7.818315e-01 0.000000e+00 6.234898e-01
outer loop
vertex 6.392142e+00 1.627748e+01 3.762229e+00
vertex 6.392142e+00 1.672252e+01 3.762229e+00
vertex 6.121620e+00 1.672252e+01 3.423005e+00
endloop
endfacet
facet normal -9.690986e-01 1.091912e-01 2.211904e-01
outer loop
vertex 6.121620e+00 1.672252e+01 3.423005e+00
vertex 6.025072e+00 1.672252e+01 3.000000e+00
vertex 6.000000e+00 1.650000e+01 3.000000e+00
endloop
endfacet
facet normal -9.610655e-01 0.000000e+00 2.763206e-01
outer loop
vertex 6.000000e+00 1.650000e+01 3.000000e+00
vertex 6.121620e+00 1.627748e+01 3.423005e+00
vertex 6.121620e+00 1.672252e+01 3.423005e+00
endloop
endfacet
facet normal 8.825025e-01 -4.249908e-01 2.014254e-01
outer loop
vertex 7.878380e+00 1.627748e+01 3.423005e+00
vertex 7.704406e+00 1.587651e+01 3.339224e+00
vertex 7.781831e+00 1.587651e+01 3.000000e+00
endloop
endfacet
facet normal 8.773519e-01 -4.318779e-01 2.091293e-01
outer loop
vertex 7.781831e+00 1.587651e+01 3.000000e+00
vertex 7.970942e+00 1.626068e+01 3.000000e+00
vertex 7.878380e+00 1.627748e+01 3.423005e+00
endloop
endfacet
facet normal 7.077120e-01 -4.249908e-01 5.643815e-01
outer loop
vertex 7.704406e+00 1.587651e+01 3.339224e+00
vertex 7.878380e+00 1.627748e+01 3.423005e+00
vertex 7.607858e+00 1.627748e+01 3.762229e+00
endloop
endfacet
facet normal 3.927506e-01 -4.249908e-01 8.155549e-01
outer loop
vertex 7.487464e+00 1.587651e+01 3.611260e+00
vertex 7.607858e+00 1.627748e+01 3.762229e+00
vertex 7.216942e+00 1.627748e+01 3.950484e+00
endloop
endfacet
facet normal 0.000000e+00 -4.249908e-01 9.051977e-01
outer loop
vertex 7.173974e+00 1.587651e+01 3.762229e+00
vertex 7.216942e+00 1.627748e+01 3.950484e+00
vertex 6.783058e+00 1.627748e+01 3.950484e+00
endloop
endfacet
facet normal -3.927506e-01 -4.249908e-01 8.155549e-01
outer loop
vertex 6.826026e+00 1.587651e+01 3.762229e+00
vertex 6.783058e+00 1.627748e+01 3.950484e+00
vertex 6.392142e+00 1.627748e+01 3.762229e+00
endloop
endfacet
facet normal -7.077120e-01 -4.249908e-01 5.643815e-01
outer loop
vertex 6.512536e+00 1.587651e+01 3.611260e+00
vertex 6.392142e+00 1.627748e+01 3.762229e+00
vertex 6.121620e+00 1.627748e+01 3.423005e+00
endloop
endfacet
facet normal -8.646608e-01 -4.295785e-01 2.604305e-01
outer loop
vertex 6.295594e+00 1.587651e+01 3.339224e+00
vertex 6.121620e+00 1.627748e+01 3.423005e+00
vertex 6.114544e+00 1.603528e+01 3.000000e+00
endloop
endfacet
facet normal -9.172541e-01 -3.388427e-01 2.093573e-01
outer loop
vertex 6.121620e+00 1.627748e+01 3.423005e+00
vertex 6.025072e+00 1.627748e+01 3.000000e+00
vertex 6.114544e+00 1.603528e+01 3.000000e+00
endloop
endfacet
facet normal 6.172708e-01 -7.740331e-01 1.408880e-01
outer loop
vertex 7.704406e+00 1.587651e+01 3.339224e+00
vertex 7.390916e+00 1.559903e+01 3.188255e+00
vertex 7.433884e+00 1.559903e+01 3.000000e+00
endloop
endfacet
facet normal 5.943519e-01 -7.862187e-01 1.691329e-01
outer loop
vertex 7.433884e+00 1.559903e+01 3.000000e+00
vertex 7.748511e+00 1.583688e+01 3.000000e+00
vertex 7.704406e+00 1.587651e+01 3.339224e+00
endloop
endfacet
facet normal 4.950128e-01 -7.740331e-01 3.947595e-01
outer loop
vertex 7.390916e+00 1.559903e+01 3.188255e+00
vertex 7.704406e+00 1.587651e+01 3.339224e+00
vertex 7.487464e+00 1.587651e+01 3.611260e+00
endloop
endfacet
facet normal -4.950128e-01 -7.740331e-01 3.947595e-01
outer loop
vertex 6.729478e+00 1.559903e+01 3.339224e+00
vertex 6.512536e+00 1.587651e+01 3.611260e+00
vertex 6.295594e+00 1.587651e+01 3.339224e+00
endloop
endfacet
facet normal -5.828129e-01 -7.808462e-01 2.249630e-01
outer loop
vertex 6.609084e+00 1.559903e+01 3.188255e+00
vertex 6.295594e+00 1.587651e+01 3.339224e+00
vertex 6.431935e+00 1.567702e+01 3.000000e+00
endloop
endfacet
facet normal -6.741535e-01 -7.223854e-01 1.538711e-01
outer loop
vertex 6.295594e+00 1.587651e+01 3.339224e+00
vertex 6.218169e+00 1.587651e+01 3.000000e+00
vertex 6.431935e+00 1.567702e+01 3.000000e+00
endloop
endfacet
facet normal 1.784366e-01 -9.736972e-01 1.416835e-01
outer loop
vertex 7.390916e+00 1.559903e+01 3.188255e+00
vertex 7.000000e+00 1.550000e+01 3.000000e+00
vertex 7.354605e+00 1.556498e+01 3.000000e+00
endloop
endfacet
facet normal -2.804036e-01 -9.577462e-01 6.400029e-02
outer loop
vertex 6.609084e+00 1.559903e+01 3.188255e+00
vertex 6.566116e+00 1.559903e+01 3.000000e+00
vertex 6.879463e+00 1.550729e+01 3.000000e+00
endloop
endfacet
facet normal 3.595790e-01 -7.392864e-01 5.693493e-01
outer loop
vertex 7.487464e+00 1.587651e+01 3.611260e+00
vertex 7.193931e+00 1.574996e+01 3.632318e+00
vertex 7.220000e+00 1.566844e+01 3.510000e+00
endloop
endfacet
facet normal 3.295414e-01 -6.504892e-01 6.842999e-01
outer loop
vertex 7.487464e+00 1.587651e+01 3.611260e+00
vertex 7.173974e+00 1.587651e+01 3.762229e+00
vertex 7.193931e+00 1.574996e+01 3.632318e+00
endloop
endfacet
facet normal 4.378933e-01 -7.802344e-01 4.466360e-01
outer loop
vertex 7.220000e+00 1.566844e+01 3.510000e+00
vertex 7.270522e+00 1.559903e+01 3.339224e+00
vertex 7.487464e+00 1.587651e+01 3.611260e+00
endloop
endfacet
facet normal 0.000000e+00 -8.880136e-01 4.598171e-01
outer loop
vertex 6.914581e+00 1.564408e+01 3.510000e+00
vertex 6.903452e+00 1.559903e+01 3.423005e+00
vertex 7.096548e+00 1.559903e+01 3.423005e+00
endloop
endfacet
facet normal 6.566562e-02 -8.233678e-01 5.636962e-01
outer loop
vertex 7.096548e+00 1.559903e+01 3.423005e+00
vertex 7.220000e+00 1.566844e+01 3.510000e+00
vertex 6.914581e+00 1.564408e+01 3.510000e+00
endloop
endfacet
facet normal -3.981846e-01 -3.972233e-01 8.268389e-01
outer loop
vertex 6.826026e+00 1.587651e+01 3.762229e+00
vertex 6.512536e+00 1.587651e+01 3.611260e+00
vertex 6.660212e+00 1.583000e+01 3.660033e+00
endloop
endfacet
facet normal -4.686002e-01 -7.042352e-01 5.333541e-01
outer loop
vertex 6.512536e+00 1.587651e+01 3.611260e+00
vertex 6.620000e+00 1.572831e+01 3.510000e+00
vertex 6.630209e+00 1.578029e+01 3.587597e+00
endloop
endfacet
facet normal -8.481402e-01 -5.044507e-01 -1.618261e-01
outer loop
vertex 6.512536e+00 1.587651e+01 3.611260e+00
vertex 6.729478e+00 1.559903e+01 3.339224e+00
vertex 6.620000e+00 1.572831e+01 3.510000e+00
endloop
endfacet
facet normal -4.147217e-01 -6.609794e-01 6.253896e-01
outer loop
vertex 6.630209e+00 1.578029e+01 3.587597e+00
vertex 6.660212e+00 1.583000e+01 3.660033e+00
vertex 6.512536e+00 1.587651e+01 3.611260e+00
endloop
endfacet
facet normal -2.107488e-01 -8.741108e-01 4.376245e-01
outer loop
vertex 6.729478e+00 1.559903e+01 3.339224e+00
vertex 6.903452e+00 1.559903e+01 3.423005e+00
vertex 6.880022e+00 1.564823e+01 3.510000e+00
endloop
endfacet
facet normal -2.595435e-01 -8.427501e-01 4.716030e-01
outer loop
vertex 6.880022e+00 1.564823e+01 3.510000e+00
vertex 6.620000e+00 1.572831e+01 3.510000e+00
vertex 6.729478e+00 1.559903e+01 3.339224e+00
endloop
endfacet
facet normal -2.311513e-02 -6.398826e-01 7.681250e-01
outer loop
vertex 6.826026e+00 1.587651e+01 3.762229e+00
vertex 6.834809e+00 1.583000e+01 3.723749e+00
vertex 7.121372e+00 1.583000e+01 3.732372e+00
endloop
endfacet
facet normal 0.000000e+00 -5.402179e-01 8.415252e-01
outer loop
vertex 7.121372e+00 1.583000e+01 3.732372e+00
vertex 7.173974e+00 1.587651e+01 3.762229e+00
vertex 6.826026e+00 1.587651e+01 3.762229e+00
endloop
endfacet
facet normal 2.085149e-01 -6.843554e-01 6.986982e-01
outer loop
vertex 7.121372e+00 1.583000e+01 3.732372e+00
vertex 7.193931e+00 1.574996e+01 3.632318e+00
vertex 7.173974e+00 1.587651e+01 3.762229e+00
endloop
endfacet
facet normal -2.622403e-01 -6.440724e-01 7.186103e-01
outer loop
vertex 6.660212e+00 1.583000e+01 3.660033e+00
vertex 6.834809e+00 1.583000e+01 3.723749e+00
vertex 6.826026e+00 1.587651e+01 3.762229e+00
endloop
endfacet
facet normal -1.055408e-01 -8.774766e-01 4.678632e-01
outer loop
vertex 6.914581e+00 1.564408e+01 3.510000e+00
vertex 6.880022e+00 1.564823e+01 3.510000e+00
vertex 6.903452e+00 1.559903e+01 3.423005e+00
endloop
endfacet
facet normal 2.019893e-01 -8.850279e-01 4.194351e-01
outer loop
vertex 7.220000e+00 1.566844e+01 3.510000e+00
vertex 7.096548e+00 1.559903e+01 3.423005e+00
vertex 7.270522e+00 1.559903e+01 3.339224e+00
endloop
endfacet
facet normal -5.606562e-02 -9.268752e-01 3.711590e-01
outer loop
vertex 6.879463e+00 1.550729e+01 3.000000e+00
vertex 7.000000e+00 1.550000e+01 3.000000e+00
vertex 6.609084e+00 1.559903e+01 3.188255e+00
endloop
endfacet
facet normal -1.782182e-01 -9.736729e-01 1.421243e-01
outer loop
vertex 7.000000e+00 1.550000e+01 3.000000e+00
vertex 6.729478e+00 1.559903e+01 3.339224e+00
vertex 6.609084e+00 1.559903e+01 3.188255e+00
endloop
endfacet
facet normal -9.890365e-02 -9.736729e-01 2.053756e-01
outer loop
vertex 7.000000e+00 1.550000e+01 3.000000e+00
vertex 6.903452e+00 1.559903e+01 3.423005e+00
vertex 6.729478e+00 1.559903e+01 3.339224e+00
endloop
endfacet
facet normal 0.000000e+00 -9.736729e-01 2.279497e-01
outer loop
vertex 7.000000e+00 1.550000e+01 3.000000e+00
vertex 7.096548e+00 1.559903e+01 3.423005e+00
vertex 6.903452e+00 1.559903e+01 3.423005e+00
endloop
endfacet
facet normal 9.890365e-02 -9.736729e-01 2.053756e-01
outer loop
vertex 7.000000e+00 1.550000e+01 3.000000e+00
vertex 7.270522e+00 1.559903e+01 3.339224e+00
vertex 7.096548e+00 1.559903e+01 3.423005e+00
endloop
endfacet
facet normal 1.782182e-01 -9.736729e-01 1.421243e-01
outer loop
vertex 7.000000e+00 1.550000e+01 3.000000e+00
vertex 7.390916e+00 1.559903e+01 3.188255e+00
vertex 7.270522e+00 1.559903e+01 3.339224e+00
endloop
endfacet
facet normal 3.930208e-01 -9.151436e-01 8.970443e-02
outer loop
vertex 7.354605e+00 1.556498e+01 3.000000e+00
vertex 7.433884e+00 1.559903e+01 3.000000e+00
vertex 7.390916e+00 1.559903e+01 3.188255e+00
endloop
endfacet
facet normal -4.992168e-01 -8.589526e-01 1.139430e-01
outer loop
vertex 6.431935e+00 1.567702e+01 3.000000e+00
vertex 6.566116e+00 1.559903e+01 3.000000e+00
vertex 6.609084e+00 1.559903e+01 3.188255e+00
endloop
endfacet
facet normal -4.950128e-01 -7.740331e-01 3.947595e-01
outer loop
vertex 6.295594e+00 1.587651e+01 3.339224e+00
vertex 6.609084e+00 1.559903e+01 3.188255e+00
vertex 6.729478e+00 1.559903e+01 3.339224e+00
endloop
endfacet
facet normal 4.950128e-01 -7.740331e-01 3.947595e-01
outer loop
vertex 7.487464e+00 1.587651e+01 3.611260e+00
vertex 7.270522e+00 1.559903e+01 3.339224e+00
vertex 7.390916e+00 1.559903e+01 3.188255e+00
endloop
endfacet
facet normal 7.540075e-01 -6.339206e-01 1.720973e-01
outer loop
vertex 7.748511e+00 1.583688e+01 3.000000e+00
vertex 7.781831e+00 1.587651e+01 3.000000e+00
vertex 7.704406e+00 1.587651e+01 3.339224e+00
endloop
endfacet
facet normal -8.225252e-01 -5.368496e-01 1.877360e-01
outer loop
vertex 6.114544e+00 1.603528e+01 3.000000e+00
vertex 6.218169e+00 1.587651e+01 3.000000e+00
vertex 6.295594e+00 1.587651e+01 3.339224e+00
endloop
endfacet
facet normal -7.077120e-01 -4.249908e-01 5.643815e-01
outer loop
vertex 6.121620e+00 1.627748e+01 3.423005e+00
vertex 6.295594e+00 1.587651e+01 3.339224e+00
vertex 6.512536e+00 1.587651e+01 3.611260e+00
endloop
endfacet
facet normal -3.927506e-01 -4.249908e-01 8.155549e-01
outer loop
vertex 6.392142e+00 1.627748e+01 3.762229e+00
vertex 6.512536e+00 1.587651e+01 3.611260e+00
vertex 6.826026e+00 1.587651e+01 3.762229e+00
endloop
endfacet
facet normal 0.000000e+00 -4.249908e-01 9.051977e-01
outer loop
vertex 6.783058e+00 1.627748e+01 3.950484e+00
vertex 6.826026e+00 1.587651e+01 3.762229e+00
vertex 7.173974e+00 1.587651e+01 3.762229e+00
endloop
endfacet
facet normal 3.927506e-01 -4.249908e-01 8.155549e-01
outer loop
vertex 7.216942e+00 1.627748e+01 3.950484e+00
vertex 7.173974e+00 1.587651e+01 3.762229e+00
vertex 7.487464e+00 1.587651e+01 3.611260e+00
endloop
endfacet
facet normal 7.077120e-01 -4.249908e-01 5.643815e-01
outer loop
vertex 7.607858e+00 1.627748e+01 3.762229e+00
vertex 7.487464e+00 1.587651e+01 3.611260e+00
vertex 7.704406e+00 1.587651e+01 3.339224e+00
endloop
endfacet
facet normal 9.498315e-01 -2.254349e-01 2.167929e-01
outer loop
vertex 7.970942e+00 1.626068e+01 3.000000e+00
vertex 7.974928e+00 1.627748e+01 3.000000e+00
vertex 7.878380e+00 1.627748e+01 3.423005e+00
endloop
endfacet
facet normal -9.690986e-01 -1.091912e-01 2.211904e-01
outer loop
vertex 6.000000e+00 1.650000e+01 3.000000e+00
vertex 6.025072e+00 1.627748e+01 3.000000e+00
vertex 6.121620e+00 1.627748e+01 3.423005e+00
endloop
endfacet
facet normal -7.818315e-01 0.000000e+00 6.234898e-01
outer loop
vertex 6.121620e+00 1.672252e+01 3.423005e+00
vertex 6.121620e+00 1.627748e+01 3.423005e+00
vertex 6.392142e+00 1.627748e+01 3.762229e+00
endloop
endfacet
facet normal -4.338837e-01 0.000000e+00 9.009689e-01
outer loop
vertex 6.392142e+00 1.672252e+01 3.762229e+00
vertex 6.392142e+00 1.627748e+01 3.762229e+00
vertex 6.783058e+00 1.627748e+01 3.950484e+00
endloop
endfacet
facet normal 0.000000e+00 0.000000e+00 1.000000e+00
outer loop
vertex 6.783058e+00 1.672252e+01 3.950484e+00
vertex 6.783058e+00 1.627748e+01 3.950484e+00
vertex 7.216942e+00 1.627748e+01 3.950484e+00
endloop
endfacet
facet normal 4.338837e-01 0.000000e+00 9.009689e-01
outer loop
vertex 7.216942e+00 1.672252e+01 3.950484e+00
vertex 7.216942e+00 1.627748e+01 3.950484e+00
vertex 7.607858e+00 1.627748e+01 3.762229e+00
endloop
endfacet
facet normal 7.818315e-01 0.000000e+00 6.234898e-01
outer loop
vertex 7.607858e+00 1.672252e+01 3.762229e+00
vertex 7.607858e+00 1.627748e+01 3.762229e+00
vertex 7.878380e+00 1.627748e+01 3.423005e+00
endloop
endfacet
facet normal 9.691130e-01 1.176716e-01 2.167335e-01
outer loop
vertex 8.000000e+00 1.650000e+01 3.000000e+00
vertex 7.970942e+00 1.673932e+01 3.000000e+00
vertex 7.878380e+00 1.672252e+01 3.423005e+00
endloop
endfacet
facet normal -9.172541e-01 3.388427e-01 2.093573e-01
outer loop
vertex 6.114544e+00 1.696472e+01 3.000000e+00
vertex 6.025072e+00 1.672252e+01 3.000000e+00
vertex 6.121620e+00 1.672252e+01 3.423005e+00
endloop
endfacet
facet normal -7.077120e-01 4.249908e-01 5.643815e-01
outer loop
vertex 6.295594e+00 1.712349e+01 3.339224e+00
vertex 6.121620e+00 1.672252e+01 3.423005e+00
vertex 6.392142e+00 1.672252e+01 3.762229e+00
endloop
endfacet
facet normal -3.927506e-01 4.249908e-01 8.155549e-01
outer loop
vertex 6.512536e+00 1.712349e+01 3.611260e+00
vertex 6.392142e+00 1.672252e+01 3.762229e+00
vertex 6.783058e+00 1.672252e+01 3.950484e+00
endloop
endfacet
facet normal 0.000000e+00 4.249908e-01 9.051977e-01
outer loop
vertex 6.826026e+00 1.712349e+01 3.762229e+00
vertex 6.783058e+00 1.672252e+01 3.950484e+00
vertex 7.216942e+00 1.672252e+01 3.950484e+00
endloop
endfacet
facet normal 3.927506e-01 4.249908e-01 8.155549e-01
outer loop
vertex 7.173974e+00 1.712349e+01 3.762229e+00
vertex 7.216942e+00 1.672252e+01 3.950484e+00
vertex 7.607858e+00 1.672252e+01 3.762229e+00
endloop
endfacet
facet normal 7.077120e-01 4.249908e-01 5.643815e-01
outer loop
vertex 7.487464e+00 1.712349e+01 3.611260e+00
vertex 7.607858e+00 1.672252e+01 3.762229e+00
vertex 7.878380e+00 1.672252e+01 3.423005e+00
endloop
endfacet
facet normal 8.825025e-01 4.249908e-01 2.014254e-01
outer loop
vertex 7.781831e+00 1.712349e+01 3.000000e+00
vertex 7.704406e+00 1.712349e+01 3.339224e+00
vertex 7.878380e+00 1.672252e+01 3.423005e+00
endloop
endfacet
facet normal -6.741535e-01 7.223854e-01 1.538711e-01
outer loop
vertex 6.431935e+00 1.732298e+01 3.000000e+00
vertex 6.218169e+00 1.712349e+01 3.000000e+00
vertex 6.295594e+00 1.712349e+01 3.339224e+00
endloop
endfacet
facet normal -4.950128e-01 7.740331e-01 3.947595e-01
outer loop
vertex 6.609084e+00 1.740097e+01 3.188255e+00
vertex 6.295594e+00 1.712349e+01 3.339224e+00
vertex 6.512536e+00 1.712349e+01 3.611260e+00
endloop
endfacet
facet normal -2.747114e-01 7.740331e-01 5.704440e-01
outer loop
vertex 6.729478e+00 1.740097e+01 3.339224e+00
vertex 6.512536e+00 1.712349e+01 3.611260e+00
vertex 6.826026e+00 1.712349e+01 3.762229e+00
endloop
endfacet
facet normal 0.000000e+00 7.740331e-01 6.331451e-01
outer loop
vertex 6.903452e+00 1.740097e+01 3.423005e+00
vertex 6.826026e+00 1.712349e+01 3.762229e+00
vertex 7.173974e+00 1.712349e+01 3.762229e+00
endloop
endfacet
facet normal 2.747114e-01 7.740331e-01 5.704440e-01
outer loop
vertex 7.096548e+00 1.740097e+01 3.423005e+00
vertex 7.173974e+00 1.712349e+01 3.762229e+00
vertex 7.487464e+00 1.712349e+01 3.611260e+00
endloop
endfacet
facet normal 4.950128e-01 7.740331e-01 3.947595e-01
outer loop
vertex 7.270522e+00 1.740097e+01 3.339224e+00
vertex 7.487464e+00 1.712349e+01 3.611260e+00
vertex 7.704406e+00 1.712349e+01 3.339224e+00
endloop
endfacet
facet normal 6.172708e-01 7.740331e-01 1.408880e-01
outer loop
vertex 7.433884e+00 1.740097e+01 3.000000e+00
vertex 7.390916e+00 1.740097e+01 3.188255e+00
vertex 7.704406e+00 1.712349e+01 3.339224e+00
endloop
endfacet
facet normal -2.804036e-01 9.577462e-01 6.400029e-02
outer loop
vertex 6.879463e+00 1.749271e+01 3.000000e+00
vertex 6.566116e+00 1.740097e+01 3.000000e+00
vertex 6.609084e+00 1.740097e+01 3.188255e+00
endloop
endfacet
facet normal -1.782182e-01 9.736729e-01 1.421243e-01
outer loop
vertex 6.609084e+00 1.740097e+01 3.188255e+00
vertex 6.729478e+00 1.740097e+01 3.339224e+00
vertex 7.000000e+00 1.750000e+01 3.000000e+00
endloop
endfacet
facet normal -9.890365e-02 9.736729e-01 2.053756e-01
outer loop
vertex 6.729478e+00 1.740097e+01 3.339224e+00
vertex 6.903452e+00 1.740097e+01 3.423005e+00
vertex 7.000000e+00 1.750000e+01 3.000000e+00
endloop
endfacet
facet normal -0.000000e+00 9.736729e-01 2.279497e-01
outer loop
vertex 6.903452e+00 1.740097e+01 3.423005e+00
vertex 7.096548e+00 1.740097e+01 3.423005e+00
vertex 7.000000e+00 1.750000e+01 3.000000e+00
endloop
endfacet
facet normal 9.890365e-02 9.736729e-01 2.053756e-01
outer loop
vertex 7.096548e+00 1.740097e+01 3.423005e+00
vertex 7.270522e+00 1.740097e+01 3.339224e+00
vertex 7.000000e+00 1.750000e+01 3.000000e+00
endloop
endfacet
facet normal 1.782182e-01 9.736729e-01 1.421243e-01
outer loop
vertex 7.270522e+00 1.740097e+01 3.339224e+00
vertex 7.390916e+00 1.740097e+01 3.188255e+00
vertex 7.000000e+00 1.750000e+01 3.000000e+00
endloop
endfacet
facet normal 1.784366e-01 9.736972e-01 1.416835e-01
outer loop
vertex 7.354605e+00 1.743502e+01 3.000000e+00
vertex 7.000000e+00 1.750000e+01 3.000000e+00
vertex 7.390916e+00 1.740097e+01 3.188255e+00
endloop
endfacet
facet normal -1.639080e-14 3.065762e-14 1.000000e+00
outer loop
vertex 7.220000e+00 1.583000e+01 3.510000e+00
vertex 6.880022e+00 1.564823e+01 3.510000e+00
vertex 6.914581e+00 1.564408e+01 3.510000e+00
endloop
endfacet
facet normal -2.668579e-15 0.000000e+00 1.000000e+00
outer loop
vertex 6.620000e+00 1.583000e+01 3.510000e+00
vertex 6.620000e+00 1.572831e+01 3.510000e+00
vertex 6.880022e+00 1.564823e+01 3.510000e+00
endloop
endfacet
facet normal -1.156482e-15 2.163103e-15 1.000000e+00
outer loop
vertex 6.880022e+00 1.564823e+01 3.510000e+00
vertex 7.220000e+00 1.583000e+01 3.510000e+00
vertex 6.620000e+00 1.583000e+01 3.510000e+00
endloop
endfacet
facet normal 2.271928e-15 0.000000e+00 1.000000e+00
outer loop
vertex 6.914581e+00 1.564408e+01 3.510000e+00
vertex 7.220000e+00 1.566844e+01 3.510000e+00
vertex 7.220000e+00 1.583000e+01 3.510000e+00
endloop
endfacet
facet normal 1.632162e-14 -1.000000e+00 4.239793e-14
outer loop
vertex 7.220000e+00 1.583000e+01 3.510000e+00
vertex 6.834809e+00 1.583000e+01 3.723749e+00
vertex 6.660212e+00 1.583000e+01 3.660033e+00
endloop
endfacet
facet normal -2.245284e-14 -1.000000e+00 -2.747655e-14
outer loop
vertex 6.834809e+00 1.583000e+01 3.723749e+00
vertex 7.220000e+00 1.583000e+01 3.510000e+00
vertex 7.193931e+00 1.583000e+01 3.632318e+00
endloop
endfacet
facet normal -1.895765e-14 -1.000000e+00 -1.374809e-14
outer loop
vertex 7.193931e+00 1.583000e+01 3.632318e+00
vertex 7.121372e+00 1.583000e+01 3.732372e+00
vertex 6.834809e+00 1.583000e+01 3.723749e+00
endloop
endfacet
facet normal -3.277174e-14 -1.000000e+00 -1.407742e-13
outer loop
vertex 6.660212e+00 1.583000e+01 3.660033e+00
vertex 6.630350e+00 1.583000e+01 3.588119e+00
vertex 7.220000e+00 1.583000e+01 3.510000e+00
endloop
endfacet
facet normal -1.387779e-14 -1.000000e+00 1.838589e-15
outer loop
vertex 6.630350e+00 1.583000e+01 3.588119e+00
vertex 6.620000e+00 1.583000e+01 3.510000e+00
vertex 7.220000e+00 1.583000e+01 3.510000e+00
endloop
endfacet
facet normal 9.913368e-01 -1.419964e-03 -1.313365e-01
outer loop
vertex 6.620000e+00 1.583000e+01 3.510000e+00
vertex 6.630350e+00 1.583000e+01 3.588119e+00
vertex 6.630209e+00 1.578029e+01 3.587597e+00
endloop
endfacet
facet normal 9.914559e-01 0.000000e+00 -1.304425e-01
outer loop
vertex 6.630209e+00 1.578029e+01 3.587597e+00
vertex 6.620000e+00 1.572831e+01 3.510000e+00
vertex 6.620000e+00 1.583000e+01 3.510000e+00
endloop
endfacet
facet normal 9.235409e-01 1.422475e-03 -3.834972e-01
outer loop
vertex 6.630209e+00 1.578029e+01 3.587597e+00
vertex 6.630350e+00 1.583000e+01 3.588119e+00
vertex 6.660212e+00 1.583000e+01 3.660033e+00
endloop
endfacet
facet normal -9.780348e-01 -0.000000e+00 -2.084417e-01
outer loop
vertex 7.220000e+00 1.583000e+01 3.510000e+00
vertex 7.220000e+00 1.566844e+01 3.510000e+00
vertex 7.193931e+00 1.574996e+01 3.632318e+00
endloop
endfacet
facet normal -8.095334e-01 -9.028647e-13 -5.870739e-01
outer loop
vertex 7.121372e+00 1.583000e+01 3.732372e+00
vertex 7.193931e+00 1.583000e+01 3.632318e+00
vertex 7.193931e+00 1.574996e+01 3.632318e+00
endloop
endfacet
facet normal -9.780348e-01 -9.432040e-13 -2.084417e-01
outer loop
vertex 7.193931e+00 1.574996e+01 3.632318e+00
vertex 7.193931e+00 1.583000e+01 3.632318e+00
vertex 7.220000e+00 1.583000e+01 3.510000e+00
endloop
endfacet
endsolid SHAPR3D_SOLID
